<svg version="1" xmlns="http://www.w3.org/2000/svg" width="682.667" height="682.667" viewBox="0 0 512 512"><path d="M48 2.6c0 1.9-.4 2.5-1.5 2-.8-.3-1.9.2-2.4 1.1-.8 1.4-1.2 1.5-2.5.4s-1.7-1-2.5 1.1c-.5 1.3-1.6 3-2.5 3.7-1.7 1.5-2.3 5.6-.6 4.6.6-.4 1.8-.1 2.7.7 1.4 1.1 1.5 1 .9-.8-.4-1.5-.2-2.4.9-2.7.8-.4 1.2-1.3.9-2.2-.4-1 0-1.5 1-1.5.9 0 1.6-.4 1.6-.9s.6-1.1 1.4-1.4c2-.8 2.8 1.9 1.1 3.6-.7.8-1 1.9-.5 2.6.8 1.4-.5 8.1-2.2 11.7-.5 1.2-.9 3.4-.8 5 .5 7.4.1 7.9-6.6 9-1.8.3-3.5 0-3.9-.6-.9-1.5-2.5-1.2-2.5.5 0 .8.7 1.5 1.5 1.5 2.3 0 1.9 4.7-.6 6-1.1.7-2.3.9-2.6.6-.8-.8.7-2.6 2.3-2.6.8 0 1.4-.7 1.4-1.7 0-1.4-.2-1.4-2 .2-1.1 1-2 1.4-2.1.9 0-.5-.5.2-1.1 1.6-.6 1.4-1 3.1-.9 3.8.2 1-.7 1.1-3.3.7l-3.5-.7.9 3.2c.8 2.6.7 3-.5 2-.9-.8-1.5-.8-2 0s-1 .8-2 0-1.5-.6-2 .9c-.7 2.4 2.4 7.3 4.2 6.6.7-.2 2.2 1.4 3.4 3.5 1.9 3.3 2.5 3.8 3.7 2.7 1.3-1 1.4-.7 1 2.1-.2 1.7-.1 3.2.3 3.2 1 0 1.9 3.9 1.2 5.6-.9 2.3-3.5-.4-2.7-2.9.4-1.3.2-1.7-.5-1.3-.6.4-1.1 2.1-1.1 3.7 0 3.7 2.7 5 4.6 2.4 1.2-1.7 1.4-1.7 1.4-.2 0 .9-.9 2.2-2 2.9-1.1.7-2 1.8-2 2.5 0 .6-.4 1.4-.9 1.7-.4.3-.6-.5-.4-1.7.2-1.2-.6-3.3-1.7-4.7-1.9-2.5-2-2.5-2-.3 0 1.2.5 2.5 1 2.8.6.3 1 1.5 1 2.6s-.4 1.7-1 1.4c-.5-.3-1-1.5-1-2.6 0-1-.5-1.9-1.1-1.9-1.8 0-.1 5.3 2.3 7.1 1.3 1 1.8 2.1 1.3 2.9-.6.9-.9.9-1.6-.1-.7-1.1-.9-1-.9.3 0 1.2.8 1.8 2.1 1.8 1.7 0 2-.5 1.7-2.5-.3-1.4-.1-2.8.3-3.1.5-.3.9.2.9 1 0 2.4 2.9.8 4.6-2.7 1.1-2.1 1.3-3.2.5-3.7-1.8-1 2-3.8 5.2-3.8 3.1.1 3.6 1.7.7 2.5-2.4.6-2.6 3.5-.5 5.3 1.2 1 1.5 1 1.5-.3 0-.9.5-1.9 1.2-2.3.7-.4.8-.3.4.5-1 1.6.2 6.3 1.4 5.6 1.8-1.1 1 2.1-1 4.3-2.5 2.6-2.5 3.3-.2 2.5 1.5-.6 1.6-.5.2 1.1-.8 1.1-1.6 1.4-1.8.7-.5-1.4-4.2-1.5-4.2-.1 0 .5-.5 1-1.1 1-.6 0-.8-.9-.4-2 .3-1.1.2-2-.4-2-1.8 0-2.3 2.1-1.1 5.1.7 1.6 1 3.3.6 3.7-1 .9-2.7-2-2.1-3.6.3-.8 0-1.2-.7-.9-.7.2-1.2 1.4-1 2.5.3 2-.3 2.4-3.5 2.1-.5 0-.7-.7-.7-1.4.1-1.1-.3-1.2-1.7-.4-1.1.5-1.9 1.4-1.9 1.9 0 .6-.4 1-.8 1-1.3 0-.7-6.7.8-8.5 1-1.2 1-1.5-.4-1.5-1 0-2.3.6-2.9 1.2-2.2 2.3-5.1 8.7-4.4 9.5.4.4 1-.3 1.4-1.5.8-3.2 2.3-2.7 2.3.7 0 1.7.5 3.3 1 3.6 1.8 1.1 1.1 2.3-1 1.8-2.1-.5-2.5.3-1.4 3.1.5 1.3.9 1.4 2 .5.8-.6 1.4-.7 1.4-.2 0 1.3-5.8 4.5-7 3.8-.6-.4-.9 1.5-.9 4.9.1 3.3.6 5.3 1.1 5 .5-.4.7-1.5.5-2.6-.4-1.4-.1-1.8.8-1.4.8.3 1.8-.6 2.4-2.2.8-2.4 1-2.5 1-.5.1 1.2-.4 2.5-.9 2.8-1.3.8-1.3 5.5 0 5.5s1.3 5 0 7c-.7 1.1-1 .7-1-1.9 0-4.9-1.1-3.2-1.5 2.3-.2 3 .1 4.6.9 4.5 3-.4 3.6.3 3.6 4 0 3-.4 4-2 4.4-1.1.3-2 1-2 1.6 0 1.4 2.7 1.4 3.5.1 1.2-1.9 2.6-1 2 1.2-.7 2.3-.7 2.3.9.3.8-1.1 1.8-3.5 2.2-5.3.3-1.7 1-3.2 1.5-3.2s.6-.6.3-1.4c-.3-.7.4-3 1.6-5.1 1.1-2 1.8-4.4 1.6-5.3-.7-2.3 1.8-10.5 3.4-11 .8-.3 1 .3.6 1.9-.7 2.3-.6 2.3.8.5.9-1 2.2-1.6 3.1-1.3 1.1.5 1.5 0 1.5-2 0-1.9.3-2.4 1-1.7.8.8.7 1.9 0 3.9s-.8 3.1 0 3.9c1.3 1.3 1.3 4.6 0 4.6-.5 0-1-.7-1-1.6 0-1-.6-1.4-1.4-1.1-.8.3-1.6.1-1.8-.5-.2-.6-.9-.3-1.7.6-.9 1.1-1 1.6-.2 1.6.6 0 1.1 1 1.1 2.1 0 1.6-.5 2-2 1.6-2.4-.6-3.5 2.6-2.7 7.9.3 1.8.2 3.4-.2 3.4s-.9 3-.9 6.7c-.1 5.7-.5 7.1-3 10.2-3.9 4.9-2.8 7.8 2 5.7 3.5-1.6 4.9 0 4.2 4.6-.5 3.7-.4 4.1.8 2.7 1.1-1.4 1.7-1.5 3.1-.4 2.4 1.8 2.1 2.6-.8 1.9-1.7-.4-2.5-.2-2.5.7 0 .7-.7.3-1.6-.9-.9-1.3-1.3-2.9-1.1-3.6.3-.8 0-2.2-.7-3.1-1.1-1.5-1.4-1.4-3.1.9-1.9 2.5-5.5 3.6-5.5 1.6 0-.6.4-1 .9-1s.8-1.7.7-3.8c-.3-4-1.6-9.2-2.2-9.2-.2 0-1.8 1.5-3.4 3.2-2.4 2.6-3 4-2.8 7 .2 2 0 3.4-.4 3.2-.5-.3-.8.2-.8 1 0 1.8 2 3.2 2.1 1.4 0-.7.9.7 1.9 3.2 1 2.5 2 3.9 2.1 3.2.1-.6.2-1.6.3-2.2 0-.5.6-1.4 1.3-2.1 1-1 1.5-.6 2.3 1.6.8 2 .8 3 0 3.5-1.7 1-1.8 8.1-.2 11.9 1.2 3.1 1.2 3.6-.3 4.8-3.4 2.4-.7 14.1 3 13 3.5-1.2 4.1 6.3.6 8.2-.9.5-1.2 1.3-.7 1.8.5.4 1.1.2 1.3-.5.3-.6 1.1-1.2 1.9-1.2 1 0 1.1.6.5 2.2-.6 1.7-1.7 2.3-4.1 2.5-2.8.1-3.1-.1-2.6-2 .3-1.2.6-3.2.6-4.5 0-1.5.5-2.2 1.4-2 .8.2 1.4-.2 1.3-.7-.1-.6-.5-.9-.9-.8-.4.2-1.6-.9-2.7-2.4-1.2-1.4-2.1-2-2.1-1.3s-.7 1-1.5.6c-2.1-.8-1.9.4.7 3.1 2 2.1 2 2.4.5 4.1-1 1.1-1.4 2.6-1 4 .6 2.3-.5 9.7-1.3 8.9-.5-.4-1.1-3-2-8.2-.3-1.7-.1-5.6.4-8.8.6-4 .6-5.7-.2-5.4-.6.2-1.3 1.4-1.7 2.8-.4 1.3-.8 2.2-.9 1.9-.5-1.1-.6-6 0-6 .7 0 .5-12.9-.3-13.7-.4-.3-.7.7-.7 2.3 0 1.6-.3 5.8-.6 9.5-.5 4.8-.3 6.9.7 8 1.9 1.9 2.1 13.2.2 12.5-.8-.3-1.3.2-1.3 1.4 0 1.1.5 2 1 2 .6 0 1-.5 1-1.1 0-.5.4-.7 1-.4.6.4.2 1.5-1 2.7-1.1 1.2-1.7 2.4-1.5 2.8.3.5-.3 1.1-1.2 1.4-.9.4-2 .1-2.5-.6-.6-1-.8-.9-.8.4 0 .9 1 2.4 2.1 3.2 1.7 1.1 2.4 3 2.9 7.8.4 3.5.8 5.7.9 5 0-.7.5-1 1.1-.7.6.3 1-.4 1-1.6 0-1.8.3-2 1.2-1.1.8.8.8 1.5-.1 2.6-.7.8-1 1.9-.7 2.4.2.4.1 2.6-.4 4.7-.6 2.5-.5 4.4.1 5.1.7.8.6 1.4-.1 1.9-.7.4-.7 1.2 0 2.6.8 1.3.7 3.1 0 5.9-1.1 4-.7 6 1.1 6 .5 0 .9-1.2.9-2.7 0-5.2 2-.8 2.3 5 .1 4.4.6 5.7 2 6.1 1.1.3 1.5 1 1.1 2-.3.9-.2 2.2.4 2.9 1.2 1.4.4 6.7-.9 6.7-.5 0-.9-.5-.9-1.1 0-.5-.5-.7-1-.4-.6.3-1 1.5-1 2.6s-.4 1.7-1 1.4c-.5-.3-1-1.4-1-2.5 0-1.3-.5-1.7-2.1-1.3-1.2.4-1.8 1.1-1.5 2 .3.8.6 2.2.6 3.1 0 1.5.2 1.5 1 .2.9-1.3 1.1-1.3 2 0 .5.8 1 2.1 1 2.9 0 .8.9.2 2.1-1.3 1.1-1.4 2.5-2.3 3.1-2 .5.3 0 1.5-1.2 2.6s-1.9 2.7-1.6 3.5c.3.8.6 1.7.6 1.9 0 .2.7.4 1.5.4s1.5.4 1.5 1-.9.6-2.6 0c-1.4-.6-2.6-1-2.8-1-.1 0-.2.9-.2 2s.4 2 .8 2 .8 1.1.8 2.5.5 2.5 1.1 2.5c.6 0 .8-.9.4-2-.3-1.1-.4-2-.2-2 .8 0 3.8 10.2 3.3 10.8-.3.3-.6-.3-.6-1.3 0-1.4-.3-1.5-1.5-.5-1.4 1.2-2 .7-1.6-1.4.3-1.5-2.3-2.5-3.6-1.4-1.7 1.4-1.7 2.9.1 2.2 1-.4 1.6.5 2.1 2.5.7 3.1 2.9 4.2 3.8 1.8.3-.7.6-.6.6.5.1.9-.3 2-.9 2.3-.6.3-1 1.7-1 3s-.5 2.7-1 3c-.6.3-1 1.1-1 1.7 0 .6.6.5 1.6-.3 1.4-1.1 1.8-1 3 .6 2 2.7 1.7 3.5-.8 3.2-2.3-.2-2.5.4-1.3 3.5.5 1.3.2 1.8-.9 1.8-.9 0-1.6-.8-1.6-2 0-1.1-.5-2-1.1-2-.7 0-.9.9-.6 2.1.3 1.2.1 3.3-.4 4.8l-1.1 2.6-1.3-2.5c-1.2-2.3-1.4-2.3-2.1-.7-.4 1.3 0 2.6 1.5 4 1.4 1.5 2.1 1.7 2.1.8 0-1.1.5-.9 2 .4 2.1 1.9 2.7 6 1 7-.6.4-.7 1.1-.4 1.7.8 1.3 3.3-2.8 3.4-5.5 0-2.3 3-2.2 3 .2 0 1.1.3 2.6.6 3.4.3.8-.2 2.2-1.1 3.1-.9.9-1.3 1.6-.8 1.6.4 0-.3.7-1.5 1.6-1.2.8-2.2 2.1-2.2 2.8 0 .8-.7 1.6-1.5 2-2.5.9-1.8 3.8.7 3.4 2.2-.3 2.3 0 2.1 5.4-.1 3.5.2 5.8.9 5.8.5 0 .8-.6.5-1.4-.3-.8.5-2.4 1.9-3.7 2.6-2.4 3.4-1.1.9 1.5-1.7 1.6-2 3-.6 2.1 1.1-.6 4.1 2.1 4.1 3.8 0 2.7-2 4-6.5 4.3-5.7.3-7.1 1.4-5.6 4.3 1 1.7.9 2.1-.4 2.1s-1.4.4-.5 2c1.3 2.5.3 2.6-2.3.2-1.6-1.3-1.9-1.4-1.5-.2.2.8 1.9 1.9 3.6 2.5 3.6 1 3.9 1.7 1.7 3.5-2.1 1.8-1.9 2.9.9 4 2 .7 2.4 1.7 2.8 6.9.2 3.4.9 6.6 1.4 7.1.7.7.9-.3.7-2.8-.2-2.7 0-3.1.5-1.4.4 1.3 1.2 2.2 1.7 2 .6-.2 1.1.7 1.3 1.9.2 1.3.8 2.3 1.3 2.3.6 0 .8-.4.4-.9-.3-.5-.1-1.2.5-1.6.5-.3 1.4.5 1.9 1.8s2.3 3 4.1 3.7c4.1 1.7 3.3 3.4-1.8 3.8-3.5.3-4.2 0-4.2-1.5-.1-1.6-.2-1.6-1.3-.3-1.5 1.9-6.5 1.5-9.4-.8l-2.2-1.7 1.8-8.2c1-4.5 1.4-8 1-7.7-.4.2-1.3 3-2 6.2-1.9 9.1-2.8 9.4-2.9 1.2 0-4.6.5-8.1 1.2-8.8.9-.9.8-1.2-.4-1.2-2.2 0-3.3 8.7-1.9 15.4.5 2.7.7 5.5.4 6.2-.3.7-.1 1.8.3 2.5.5.8 1 .5 1.8-.9.8-1.5 1.5-1.9 2.6-1.2s1.2 1.2.3 2.1c-.8.8-.7 2 .4 4.8 1.7 4.1 4.3 7.3 4.3 5.3 0-.7.5-1 1.1-.7.7.5.5 1.5-.6 3.1-.8 1.3-1.1 2.4-.5 2.4.6 0 1.5 1.2 2.1 2.8 1 2.7 1.1 2.7 2.6.7 1.4-1.9 1.5-1.7 1 3-.6 6.1.6 13.4 2.4 14.6 1.2.7 1.1.9 0 .9-1.2 0-1.2.3-.3 1.2.7.7 1.3 2.6 1.3 4.3.1 2.3.3 2.5.6.7.5-2.3 1.8-2.9 2.8-1.1.4.5 1.7.9 2.8.8 4.2-.3 5.7.1 5.7 1.5 0 .8 1.4 2.8 3 4.4 3.1 3.2 4 3 1.5-.4-1.6-2.1-2-4.8-.5-3.9 1.3.8 5-3.1 5-5.4 0-1.1.5-2.3 1-2.6.6-.4-.1-2-1.6-4.1-3-3.9-1.3-4.8 2.4-1.4 2.3 2.2 2.8 4.5 1.2 5.5-1.9 1.2-1.1 3.8 1 3.2 1-.3 2.1 0 2.4.7.3.8.5.7.5-.1.1-.7.8-1 1.6-.6 1.3.4 1.5 0 1.1-2.2-.9-5 6.2-9.5 9-5.7.9 1.3 1.2 1.3 1.7-.2.5-1.4 1.4-1.6 3.7-1.1 2.3.5 3 .3 3-.9 0-2.2-4.8-6.6-6.5-6-.9.4-1.8-.1-2.2-1.2-.3-1.1-1.1-2.2-1.7-2.6-.8-.5-.7-.8.1-.8.6 0 1.5.5 1.8 1 .4.6 1 .8 1.5.5.5-.3 2 .6 3.4 2s2.9 2.5 3.4 2.5 1.3 1 1.6 2.2c.6 1.8.9 2 1.4.8.4-.8 1.6-1.5 2.7-1.4 1.1 0 2.8-.6 3.8-1.4.9-.8 1.7-1.2 1.7-.8 0 .3 1.8-.6 4-2 3.7-2.5 5.1-4.4 3.1-4.4-.4 0-2.5 1.3-4.6 3-5.3 4.2-6.5 2.6-1.7-2.3 2.7-2.7 4.4-3.7 5.3-3.1 1.6 1 4.4 1.5 8.2 1.4 1.9 0 2.6.3 2.1 1.1-.4.8-.3.9.4.5 2-1.2 5.2-1.5 5.2-.5 0 .6.5.7 1.1.3.6-.3.8-1.7.5-2.9-.8-3.2.2-5.5 2.5-5.5 1.2 0 1.9.7 1.9 1.9 0 1.4.5 1.8 2 1.4 1.5-.4 1.9-1.1 1.4-2.5-1-3.1 3.3-1.3 7.2 3.1 6.6 7.3 8.3 9.5 7.9 10.1-.2.3.6.7 1.7.7 1.9.2 1.9 0-.7-2.7-1.5-1.5-2.8-3.9-2.9-5.3 0-1.4-.4-2.5-.8-2.4-.9.3-6.8-3.6-6.8-4.4 0-1.1 4.4-1.6 12.1-1.3 6.5.2 7.4.4 7.1 2.1-.2 1.6-.1 1.6 1 .3.9-1.1 2.2-1.4 4.3-.9 2.4.5 2.7.7 1.3 1.3-1.6.7-2.6 4.6-1.2 4.6.9 0 3.4-2.8 3.4-3.8 0-.5.9-1.2 2-1.5 2.6-.7 2.5.4-.2 2.8-1.6 1.4-1.9 2-.9 2.3.8.3 1.8-.3 2.3-1.2.6-1.1 1.7-1.4 3.6-1 2.2.5 2.5.4 1.5-.7-1.7-1.7-1.6-2.6.3-3.3 1-.4 2.2.1 3 1.1 1.2 1.6 1.3 1.6 1.4.2 0-1 1.1-1.9 2.5-2.1 1.9-.4 2.5-.1 2.5 1.3 0 2.7 2 2.3 2.1-.4.1-2.1.1-2.1.8.2.9 3.3 2.8 3.8 3.4.9.4-2.3.4-2.3.6.1.1 2.4.1 2.4 1.5.5.8-1.1 1.8-1.5 2.3-1 .4.5.3 1.1-.4 1.3-.8.3-.7 1 .4 2.3 1.4 1.6 1.8 1.6 3 .4 1.6-1.6 3.7-1.9 2.8-.4-.3.5-.1 1 .4 1 .6 0 1.1-.5 1.1-1.1 0-.5 1.1.2 2.5 1.7s2.5 3.1 2.5 3.6.7.5 1.6 0c.9-.5 2.5-.7 3.5-.5 1.1.3 1.9 0 1.9-.6s.5-1.1 1.1-1.1c.5 0 .7.4.4 1-.3.5 0 1 .9 1 .8 0 1.7.6 2 1.2.9 2.4 4.8-3.3 4.4-6.4-.3-1.5-.2-2.6 0-2.3.3.3 1.3-.2 2.3-1.1 1.8-1.6 1.8-1.5 1.4 2.2-.3 2.4-.2 3.4.4 2.5.5-.7 1.1-.9 1.4-.4.3.5-.7 2.2-2.4 3.7-2.5 2.4-3.9 5.6-2.4 5.6.8 0 5-4.7 5.3-6.1.2-.7.7-2 1.2-2.9.8-1.2.9-1 1 .9 0 1.7.4 2.1 1.5 1.7 1.2-.4 1.3-.2.7 1.2-.5.9-.7 2.2-.5 2.9.5 1.5-1.4 2.6-2.2 1.3-.7-1.2-3.5-1.4-3.5-.2 0 1.4 5.7 3 7.4 2 1-.5 1.6-.5 1.6 0 0 1.6 7.5-1.5 7.8-3.1.2-.9 1.3-1.7 2.5-1.9 1.4-.2 2.1-.9 1.9-2-.1-.9.2-1.9.8-2.3.5-.3 1-.2 1 .3 0 .6 1.4.7 3.4.2 1.8-.4 4-.3 4.9.1.9.5 2.6.5 4.1-.1 3.5-1.3 3.3-2.1-.4-1.4-2.9.6-3 .6-2.5-2.7.5-3.1.4-3.2-.6-1.2-1.5 2.8-2.9 3-2.9.4 0-1.1-.6-2.2-1.2-2.4-.8-.4-.7-.6.4-.6.9-.1 1.9-.7 2.2-1.4.5-.9.7-.9 1.2 0 .4.9 1.1 1 2.4.3 1.4-.7 1.9-.5 2.3 1 .3 1.3 1.1 1.8 2.6 1.5 1.6-.3 2.4.3 3.1 2 .5 1.4 1.5 2.5 2.1 2.5.6 0 .8-.7.5-1.6-.3-.8.1-2.2.8-3 1.3-1.2 1.6-1.2 2.3 0 .4.8 2.2 1.6 3.8 1.9 1.7.3 3.8.8 4.7 1.2 1.2.5 2 .2 2.4-.9.3-.9 1-1.3 1.5-1 .5.3.9-.3.9-1.3.1-1.4.6-1.2 2.6 1.2 2.3 2.9 2.4 2.9 2.2.6-.2-1.4.3-2.6 1.2-2.8 1.3-.4 1.3-.3 0 .6-1.2.9-1.2 1.3-.2 1.9.7.5 1 1.6.6 2.5-.4 1.2-.1 1.7 1.4 1.7 1.1 0 2.2-.7 2.6-1.5.3-.8 1.2-1.5 2-1.5s1.7-.6 1.9-1.3c.4-.7.6-.6.6.4.1 2 2.2 3 4.9 2.2 1.7-.4 2.1.1 2.4 2.3l.3 2.9 2-2.1c1.1-1.2 3-2.3 4.1-2.6 2-.5 2.1-.3 1.4 2.3-.5 1.8-.4 2.9.3 3.2.6.2.8 1.1.4 2.1-.5 1.3-1.1 1.5-2 .8-.6-.6-2.1-1.2-3.2-1.4-1.1-.1-2.3-.7-2.6-1.1-.9-1.3-4 .4-3.7 2.1.2.9-.7 1.9-2.2 2.3-2.5.7-2.5.7-.2.8 1.4.1 2.1.5 1.6 1.2-.3.6-1.5.9-2.5.6-3.7-1-1.9 2 2 3.1 4.9 1.5 5.8 1.5 4.3 0-1.9-1.9-1.4-4.5 1.1-5.2 3.7-1 6.7-.7 6.7.7 0 1.2 6.6 3.8 7.5 2.9.2-.3.2-2.2-.1-4.4-.5-3.1-.4-3.8 1-3.8.9 0 1.6.6 1.6 1.2 0 .7.5.5 1.1-.5 1.4-2.3.3-3.5-3.5-4-1.7-.2-3.2-.9-3.4-1.5-.5-1.5 5.4-.5 8.6 1.4 1.2.8 2.2 1.2 2.2.8 0-.4.7-.1 1.5.6.9.7 2.5 1 4 .6 2.1-.5 2.5-1.1 1.9-2.9-.4-1.2-1.2-2.5-1.8-2.9-.6-.4-.8-1-.4-1.3.8-.9 12.3-.9 19.4-.1 5.1.6 6.2.5 6.7-.8.7-1.8 4.7-2.2 4.7-.5 0 .6-.5 1.9-1.1 3-1 1.9-.9 1.9 1 .9 1.2-.6 2.1-.7 2.1-.1 0 .5.9.7 2 .4 1.1-.3 2.6 0 3.4.6 1.1.9 1.8.6 3.5-1.5 1.2-1.5 2.1-3.1 2.1-3.5 0-.5.7-.9 1.5-.9 1.2 0 1.4.7.9 2.8-.7 2.4-.6 2.6.9 1.4.9-.8 2.4-1.2 3.4-1 1.5.3 1.5.6-.6 2.5-1.7 1.6-2.9 1.9-4.4 1.4-1.2-.5-2.9-.5-3.7 0-.8.4-2.4 1-3.4 1.4-3.9 1.2-.3 1.7 9.7 1.4 1 0 2.7 1 3.8 2.3 1.5 1.7 1.9 1.8 1.5.5-.3-.9-.1-1.7.4-1.7.6 0 1 .4 1 1 0 1.4 3.7 5 5.1 5 .6 0 .9-.7.5-1.5-.3-.9.4-2.5 1.5-3.6 1.7-1.7 1.9-2.3.8-3-.8-.5-1.2-.9-.9-1 .3 0 1.5-.2 2.7-.5 1.5-.2 2.6.3 3.3 1.6 1.1 2.1.5 4.4-1 3.5-1.4-.9-2.3 1.6-1.1 2.8 1.5 1.5 1.4 2.7-.4 2.7-.8 0-1.5-.6-1.5-1.4 0-.8-.5-1.8-1.1-2.2-.7-.4-.9 0-.5 1.3.5 1.4 0 2.3-1.6 3l-2.3 1.1 2.5 1c2.4 1 2.3 1.1-1.2 1.1-3.5.1-5.2-1.3-2.8-2.1.6-.2.3-1.4-.7-2.8l-1.7-2.4-.6 2.4c-.5 2-1.2 2.5-3.5 2.5-1.7 0-3.6-.7-4.2-1.6-1.3-1.7-7.3-3.2-7.3-1.8 0 .4-1.4.6-3.1.4-2.1-.3-2.9 0-2.6.8.2.7 1.7 1.3 3.3 1.5 1.6.2 3.4.8 3.9 1.4.7.6.4.9-.9.6-1-.1-2.1.3-2.4 1.1-.3.8 0 1.1.6.7 1.4-.9 4.2.4 4.2 1.9 0 .7.6 1.6 1.3 1.8.6.3-.1.6-1.6.6-3.1.1-4.8 2.8-2.6 4.2 2.6 1.6 4.1 1 3.5-1.4-.3-1.2-.3-1.6 0-.9.3.6 1.1.9 1.7.5.6-.4.8 0 .4 1-.4 1.1-.1 1.7.8 1.7.8 0 1.5.6 1.5 1.2 0 1 .2 1 .9 0 .6-1.1 1.3-1.1 3-.3 1.1.6 2.9 1.5 4 2 1 .5 2.2.6 2.7.1.5-.4 1.8-.4 2.9 0 1.9.8 1.9.8-.5 1.8-2.5 1.1-2.5 1.1-.2 1.1 1.3.1 3.2-.4 4.3-.9 2.2-1.2 2.6-3.5.4-2.6-2.1.8-1.9-1.4.2-2.9 1.5-1.1 2.1-.9 4.1 1.2 1.7 1.9 2.9 2.3 4.7 1.9 1.5-.4 2.5-.2 2.5.4 0 .6.5.8 1.1.4.6-.3 1.4-.2 1.8.4.4.6 2.8 1.3 5.5 1.5 3.3.2 5.3.9 6.3 2.3 1.5 1.8 1.5 1.8.9-.3l-.7-2.2 4.3 2.2c4.4 2.1 5.6 2.5 9.6 2.9 1.2.1 2.2.8 2.2 1.4 0 .7.8 1 2 .7 1.4-.4 2.7.3 4.1 2.1 1.2 1.5 2.3 2.5 2.6 2.2.3-.3 1.5.6 2.8 1.9 1.2 1.4 2.6 2.1 3 1.7.4-.4.6 0 .3.8-.2.8-1.4 1.6-2.5 1.8-3.5.5-3.5 3-.1 6.7 2.9 3.2 3.6 3.5 8.7 3.5 3.3-.1 6.4-.7 7.5-1.5 2.5-1.9 4-1.9 3.3-.2-.4 1 .6 1.3 3.6 1.3 3.4 0 4.9-.7 7.4-3.3 2-2 3-3.8 2.7-4.8-.5-1.1.1-1.5 2.4-1.5 3.2 0 9.2-3.9 6.1-4-.9 0-2.2.7-2.9 1.5-1.4 1.7-4 2-4 .4 0-.5-.6-.7-1.2-.3-2 1.2-4.9 1.2-4.5 0 .2-.6.9-1.1 1.5-1.1 2.1 0 2.5-1.5 1.2-4l-1.4-2.6-2 2.5c-2.2 2.7-3.2 3-8.6 2.6l-3.5-.2 3.2-.9c2.3-.7 3-1.4 2.6-2.8-.3-1.3.4-2.1 2.5-3 1.6-.7 4.3-2.6 5.8-4.3l2.9-3-4 1.9c-6 3-11.4 4-10.8 2.1.2-.5-.6-.8-1.7-.8-3.3 0-2.3-2.9 2.6-7.8 4.1-4 4.9-4.4 6.6-3.3 1.4.8 2.3.9 3.2.2.9-.7 1.9-.6 3.5.6 2.8 1.9 3.8.9 4.7-4.9.7-4 .8-4 7.7-2.1 1.6.4 1.7.2.8-1.5-.6-1.1-1.6-2.2-2.3-2.5-1-.3-.7-1.6.9-4.8 3.1-6 6.3-14.9 5.4-14.9-.5 0-1.3 1-2 2.2-1 2-1.1 1.9-.6-1.5.4-2.3.2-3.7-.5-3.7s-.9-1.2-.4-3.5c.3-1.9.7-5.2.8-7.2.3-4.3 1.2-7 3.3-9.5 1.3-1.5 1.3-1.6-.6-1.1-1.1.3-2.1 1.5-2.3 2.7-.3 1.8-1.1 2.1-5 2.4-5.6.4-6.2-.9-1.4-2.6 2.3-.9 3.5-2 3.8-3.7.6-3-.8-3.4-1.7-.5-.3 1.1-1.1 2-1.6 2s0-1.8 1.1-4.1c1.2-2.2 1.9-4.6 1.7-5.2-.2-.7-.1-1.9.4-2.8.6-1.2.3-1.8-1.1-2.2-1.7-.4-1.9-.1-1.4 1.8.3 1.2.1 2.6-.5 2.9-.6.4-1.1 0-1.1-.8 0-.9-.7-1.6-1.5-1.6s-1.5-.6-1.5-1.4c0-.7.7-1.9 1.5-2.6.8-.7 1.5-1.9 1.5-2.6 0-1 .7-1.3 2.6-.8 1.8.5 2.5.3 2.4-.7-.3-2.1 1.1-5.9 2.1-5.9.5 0 .9 1.7 1 3.7 0 2.2.3 3.2.7 2.3.4-.8 2-3.5 3.5-5.8 3.1-4.7 3.2-6.5.2-3.2-2.2 2.4-4.5 2.6-4.5.4s4-7.5 5.1-6.9c.5.4.9.1.9-.6 0-.6-.8-.9-2-.6-1.7.4-2 0-2-3.1 0-2.6-.3-3.3-.9-2.3-.7 1.1-2 .6-6.1-2.9-5.3-4.4-7.4-4.8-4.6-.8 2.2 3.1 2 4.8-.3 2.1-1-1.2-2.2-1.9-2.6-1.5-.5.4-.5.1-.1-.6.6-.9.2-1.2-1-1-1.2.2-1.9-.3-1.9-1.2 0-1 .8-1.4 2.3-1.2 1.2.2 2.2 0 2.2-.5-.1-1.6-2.9-4.5-3.9-3.9-.5.4-1.2.2-1.6-.4-1.3-2.1-2.5.3-1.9 3.6.5 2.9.4 3.3-1 2.8-.9-.3-1.6-1-1.6-1.5 0-.4-1.2-1.4-2.7-2.1-3.4-1.6-4.3-4.8-1.4-4.8 1.1 0 2.3-.5 2.6-1 .8-1.3-1.4-4.2-2.5-3.5-1.6 1-2.1-1.5-.7-3 1.3-1.2 1.6-1.2 2 .6.6 2.4 4.7 2.3 5.5 0 .3-1 0-1.2-1.3-.7s-1.6.2-1.1-.9c.3-1 .2-1.3-.5-.9-.6.3-1.9-.3-3-1.5s-2.4-2.1-2.8-2.1c-.5 0-3.3-2-6.3-4.3-2.9-2.4-6.8-5.2-8.6-6.1-1.8-.9-3-2.1-2.6-2.7.9-1.6 4.6.1 8.3 3.7 3.7 3.8 4.6 4.1 5.5 1.8.5-1.3.9-1.2 2.8.5 1.2 1.2 3.2 2.1 4.4 2.1 1.3 0 2.6.4 2.9 1 .3.5 1.1 1 1.7 1 .6 0 .4-.8-.5-1.8-2-2.2-2.2-4.2-.4-4.3.6-.1 1.9-.2 2.7-.3.8 0 1.8.3 2.2.9.4.6.8.1.8-.9 0-1.9.1-1.9 2 .2 3 3.2 3.1 3.2 2.1-4.3-.1-.6-.6-.3-1.2.5-.8 1.1-1.2 1.2-1.6.2-.2-.6-1.2-1.2-2.1-1.2-1 0-2.3-.9-3-2-.7-1.1-1.8-2-2.5-2-1.3-.1-5.7-3.4-5.7-4.4 0-.3 1.2-.6 2.6-.6 1.4 0 2.3.4 1.9 1-.3.6-.1 1 .4 1 .6 0 1.1-1 1.1-2.3.1-2 .2-2 1.1-.4.5.9 1.8 1.7 2.7 1.6 1 0 1.2-.3.5-.6-.7-.2-1.3-1.2-1.2-2.1 0-1 .3-1.2.5-.6.3.7 1.4 1 2.4.7 2.2-.6 2.9 2.2.9 2.9-.8.3-.8 1 .2 2.6 1.5 2.4 5.1 2.9 7.1.9 1.6-1.7 4.7-3 7.3-3.1 1.3-.1 2.1-1.1 2.6-3.3.6-2.9.4-3.1-1.2-2.3-2.6 1.5-3.3 1.2-1.5-.6.9-.8 1.6-1.9 1.6-2.4 0-1.6-2.9.1-3.5 2-.6 2-4.2 3.4-4.7 1.8-.2-.5-2.2-1.2-4.6-1.5-4.2-.6-4.9-2.3-.9-2.3 1.2 0 3.3-.7 4.7-1.5 1.4-.8 3.5-1.9 4.8-2.4 1.2-.6 2.2-1.9 2.2-3.1 0-1.1.4-2.8.9-3.8.5-.9 1.4-2.9 2-4.5.6-1.5 1.6-2.6 2.3-2.5.7.2 1.2-.5 1.2-1.4-.1-1 .2-1.5.7-1.2 1.4.8 1-1.2-.4-2.5-1-.8-1.7-.7-2.5.1-.8.8-1 .3-.7-1.8.2-1.6.4-3.7.4-4.7.1-1.1 1.5-2.4 3.7-3.3 2.4-1 3.4-2 3-2.9-.3-.8.3-1.9 1.4-2.5 1.1-.6 2-1.6 2-2.2 0-.6-.6-.5-1.7.3-1.5 1.2-1.6 1.2-1-.5.5-1.1.3-2.2-.4-2.7-.9-.5-.9-1.5 0-4 .6-1.8.9-3.4.6-3.7-.2-.3-.7.4-1 1.4-.4 1-1.1 2.7-1.6 3.6-.5 1-.6 2.4-.3 3.3.3.8.2 1.5-.4 1.5-.5 0-1.2 1.4-1.6 3.1-.5 2.7-4.6 7.9-6.2 7.9-1.3 0-.1-3.1 1.7-4.4 1.2-.8 1.8-1.9 1.5-2.5-.4-.5-.2-1.2.4-1.6 1.5-.9.2-2.5-1.9-2.5-1 0-2.5-1-3.4-2.3-1.3-2-1.3-2.6.5-6 1.8-3.6 2-3.8 3.3-2 1.4 1.7 1.4 1.7 1.5-.7.1-1.4.4-1.9.7-1.3 1.2 3.2 6.1-2.7 5.5-6.7-.7-4.2-1.3-6-2.3-6-.6 0-1.9-1-2.8-2.1-1-1.2-2.3-2-3-1.8-1.6.6 2.4 5.9 4.5 5.9 1.7 0 1.7.5.4 3.1-1.7 3.1-4.2 2.5-3.4-.9.4-1.5.3-2.4-.1-2-1 1-3.5-1.7-3.5-3.7 0-.9-1.3-2.7-3-4.1-1.7-1.5-2.7-3.1-2.3-4 .4-1 0-1.2-1.1-.8-1.3.5-1.6-.1-1.6-2.9 0-2.7-.5-3.7-2-4.2-1.1-.3-2-1.1-2-1.6 0-1.1 1.4-1.2 2.4-.2 1.1 1.1 4.8 1.4 10.2.8 4.6-.5 5.1-.9 6-3.8.6-2 1.7-3.3 3.2-3.7 2.4-.5 5.1-4.4 7-10 1.1-3 1-3.5-.5-4.4-2.5-1.5-5.5-1.6-5-.2.2.6 1.4 1.1 2.6 1 1.1 0 2.1.3 2.1.7 0 2-3.5 7.9-4.7 7.9-.7 0-1.3.7-1.3 1.6 0 .9.5 1.2 1.2.8.7-.4.8-.3.4.5-.4.6-1.2.9-1.7.5-.5-.3-1.7 0-2.5.7-1.3 1.1-1.4.9-.9-1.3.5-1.9.1-2.8-1.9-4.1-1.5-1-2.3-2.3-2-3.2.6-1.6 4.5-1.6 5.6 0 .4.5 1 .6 1.4.2.4-.3.1-1.4-.6-2.3-1.2-1.3-1.1-1.7.1-2.5 1.2-.7 1.1-.9-.2-.9-1.9 0-5.2-3.4-4.2-4.3.3-.4 1.5 0 2.5 1 1.5 1.3 1.8 1.4 1.8.2 0-.8-.6-2.1-1.2-2.8-1.1-1.1-1-1.3.5-.8.9.4 1.7.2 1.7-.4 0-.5-1.2-.8-2.7-.7-2.4.3-2.8 0-2.6-2 .2-1.2-.2-2.2-.8-2.2-1.1 0-4.2-6.7-5.3-11.2-.5-2.3-.4-2.6 1.1-2.1 1 .4 2.8 1.4 4.1 2.4 2.6 2 4.9 1.3 7.1-2.2 1.4-2.3-.3-5.5-3.2-6.3-1.2-.3-1.6-.9-1.2-1.8.4-.7-.4 0-1.8 1.5-2 2.2-3.1 2.6-5.1 2.1-2-.5-2.6-.2-2.6 1 0 .9-.5 1.6-1.1 1.6-.6 0-.8-.8-.4-1.9.3-1.1.1-2.2-.5-2.6-.5-.3-1 0-1 .7-.1.7-.8 0-1.6-1.5-.9-1.7-2.1-2.6-2.9-2.3-.8.3-1.7-.4-2.1-1.6-.5-1.6 0-2.8 2-4.4 3.7-3.3 3.2-4-.7-1l-3.3 2.5-2.6-4.4c-1.8-2.8-2.2-4.2-1.2-3.8 1 .4 1.2 0 .8-1.1-.3-.9-1.4-1.5-2.3-1.4-1 .2-1.6-.4-1.6-1.6 0-1.1.8-2 1.8-2.2 2.2-.3 5.7 2.4 5.7 4.4 0 .8.6 1.2 1.4.9.7-.3 1.8-.1 2.3.4.5.5 3 1.3 5.6 1.8 3.7.7 4.5.6 3.7-.4-.7-.9-.6-1.6.5-2.5 1.8-1.5 2-3.3.3-2.8-.7.3-2.1-.6-3.1-1.9-2.3-2.9-3.3-2.9-4.1-.1-.4 1.8-.8 2-1.8 1-1.6-1.6-2.6-1.5-3 .4-.3 1.3-.6 1.3-2.3-.3-1.1-1.1-2.8-2.2-3.9-2.6-1-.4-1.6-1.3-1.3-2.2.4-.9.1-1.2-.8-.9-.8.3-1.1 1.3-.8 2.2.5 1.4.3 1.5-.8.5-.7-.7-1.3-2.8-1.3-4.7 0-2.2-.4-3.2-1.2-2.9-.6.2-1.4-.3-1.8-1.2-.4-1.1-1.2-1.4-2.6-1-1.1.3-2 .2-2-.2 0-.5-1.4-1.9-3-3.1-4.1-3.1-3.8-2 1.1 3.3 2.3 2.5 3.9 4.8 3.6 5.1-.3.3-2.1-1.1-3.9-3.2-1.8-2.1-4.9-5.4-6.9-7.4-4.6-4.4-7.9-9.3-5.6-8.5 1 .4 1.7-.2 2.1-1.9.9-3.4 1.9-3.3 5.3.9 3.8 4.6 12 9 13.9 7.4 1.1-.9 1.8-.8 2.9.1 1.8 1.5 2.2 1.3 2.7-1.5.1-1.1 1.2-2.3 2.3-2.6 1.1-.3 1.9-1.3 1.9-2.2-.1-1 1.7-2.3 5.2-3.7l5.3-2.2-2.7-2.3c-1.8-1.6-3.1-2-3.9-1.4-.8.7-1.3.2-1.7-1.8-.4-1.5-2.7-5.1-5.1-7.8-3.5-3.9-4.7-4.7-5.4-3.6-.8 1.2-3.5 1.1-6.7-.2-.6-.2-18.1-17.7-22.9-23-2.8-3-6-5.7-12.8-10.8-1.6-1.2-2.6-2.7-2.3-3.5.3-.8 0-1.1-.9-.8-.7.3-2.7-.1-4.3-1-2.8-1.5-4.2-1.3-4.2.6 0 .5.4.7 1 .3.5-.3 1.9.4 3.1 1.6 2.2 2.2 2.2 2.3.3 2.9-1.2.5-2 .3-2.2-.6-.2-.7-1-1-1.8-.7-.8.3-1.7-.3-2-1.3-.4-1.1-1.6-2.9-2.7-4.2-1.6-1.7-1.8-2.5-.9-3.4.9-.9 1.2-.9 1.2.1 0 1.1.3 1.1 1.5.1 1.1-.9 1.5-.9 1.5-.1 0 .7.5.9 1.1.5.8-.5.8-.8 0-1.4-.7-.4-.9-1.5-.5-2.6.6-1.6.5-1.7-.7-.7-2 1.9-3.9 1.6-4.9-1-.5-1.2-.9-1.6-.9-1-.1.7-.7 1.3-1.5 1.3-2.2 0-3.2-7.7-1.3-9.8 1.9-2.2 3.3-6.7 1.8-5.8-.5.4-1.9.1-3-.6-1.5-.9-2.3-.9-3.5.1-2.1 1.8-2.1-.3-.1-3.9 2.4-4.2 1.7-4.6-1.5-.8-1.7 2-4.4 4.4-6.1 5.2-4.4 2.2-13 2.3-16 .3-5.3-3.7-5.3-1.1 0 2.8 2.6 2 3.8 3.7 3.7 5.2-.1 2.2-2.6 3.4-2.6 1.3 0-.5-.3-.9-.7-.9-2 .3-2.6-.2-1.3-1.1.9-.6 1-1 .3-1-.6 0-1.5.4-1.8 1-.9 1.4-2.1 1.2-3.9-.6-1.4-1.3-1.6-1.3-1.6-.1 0 .9-.3 2.2-.6 3.1-.4 1.1 0 1.6 1.2 1.6.9 0 1.4.3 1 .7-1.1 1.1-4.5 1.3-5.1.3-.3-.6-.1-1 .4-1 1.5 0 1.4-2.7-.1-3.3-1-.4-1-.6 0-.6 1.7-.1 1.5-3.1-.2-3.1-.8 0-2.1-.3-3-.6-1.1-.4-1.6-.1-1.6 1 0 .9.7 1.6 1.5 1.6 1.8 0 2 3.1.4 4.7-.9.9-1.5.8-2.5-.2-1.9-1.8-1.8-3.1.1-1.5.9.7 1.5.8 1.5.2 0-1.1-2.3-2.2-4.7-2.2-.8 0-1.3.6-1 1.3.3.7-.1 2.1-.9 3.1-1.1 1.6-1.6 1.7-2.9.6-1-.8-1.5-2.5-1.3-4.2.3-3.3-2.6-7.1-5-6.4-.9.2-4.8.7-8.5 1.1-7.2.7-9 2.8-2.6 3.1 1.9.1 4.8.5 6.4.9 2.9.8 2.9.7 1.3-1.1-1.6-1.9-1.6-2 .6-1.9 2.9.2 6.3 3.1 4.3 3.8-.9.3-.9.7 0 1.8.6.8.9 2 .4 2.7-.9 1.5-10.3 1.2-9.8-.3.2-.5 1.6-.9 3-.7 1.5.2 2.7-.1 2.7-.7 0-1-.8-1.3-5.1-1.6-.9 0-2.4-.6-3.2-1.3-.9-.8-1.8-.9-2.1-.3-.4.5.3 1.6 1.5 2.5 1.6 1 1.9 2 1.4 3.3-.7 1.6-.9 1.5-1.8-1-1.2-2.9-3.2-3.8-2.4-1 .2 1 .6 2.4.8 3.2.2.7-.1 1.5-.7 1.8-.6.2-1-.5-1-1.6.1-1.1-.2-1.9-.5-1.8-1.1.4-3.9-2.6-3.9-4.2 0-.9-1-2.2-2.2-3-2.8-1.7-12.4-2.5-13.3-1.1-.3.6-1.1.8-1.6.5-1.7-1.1-.9.8.8 2.1 1 .7 1.4 1.6.9 2.1-.5.4-1.1.2-1.3-.5-.3-.6-.9-1-1.4-.6-.5.3-1.4-.7-2.1-2.1-.9-2-1.8-2.5-3.7-2.3-1.4.1-3.2-.1-3.8-.5-.8-.5-2.2.2-3.8 2l-2.5 2.8-2.4-2.7c-1.3-1.5-2.7-2.4-3-2.1-.3.4-.6.3-.6-.2 0-.4.8-1.4 1.7-2.1 1-.7 1.5-1.5 1.2-1.8-.3-.4-1.9.6-3.4 2-2.5 2.3-3.1 2.5-4.9 1.4-1.5-1-2.1-1-2.4-.1-.3.9-1 .7-2.3-.5-2.3-2-2.5-3.6-.4-2.8.8.4 1.5.1 1.5-.6 0-.6-1-1-2.2-.9-1.3.2-2.9 0-3.5-.4-1-.6-1.3.3-1.3 3.7 0 2.5-.4 4.6-1 4.6-1 0-1.4-1.4-1-3.9.1-1-.7-1.2-2.9-.9-1.7.3-3.1.1-3.1-.3 0-.5-.7-.6-1.6-.2-.8.3-1.3 1.2-1 1.9.3.8 0 1.4-.6 1.4-.7 0-.6.5.2 1.5.7.9 1 1.8.7 2.1-1.1 1.1-2.5-.6-3.2-3.7-.5-2.3-.9-2.8-1.6-1.8-.6 1-.9.6-.9-1.3 0-1.6-.9-3.3-2.2-4.2-2.1-1.5-2.3-1.5-3.6.9-1.6 3.2-3.4 3.2-2.8.1.4-2.2.1-2.4-3-2.1-1.8.2-3.6-.1-4-.6-.3-.5-.9-.7-1.4-.4-.5.3-1.3-.3-1.9-1.2-.9-1.6-1.1-1.4-1.7 1.4-.4 2-1.3 3.3-2.1 3.3-.9 0-1.3-.6-.9-1.5.3-.9 0-1.5-.9-1.5-.8 0-1.5.4-1.5 1 0 .5-.9.1-2-1-2.4-2.4-4-2.6-4-.4 0 1.3-.2 1.3-1.7-.2-1.7-1.6-1.8-1.6-2.3.7-.6 2.3-.7 2.3-1.7.5-.8-1.4-1.6-1.7-2.9-1.1-2.7 1.1-7.7 1.2-9.1.2-.9-.6-1.5-.3-1.9.9-2 6.4-3.8 8.1-5 5-.3-.8-1.1-1.3-1.8-1-.7.3-1.8-.2-2.5-1-1.1-1.4-1.5-1.4-3.6 0-1.7 1.1-2.9 1.3-4.2.6-2.2-1.2-15-1.3-18-.1-1.3.5-2.3 1.7-2.3 2.8 0 2.2-1.7 3.7-2.8 2.6-.4-.4-.1-1 .6-1.2 1.5-.6 1.6-3.9 0-4.9-.6-.4-1.7 0-2.3 1-1.1 1.5-1.4 1.5-2.5.1-.7-.9-2-1.5-2.9-1.4-.9.1-2 0-2.6-.1-.5-.1-1.9-.3-2.9-.4-1.1 0-2-.7-2.2-1.4-.1-.7 0-.8.3-.2.8 1.7 2.3 1.1 2.3-1s1.5-2.7 2.5-.9c.5.6 1.2.4 2.1-.8 1.7-2.2 1.8-3.7.2-2.7-.6.4-3.3.6-6 .5-4.4-.2-4.8 0-4.8 2.2 0 1.2.6 2.9 1.3 3.7 1 1.2.9 1.2-.5.1-1.3-.9-2.2-1-3.8-.1-1.2.6-2.4.9-2.7.6-1.1-1.1 3.4-7.1 5.5-7.4 1.2-.2 2.2-.8 2.2-1.3s-1-.7-2.2-.5c-1.3.2-2.8-.1-3.5-.6-.7-.6-1.6-.2-2.6 1.2-1.3 1.9-1.8 2-3.7 1-1.2-.7-3.1-1-4.1-.7-1 .3-1.9.1-1.9-.3 0-1.2 2.9-4 4.1-4 .6 0 .7-.5.3-1.1-.4-.6-.9-.7-1.3-.2-1.6 2.4-8 6.3-8.6 5.3-.3-.6-1.1-.8-1.6-.5-.5.4-.9.2-.9-.2 0-.5-1.9-.9-4.2-1-2.4-.1-5.2-.3-6.3-.6-1.1-.2-2.3.1-2.7.7-.5.8-1.2.8-2.5 0-1.1-.7-2.7-.8-4.1-.3-2.4.9-3.1-.5-.9-1.8.8-.4 1.6-1.8 1.9-2.9.5-2.1.5-2.1-2.3-.5-1.6.9-2.9 2.2-2.9 2.8 0 .7-.4 1.3-1 1.3s-.6-.9 0-2.6c.6-1.4 1-2.7 1-3 0-1-2.1-.2-3.7 1.5-1.9 2-9.1 4.7-10 3.7-.3-.3 0-1.3.7-2.1.9-1.1 1.5-1.3 2-.5s1.9.1 4.1-2.1c2-2 3.5-2.7 3.7-2 .3.8.8.6 1.8-.6.8-1.1 1.3-1.3 1.4-.6 0 .7.5 1.3 1.1 1.3.6 0 .8-.7.5-1.5-.4-1.1.3-1.7 2.4-2.1 3.3-.7 5.5-2.8 4.5-4.4-1-1.6-2.3-1.2-3 1-.4 1.1-1 1.8-1.5 1.5-.4-.3-2.4.2-4.4 1-3.8 1.6-7 2-6.2.7.3-.4-1.1-.7-3-.7-2.8.2-3.9.8-5.4 3.3-3.5 5.7-6.9 6.1-7.7.8-.3-1.6-.1-1.7 1.2-.6 1.2 1 1.5 1 1.5 0 0-.7.7-1 1.5-.6.9.3 1.5 0 1.5-.9 0-.8-.4-1.5-1-1.5-1.8 0-1.1-3.6 1.3-6.4 1.6-1.8 2.9-2.5 4-2 1 .3 2.4.1 3.2-.6.8-.7 2.1-1 2.9-.7.8.3 1.6.1 1.8-.4.2-.6 1.1-1.1 2-1.3 1-.1 2.1-.5 2.4-.9.4-.4 2.5-.7 4.6-.7 2.2 0 3.8-.5 3.8-1.2 0-.6-.3-.8-.7-.5-.3.4-1.1.3-1.7-.2-.7-.5-3.9-.4-7.9.4-3.8.7-7.8 1.1-9 .8-4.6-1-13-5.7-13.4-7.4C74 .8 73.4 0 72.9 0c-1.5 0-1 3.7.6 5 1.6 1.3 2.1 4.5.6 3.6-.5-.3-1.1.4-1.4 1.5-.4 1.5.3 2.9 2.5 4.8 4 3.6 2.2 4.9-2.4 1.8-3.6-2.5-9.8-4.2-9.8-2.8 0 .5.9 1.1 2.1 1.4 2 .5 2 .7.5 2.9-2.1 2.9-2 5.4 0 6.2 1.4.6 1.5.4.4-1-1.2-1.3-1.1-1.7.1-2.5.8-.5 2-.7 2.7-.4.8.3 2.1.5 3.1.5.9 0 2.6.6 3.7 1.4 1.8 1.4 1.7 1.5-1.4 1.4-2-.1-4.1.7-5.6 2.1-2.3 2.2-17.6 5.7-17.6 4 0-.5-.7-.6-1.5-.3-.8.4-1.5 1.2-1.5 1.9 0 .8-.4 1.6-.9 1.9-1 .6-1.1-2.7-.4-9.2.4-4.1.6-4.3 2.2-2.8 1 .9 2.5 1.4 3.5 1 .9-.4 1.6-.1 1.6.6 0 .8-1.1 1.1-3 .8-2.4-.4-3-.1-2.8 1.1.4 1.9 5.4 2.7 7.3 1.1 1-.8 1.3-.7 1.1.7 0 1.1.5 1.7 1.4 1.4.8-.2 2-.4 2.5-.4.6 0 1-1.2.9-2.6-.1-1.9-.6-2.6-2.2-2.6-1.2 0-2.7-.6-3.4-1.3-.7-.7-2.2-1.2-3.5-1.2-3.3 0-4.5-3.4-3.6-9.9.7-4.9 1.1-5.5 3.8-6.3 1.7-.4 3.8-.5 4.7-.2 1.2.4 1.5 0 1.1-1.6-.4-1.7-1.3-2-5.4-2-4.6 0-4.9.2-4.9 2.6zm24 28.1c0 2.4-2.5.9-2.8-1.7-.3-2.1-.2-2.2 1.2-1.1.9.7 1.6 2 1.6 2.8zm4.7 1.6c-.5 1.7-3.7 2.1-3.7.5 0-.8.9-1.4 2.1-1.5 1.2-.1 1.9.3 1.6 1zm-13.5 5.2c.6 3-.1 3.9-1.9 2.4-.7-.6-1.3-.8-1.3-.3s-.4.2-1-.6c-.5-.9-.5-1.9.2-2.7 1.7-2.1 3.5-1.5 4 1.2zM57 40c0 .5-.4 1-1 1-.5 0-1-.5-1-1 0-.6.5-1 1-1 .6 0 1 .4 1 1zm81.4 2.4c-.3.9-1.2 1.6-1.9 1.6s-1.6.6-1.9 1.2c-.3.7-.4.2-.3-1.2.1-1.4.7-2.5 1.4-2.5.6 0 1.5-.3 1.9-.8 1.1-1.1 1.5-.2.8 1.7zM223 54.5c0 1.4-.4 2.5-1 2.5-.5 0-1-1.1-1-2.5s.5-2.5 1-2.5c.6 0 1 1.1 1 2.5zm29.5-1.6c.3.5.1 1.2-.5 1.6-.5.3-1-.1-1-.9 0-1.8.6-2.1 1.5-.7zm67.5 7c-.7 1.1-.9.3-.9-2.9.1-4.2.1-4.3.9-1.6.6 1.7.5 3.6 0 4.5zM234 55c0 .5-.4 1-1 1-.5 0-1-.5-1-1 0-.6.5-1 1-1 .6 0 1 .4 1 1zm40.5 1.9c2.2.1 5.9.6 8.3 1.1 2.3.4 4.4.5 4.6.1.2-.3 2.4-.5 4.8-.5 7.1.2 7.1.2 6.4 2.8-.4 1.6-.1 2.6.9 3 .8.3 1.5 1 1.5 1.6 0 1.9-3.9-1.3-4.2-3.5-.2-1.1-.7-1.8-1.3-1.5-.5.3-.9.7-.8 1 1 3.3.6 4.4-1.4 4.3-1.3 0-3.4-.1-4.8-.2s-2.5-.5-2.5-1.1c0-.5.6-.7 1.3-.5.6.3 1.7-.3 2.3-1.2 1-1.6.7-1.8-3.4-1.8-2.4 0-5.2-.5-6.1-1.2-.9-.7-4-1.3-6.8-1.3-3.7 0-5.3-.4-5.3-1.3 0-2 1.4-3 2-1.5.3.8 2.3 1.5 4.5 1.7zm34.1.6c.4.8 1.2 1.5 1.9 1.5 1.4 0 2.4 2.8 1.8 4.7-.7 2.1-2.3 1.5-2.3-1-.1-2.2-.1-2.2-1.5.3l-1.3 2.5-.5-2.5c-1.1-5.4.4-9.5 1.9-5.5zm19.4-.1c0 1.7-1.4 2.9-2.3 2-.8-.8.3-3.4 1.4-3.4.5 0 .9.6.9 1.4zm-10 .6c0 .5-.2 1-.4 1-.3 0-.8-.5-1.1-1-.3-.6-.1-1 .4-1 .6 0 1.1.4 1.1 1zM24.3 59.3c.4-.3.7.1.7 1 0 1-.8 1.7-1.8 1.7-2.4 0-3.2-.8-2.5-2.6.4-1 .9-1.1 1.8-.4.6.5 1.5.7 1.8.3zM376.5 61c.3.5.2 1-.4 1-.5 0-1.3-.5-1.6-1-.3-.6-.2-1 .4-1 .5 0 1.3.4 1.6 1zm6.3 1.7c-.3 1.2-1.2 1.7-2.6 1.6-2.6-.3-2.9 1.2-.6 2.5 1.4.8 1.4 1.1-.7 2.5-1.8 1.3-2.6 1.4-3.7.4-.8-.6-3.1-1.2-5.1-1.2-3 0-3.5-.3-3.3-2 .6-2.9 2.4-3.6 4.8-2 1.6 1.1 2.4 1.1 3.4.2 1-1 1.2-.8.7.5-1.1 3.1.8 1.9 2-1.2 1.3-3.4 5.8-4.5 5.1-1.3zm20.4-.3c1 0 2 .6 2.3 1.4.7 1.9-2.2 2.7-4.2 1.1-.9-.8-2.4-1.3-3.5-1.1-1 .2-1.8-.1-1.8-.7 0-1.3 2.2-2.1 4-1.4.8.3 2.3.6 3.2.7zm-51.4 4.1c3.6 1.2 4.9 2.1 4.1 2.6-.7.4-1.8.4-2.5-.2-.6-.5-2.5-.6-4.3-.3-2.1.5-3.1.3-3.1-.6 0-.7-.7-1-1.5-.6-.8.3-1.5.1-1.5-.4 0-.6-.9-1-2-1s-2-.4-2-.9c0-1.2 5.1-1.9 6.5-1 .6.4 3.4 1.5 6.3 2.4zM356 65c0 .5-.2 1-.4 1-.3 0-.8-.5-1.1-1-.3-.6-.1-1 .4-1 .6 0 1.1.4 1.1 1zm45 3.8c0 .9.6 1.2 1.6.8 1-.4 1.8 0 2 1.2.3.9 2.1 2.8 4.1 4.2 3.4 2.3 7.3 8.4 6.1 9.5-.3.4-1.8-.5-3.3-1.9-1.6-1.5-3.9-2.6-5.2-2.6-1.6 0-2.7-.7-3-1.8-.2-1-1.4-2.2-2.6-2.7-1.3-.6-2.1-1.7-1.9-2.8.2-.9-.2-1.7-.8-1.7-.6 0-1-.7-.8-1.6.2-1-.3-1.9-.9-2.1-.8-.3-1.3.4-1.3 1.6 0 2.9-1.5 3.4-3.5 1.1-1.8-2-1.2-4.8.8-3.1.8.6 1.8.5 3.1-.4 1.4-1.1 2.2-1.1 3.7-.2 1 .6 1.9 1.8 1.9 2.5zm-12-1.3c0 .8-.2 1.5-.4 1.5s-.6-.7-1-1.5c-.3-.8-.1-1.5.4-1.5.6 0 1 .7 1 1.5zm21 .5c0 .5-.4 1-1 1-.5 0-1-.5-1-1 0-.6.5-1 1-1 .6 0 1 .4 1 1zm-24.7 1.5c.4.8.2 1.7-.3 2-.6.4-1 .4-1 .1 0-.2-.3-1.1-.6-2-.3-.9-.2-1.6.4-1.6.5 0 1.2.7 1.5 1.5zM31 71c0 .5-.5 1-1.1 1-.5 0-.7-.5-.4-1 .3-.6.8-1 1.1-1 .2 0 .4.4.4 1zm218.1 2.7c.7 2 .7 2.8-.3 3.4-.9.6-1.5 0-1.9-1.9-1-4.7.6-5.8 2.2-1.5zM397.5 72c.3.5-.1 1-.9 1-.9 0-1.6-.5-1.6-1 0-.6.4-1 .9-1 .6 0 1.3.4 1.6 1zM254 74.5c0 1.4-.2 2.5-.4 2.5s-1.1-1.1-2-2.5c-1.6-2.4-1.6-2.5.4-2.5 1.5 0 2 .7 2 2.5zm8.5-1.5c.3.5-.1 1-.9 1-.9 0-1.6-.5-1.6-1 0-.6.4-1 .9-1 .6 0 1.3.4 1.6 1zm12 1.1c.9 2.6.5 3-2.3 2.2-1.3-.3-2.2-1.3-2.2-2.4 0-2.6 3.7-2.5 4.5.2zm35.5.6c0 1.9-.3 2.4-1 1.7-.6-.6-.8-1.8-.4-2.7.9-2.4 1.4-2.1 1.4 1zm7.9-1.8c.9.6 1.2 1.9.8 4-.4 1.8-.2 3.1.3 3.1.6 0 1.5 1.1 2.1 2.4 1 2.1 1.5 2.3 3.5 1.6 1.4-.6 2.6-.6 2.9 0 .4.6 1.3 1 2.1 1s1.3-.4 1-.8c-.2-.4-.1-1.4.5-2.2.5-1 .9-1.1.9-.3 0 .7 1.2 2.4 2.7 3.8 2.2 2 2.4 2.5 1 2.5-2 0-2.3 1.6-.4 2.4.6.3 0 .3-1.5.1-1.6-.2-2.8-.1-2.8.3 0 1.2-5.4.7-8-.7-2.1-1.2-2.3-1.2-1.3 0 .7.9.9 2.8.4 5.5-.4 2.2-.4 5 0 6.2 1.2 3.2-1.5 3.9-4.3 1.2-1.3-1.4-1.3-1.7 0-3 1.4-1.3 1.5-1.2.9.3-.4 1-.2 1.7.6 1.7 2.1 0 1.7-5.9-.4-6.5-1.1-.4-1.9-1.5-1.9-2.6 0-2-1.5-2.6-2.5-.9-.4.7-1.1.7-1.8.2-1.9-1.4-4.9-2.3-4.2-1.2.8 1.3-.8 1.3-2 .1-.6-.5-2.7-1.4-4.7-1.9-3.1-.9-3.6-.8-3.1.5s.3 1.3-1.6.3c-1.9-1-2.5-.9-3.6.7-1.3 1.8-3 1.2-3-1-.1-.7-.7-1-1.5-.8-3.6 1-6.5.5-6.8-1.1-.2-1.2.1-1.6 1.1-1.3.8.4 1.8-.4 2.5-1.7.8-1.8 1.1-1.9 1.1-.6.1 1 .6 1.8 1.1 1.8.6 0 1-.8 1.1-1.8 0-1.3.2-1.2.9.5.5 1.3 1.4 2.3 2 2.3.6 0 1-1 .8-2.3-.2-1.7.1-2.1 1.7-1.9 1.1.2 2.7 1.2 3.5 2.1.8 1 3 2.3 4.9 3 4.3 1.4 4.2 1.4 3.5-.4-.4-.8.1-1.7.9-2.1.9-.3 2.1-2 2.7-3.7.7-1.8 1.4-2.7 1.7-2 .2.6-.3 2.5-1.1 4.2-.9 1.6-1.2 3.2-.7 3.5.5.3 1.2-.4 1.5-1.7.6-2.1.7-2.1 2-.5 1.4 1.9 4.6 2.4 4.6.8 0-.6-.8-1-1.7-1-1.4 0-1.5-.2-.4-.9.9-.6 1-1.1.2-1.5-.6-.4-1.5-.4-2.1-.1-.5.3-1 .1-1-.4 0-.6 1-1.1 2.3-1.1 1.9 0 2.2-.5 2.2-3.5 0-2.1-.5-3.5-1.2-3.5s-1.3-.5-1.3-1c0-1.2 1-1.3 2.9-.1zm74 .5c1 1.2.8 1.3-.8.9-1.2-.3-1.8-.9-1.5-1.4.7-1.2 1-1.1 2.3.5zM297 74.5c.5.3 1 1.5 1 2.6 0 1.6-.7 1.9-4 1.9-2.2 0-4 .4-4 1 0 .5-.5 1-1 1-.8 0-.8-6.4-.1-7.6.3-.4 7.2.5 8.1 1.1zm38.1 1.1c1.2 1.4 1.1 1.6-.5 1.3-1.1-.2-2.1-1-2.4-1.7-.5-1.7 1.3-1.5 2.9.4zM30.7 77.2c-.3.8-.6.5-.6-.6-.1-1.1.2-1.7.5-1.3.3.3.4 1.2.1 1.9zM278 76c0 .5-.5 1-1.1 1-.5 0-.7-.5-.4-1 .3-.6.8-1 1.1-1 .2 0 .4.4.4 1zm47.5 3c1.3 1.5 1.5 2.4.8 3.1-.8.8-1.4.6-2.2-.9-.6-1-.7-2.3-.3-2.7.4-.5-.1-.5-1-.2-1 .4-1.8.2-1.8-.3 0-1.7 2.6-1.1 4.5 1zm73.3 1c.2 2.6-.1 2.9-2 2.7-5.1-.5-6.4-5.7-1.5-5.7 2.9 0 3.3.3 3.5 3zm-44.3-1c.7 1.1-.9 1.1-4.5 0-2.4-.8-2.4-.8.7-.9 1.7-.1 3.5.3 3.8.9zm47.5 0c0 .5-.4 1-1 1-.5 0-1-.5-1-1 0-.6.5-1 1-1 .6 0 1 .4 1 1zm28.9 4.6c1.2 1.5 2.1 3.4 2.1 4.3 0 1.2.2 1.3.9.3.6-1 1.2-.7 2.4 1.2 1 1.4 1.7 3.2 1.7 4.1 0 .8.4 1.5 1 1.5.5 0 .7.7.4 1.5-.7 1.8-3 2-3.8.2-.3-.6-.3-.1 0 1.3.5 2.4.3 2.3-2.7-.9-2-2.2-2.8-3.6-2-3.9.9-.3.8-1.1-.4-2.9-.9-1.3-1.4-3.1-1.1-3.8.2-.7-.6-2.3-2-3.6-1.3-1.2-2.4-2.6-2.4-3.1 0-1.4 3.7 1 5.9 3.8zm-86.3 0c-.4 1.4-.2 2.4.4 2.4.5 0 1-.4 1-.9s2.5-.9 5.6-.9c3.4 0 5.9-.4 6.4-1.2.5-.9.9-.9 1.4-.1 1.2 1.9-.2 2.9-4 2.9-3.7 0-5.8 1.1-3.6 1.9.6.3 1.2.9 1.2 1.5s-.6.8-1.4.5c-.7-.3-1.8-.1-2.3.4-1.4 1.4-6.3-.7-6.4-2.8-.1-1.7-.2-1.7-.6-.1-.2 1-.8 1.8-1.3 1.8-1.4 0-2-2.9-1-5.2.5-1.4.9-1.7 1-.8.1.9.5.6 1.1-.8 1.1-3 3.3-1.8 2.5 1.4zm74.2-.3c.2 1.5.8 2.7 1.3 2.7s.9.7.9 1.6c0 .8-.4 1.2-1 .9-2.2-1.4-.8 1.6 1.4 3.1 3.6 2.3 7.6 7.8 6.7 9.3-1 1.5-14.1-10.4-14.1-12.8 0-1.4-.2-1.4-1-.1-.6 1-1 1.1-1 .2 0-.6-.6-1.2-1.3-1.2-1.6 0-6.3-4.7-5.5-5.5.3-.3 1.1.1 1.8 1 .7.8 1.7 1.5 2.3 1.5.5 0 2.5 1.2 4.4 2.6 3.9 3 5.1 2.6 3.5-1.1-1.6-3.4-1.5-5.8.1-5.3.6.3 1.3 1.7 1.5 3.1zm6.2 2.9c.9 4.8.9 5-.7 4-.6-.4-1.4-3-1.8-5.7-.6-4-.5-4.8.5-3.8.7.6 1.6 3.1 2 5.5zm-383.5.3c.2 1.4-.1 2.5-.5 2.5-.5 0-.8-1.4-.8-3 .1-3.5.9-3.2 1.3.5zm336-2.5c.3.5.1 1-.4 1-.6 0-1.1-.5-1.1-1 0-.6.2-1 .4-1 .3 0 .8.4 1.1 1zM28.6 85.6c-.3.9-.6 2-.6 2.5s-.4.9-.8.9c-.5 0-.8-1-.6-2.3.3-2.8.2-2.7 1.5-2.7.6 0 .8.7.5 1.6zm242.1.6c-.2 1.3-.2 1.7 0 1 .7-1.9 2.3-1.4 2.3.8 0 1.1.5 2 1 2 .6 0 1 .4 1 .9 0 .6-1.2.6-3 .1-3.5-1-3.4-1.1-1.5 2.6 1.4 2.8 1.4 2.9-1.3 3.5-3.3.6-7.1.4-9.4-.6-.9-.4-2.1-.4-2.7-.1-.5.4-1.2.2-1.6-.4-.3-.5-.1-1 .4-1 .6 0 1.1-1.1 1.1-2.5 0-2.9 2-3.4 2.7-.6.6 2.4 2.1 3 5.5 2.4 2-.4 2.5-1.1 2.6-3.4 0-1.6-.4-3.1-1-3.5-.7-.5 1.6-2.4 4-3.3.1-.1.1.9-.1 2.1zM363 85c0 .5-.2 1-.4 1-.3 0-.8-.5-1.1-1-.3-.6-.1-1 .4-1 .6 0 1.1.4 1.1 1zm4 0c0 .5-.4 1-1 1-.5 0-1-.5-1-1 0-.6.5-1 1-1 .6 0 1 .4 1 1zm-91 2.1c0 .6-.4.7-1 .4-.5-.3-1-1.1-1-1.6 0-.6.5-.7 1-.4.6.3 1 1.1 1 1.6zm96.4-1.2c.3.5-.1 1.2-1 1.5-2.2.9-2.4.8-2.4-.9 0-1.6 2.5-2.1 3.4-.6zm4.1 2.1c.3.5-.1 1-.9 1-.9 0-1.6-.5-1.6-1 0-.6.4-1 .9-1 .6 0 1.3.4 1.6 1zm8.9 1.4c-.7 1.8-2 2.1-2.9.6-.3-.6.1-1 .9-1 .9 0 1.6-.5 1.6-1.2 0-.6.2-.9.5-.6.3.3.3 1.3-.1 2.2zm-4.7-.8c-.3.3-1.2.4-1.9.1-.8-.3-.5-.6.6-.6 1.1-.1 1.7.2 1.3.5zm-26.4 4.9c-.7 2.1-1.3 1.9-1.3-.6 0-1.1.4-1.8 1-1.4.5.3.7 1.2.3 2zm20.7 1c0 2.4 3.1 3.1 4.5 1.1.9-1.2 2-1.5 3.9-1 1.4.3 2.6 1 2.6 1.4 0 1.2 4.4-.1 5.7-1.7.8-1 1.3-1.1 1.8-.3.4.7-.2 1.8-1.3 2.6-2.9 2-4.9 4.1-5.5 5.6-.2.7-.8 1-1.2.6-.4-.4-.2-1.4.5-2.3 1-1.1 1-1.5 0-1.5-.6 0-1.4.9-1.7 2.1-.3 1.1-1.1 1.8-1.8 1.5-.7-.2-1.7 0-2.3.6-1.2 1.2-3.2.2-3.2-1.7 0-.8.8-1.2 2-1 2.2.4 3.5-.9 2.5-2.5-.4-.7-1.1-.7-1.8-.2-.7.5-2.1.7-3.2.5-3.2-.7-3.9-.7-6.2.1-1.8.6-2.3.3-2.3-.9 0-.9.9-1.9 2-2.2 1.1-.3 2-.9 2-1.4 0-.5.7-.9 1.5-.9s1.5.7 1.5 1.5zm3.5-.5c.3.5.2 1-.4 1-.5 0-1.3-.5-1.6-1-.3-.6-.2-1 .4-1 .5 0 1.3.4 1.6 1zm-85.9.8c.6.4 1.5 2.3 1.9 4.2 1 4.7 1.4 5.3 3 4 .9-.8 1.5-.8 2 0 .3.6 1.1.8 1.6.5.5-.4.9-.1.9.4 0 1-1.4 1.5-3.2 1.2-.4 0-2 .4-3.5 1.1-4.4 1.8-5.4 1.8-5.1 0 .3-1.1 1.2-1.6 2.6-1.5 1.2.2 2.2-.2 2.2-.7 0-.6-.4-1-1-1-.5 0-1-.7-1-1.5 0-1.1-1.2-1.5-4.5-1.5-2.5 0-4.5-.5-4.5-1 0-.6.7-1 1.5-1 .7 0 1.9-.8 2.4-1.8 1-1.6 1-1.6 1.1 0 0 1 .7 1.8 1.5 1.8 1.8 0 1.9-1.2.3-2.8-1.3-1.3 0-1.6 1.8-.4zm57.4.2c-1.3.9-1.3 1.2.3 2.4 1 .8 2.7 1.2 3.7.9 1.1-.3 2 0 2 .6 0 .9-2.8 1.6-5.2 1.2-.5 0-.8.3-.8.9 0 .5-.7 1-1.5 1-1 0-1.5-.7-1.3-1.7.2-1.2-.4-1.8-1.6-1.8-1.1 0-2.1-.6-2.3-1.3-.3-.7.1-1 1.1-.6s1.8 0 2.2-1c.3-.9 1.6-1.6 2.8-1.6 1.7 0 1.8.2.6 1zM44 96.6c0 .6-.6 1.7-1.4 2.3-1.1.9-1.5.8-2-.5-1-2.5-.7-3 1.4-3 1.1 0 2 .6 2 1.2zm297.6.8c-.4 1.8-.1 2.5 1.3 2.9 1.4.3 1.7 1.1 1.3 3.5-.3 2.1-.8 2.9-1.8 2.5-1.6-.6-1.8-1.9-.4-2.8.6-.3 1-1.1 1-1.7 0-.7-.5-.7-1.4.1-.7.6-2 .9-2.9.5-.8-.3-1.8 0-2.2.6-.5.8-1.1.5-2.1-.7-1.1-1.5-1.5-1.6-2.3-.4-1.1 1.7-4.1.7-4.1-1.3 0-1.1 1-1.5 3.3-1.4 1.7.1 4-.2 5.1-.7 1.2-.5 2.1-.3 2.8.6.8 1.1.9 1 .4-.4-.7-2.1 0-3.7 1.6-3.7.6 0 .8 1 .4 2.4zm53.4 3.3c0 .7-.4 1.3-1 1.3-.5 0-1-1.2-1-2.8 0-2.1.2-2.4 1-1.2.5.8 1 2.1 1 2.7zm47-2.3c0 .7.9 2.5 2 3.9 2.7 3.4 2.5 3.7-1.1 3.3-3.3-.4-5-2-4.3-4.3.2-.7.6-2 .9-2.8.6-1.9 2.5-2 2.5-.1zm-134.2.7c-.2.6-.8 1-1.3 1s-1.1-.4-1.3-1c-.2-.6.4-1.1 1.3-1.1s1.5.5 1.3 1.1zm6.3 3.3c.3 3.4.1 3.9-1.9 4.3-2.7.4-4.2-2.4-2.1-3.8.8-.5 1.1-.9.7-.9-.4 0 0-.9.9-2s1.8-1.8 1.9-1.7c.1.1.4 2 .5 4.1zm53-2.2c1.1 2.1 1.1 2.2-.4.9-1-.7-1.7-1.7-1.7-2.2 0-1.5.9-1 2.1 1.3zm-118.3 0c-.3.7-1.8 1.5-3.4 1.6-3.7.5-5.4 1.9-5.4 4.5s-.5 2-1.4-1.5c-.6-2.5-.3-2.8 4.1-4.1 6.2-1.9 6.5-1.9 6.1-.5zm52.8 1.5c-1 1-1.9-.5-1-1.8.6-1.1.8-1.1 1.2 0 .2.7.1 1.5-.2 1.8zM431 101c0 .5-.4 1-1 1-.5 0-1-.5-1-1 0-.6.5-1 1-1 .6 0 1 .4 1 1zm-390 1c0 .5-.5 1-1.1 1-.5 0-.7-.5-.4-1 .3-.6.8-1 1.1-1 .2 0 .4.4.4 1zm285 1c0 .5-.4 1-1 1-.5 0-1-.5-1-1 0-.6.5-1 1-1 .6 0 1 .4 1 1zm109 0c0 .5-.2 1-.4 1-.3 0-.8-.5-1.1-1-.3-.6-.1-1 .4-1 .6 0 1.1.4 1.1 1zm-397 1.4c0 2.1-2 3-3.3 1.7-.9-.9-.8-1.4.3-2.1 2.1-1.4 3-1.2 3 .4zm234.8.9c1.6.2 2.7.8 2.7 1.7 0 1-.8 1.4-2.5 1.2-1.4-.1-2 .1-1.4.5.6.5 1.3 1.6 1.7 2.6.5 1.4 1.1 1.6 2.5.8 1.1-.6 2.4-.6 3.5 0 1.3.8 1.7.7 1.5-.2-.2-.8.7-1.4 2-1.5 2.7-.2 4.3-1.4 1.9-1.4-.9 0-1.7-.5-1.7-1 0-.6 1.1-1 2.4-1 2 0 2.3.4 1.9 2.2-.8 3.6-2.5 6.8-3.5 6.2-.4-.3-.8 0-.8.5 0 .6 1.1 1.1 2.4 1.1 2.7 0 27.3 7.4 32.1 9.6 1.7.8 7.4 3.2 12.9 5.4 20.6 8.4 26.4 14 25.3 24.4-.3 2.8-1.6 7.6-3 10.6-4.7 10.5-21.7 66.7-21.7 71.6 0 .6 1.5 1.5 3.3 2 2.8.8 3.2 1.4 3.5 4.7.5 6-2.6 25.8-4.3 27.7-.9 1-3.6 2.3-6.1 3-2.4.7-4.7 1.6-4.9 2.1-.3.4-3 14.6-6.1 31.6-3 16.9-6 32.1-6.6 33.7-2.5 6.4-7.8 8.2-14.1 5-12-6.2-23.5-16.3-26.4-23.3-1.8-4.3-1.2-22.4 1.1-33.1.8-3.6 1.3-6.6 1.2-6.8-.2-.1-15.3 1.9-33.7 4.5l-33.3 4.8-8.3 13c-4.6 7.1-10.9 17.3-14 22.5-8.9 15.1-13.2 18.5-19.9 16-4.3-1.6-21-19.2-22.4-23.6-.8-2.2-1-6.2-.7-9.8 1-11.2 20.1-46.2 43-78.6 17.4-24.7 46.8-62.5 66.2-85 6.4-7.4 7.8-9.6 6.1-9.3-1.3.3-2.8-.2-3.5-1.1-.8-.9-1.2-1.7-1-1.7 1.8-.6 5.6-.5 6.5.2.7.6 1.7.2 2.8-1 2-2.2 1.1-3.1-2.7-2.7-3.7.4-3.5-1.9.2-3.9 2.2-1.1 3.7-1.2 5.4-.6 1.9.8 2.9.6 4.1-.8.9-1 1.6-2.3 1.6-2.9 0-.7.7-1.2 1.5-1.2s1.5-.4 1.5-.8c0-.5 1.8-1.8 4-3.1 2.2-1.2 3.8-2.7 3.5-3.2-.4-.5.1-.9 1-.9s1.3.4 1 1c-.3.5-.1 1 .4 1 1.3 0 1.4-1 .1-3-.5-.8-2.5-1.5-4.9-1.5-2.2 0-3.8.2-3.5.6.2.4-.2 1.2-1 1.8-1 .9-1.7.7-2.7-.5-1.1-1.4-1.1-1.8.4-2.9 1.2-.8 1.4-1.5.8-2-.6-.3-1.1-1.5-1.1-2.7 0-1.7-.4-1.9-2.5-1.4-2.7.7-3.2-.3-1.3-2.2.8-.8 1.7-.8 3-.1 1.1.6 3.1 1.1 4.6 1.2zm152.5 1.3c3.1 2.8 3.2 5.1.4 6.8-1.4.8-2 .8-2.7-.4-.6-.9-.6-1.6 0-1.8 1.1-.4.2-3.1-1.8-5.5-2.5-2.8.8-2.2 4.1.9zM263 106c0 .5-.4 1-1 1-.5 0-1-.5-1-1 0-.6.5-1 1-1 .6 0 1 .4 1 1zm-25.5 1c.3.5.1 1-.4 1-.6 0-1.1-.5-1.1-1 0-.6.2-1 .4-1 .3 0 .8.4 1.1 1zm81.5-.1c0 .6-.4 1.3-1 1.6-.5.3-1-.1-1-.9 0-.9.5-1.6 1-1.6.6 0 1 .4 1 .9zm2.9 1.7c-1.4 1.8-2.4 1.1-1.5-1.1.3-.9 1.1-1.3 1.6-1 .8.5.7 1.1-.1 2.1zm92.1 1.6c.9-.1 2.8 1 4.3 2.6 2.5 2.6 2.5 2.8.6 2.9-1.1.1-2.3-.5-2.6-1.3-.3-.7-.9-1.1-1.4-.8-.5.3-.9.1-.9-.5s-.6-.8-1.4-.5c-.8.3-1.7.1-2-.5-.4-.6-1.3-.8-2.1-.4-.9.3-1.5-.1-1.5-.9 0-2.3 1.1-2.8 3.4-1.6 1.1.7 2.8 1.1 3.6 1zm-151.6 1c1.9-.4 1.8-.2-.5 2.2-2.1 2.2-2.5 2.3-3 .8-.6-1.6-.7-1.6-1.4 0-1 2.5-2.5 2.2-2.5-.5 0-3.3 1.9-5 3.8-3.4.8.6 2.4 1 3.6.9zm158.1-1.1c1.2 1.9-.5 2.3-2.2.6-1.6-1.6-1.6-1.7-.1-1.7.9 0 2 .5 2.3 1.1zm-169.3 4.1c-.6.6-.7 0-.4-1.9.5-2.1.7-2.3 1-.9.2 1 0 2.2-.6 2.8zm129.2-3.4c.2.4-.4.9-1.5.9-1 .1-1.9-.2-1.9-.8 0-1.1 2.7-1.2 3.4-.1zm-130.9 1.1c.3.5.1 1.2-.5 1.6-.5.3-1-.1-1-.9 0-1.8.6-2.1 1.5-.7zm102.8.6c.7 1.8-.6 2.7-2.7 1.9-1.9-.7-2.1-2-.3-2.7 2-.9 2.5-.8 3 .8zm10.7 1c0 1.7-.4 2.3-1.4 1.9-1.8-.7-1.7-4.4.1-4.4.7 0 1.3 1.1 1.3 2.5zm4-.4c0 .5-.6.9-1.3.9-.8 0-1.4-.6-1.4-1.4 0-.8.6-1.2 1.4-.9.7.3 1.3.9 1.3 1.4zm6-.6c-.7.8-1.8 1.5-2.4 1.5-.6 0-.2-.7.8-1.5 2.5-1.9 3.2-1.9 1.6 0zm91.7 6.1c-.2.2-1.8.1-3.5-.2-2.5-.5-3-1-2.3-2.3.5-.9.6-2.3.4-3.1-.2-.8 1 0 2.7 1.8 1.7 1.9 3 3.6 2.7 3.8zm-27.9-2.5c2.4 3 1.8 3.9-1 1.6-1.7-1.3-3.2-4.7-2-4.6.4 0 1.7 1.3 3 3zM38 118c0 .5-.5 1-1.1 1-.5 0-.7-.5-.4-1 .3-.6.8-1 1.1-1 .2 0 .4.4.4 1zm-5.4 3.7c-1.1 1.1-1.9-.6-1.1-2.4.8-1.7.8-1.7 1.2 0 .3 1 .2 2.1-.1 2.4zm10.8 1.7c-.3.9-1 1.3-1.6 1-.5-.3-.4-1.2.3-2 1.5-1.8 2.2-1.3 1.3 1zm397.1.7c.4 1.1.4 2.3.1 2.6-.3.4-.6-.1-.6-1 0-1-.5-1.6-1.1-1.5-.6.2-1.4-.3-1.6-1-.3-.6.2-1.2 1-1.2.9 0 1.9.9 2.2 2.1zm-178.5.5c0 .8-.4 1.2-1 .9-.5-.3-1-1-1-1.6 0-.5.5-.9 1-.9.6 0 1 .7 1 1.6zm184.3 1.9c2.1-.7 5 2.2 4.3 4.2-.7 1.7-.8 1.7-2.2-.1-.8-1.1-2.3-2-3.4-2.1-2.7-.2-3.2-.9-2.4-3 .6-1.5.8-1.5 1.6-.2.5.9 1.4 1.4 2.1 1.2zM41 126c0 .5.8 1 1.8 1 1.6.1 1.6.1-.1 1.1-2.4 1.4-4.8.4-4.1-1.6.7-1.7 2.4-2.1 2.4-.5zm209.7 7.7c-.3 1-.5.4-.5-1.2 0-1.7.2-2.4.5-1.8.2.7.2 2.1 0 3zm-209.2.3c-.3.5-1.1 1-1.6 1-.6 0-.7-.5-.4-1 .3-.6 1.1-1 1.6-1 .6 0 .7.4.4 1zm406.1 5.8c-.9.8-4.6-2-4.6-3.5 0-1.3.5-1.2 2.5.7 1.4 1.3 2.3 2.5 2.1 2.8zm-408.1.2c.3.5.1 1-.4 1-.6 0-1.1.7-1.1 1.5s-.4 1.5-1 1.5c-.5 0-1 .9-1 2.1 0 1.1-.4 1.7-1 1.4-.6-.4-.4-1.7.5-3.6.9-1.6 1.3-3.4 1-3.9-.3-.6.1-1 .9-1s1.8.4 2.1 1zm-8 1c.3.5-.1 1-1 1s-1.3-.5-1-1c.3-.6.8-1 1-1 .2 0 .7.4 1 1zm419 3l2 2.5-2.2-1.9c-1.3-1.1-2.3-2.4-2.3-2.9 0-.6.1-.8.3-.6.1.2 1.1 1.5 2.2 2.9zm-434 22.8c-.8.9-2.5-2-1.8-3.1.3-.5 1-.2 1.5.7.6 1 .7 2 .3 2.4zm7.7 14.6c-.2.5-.9.1-1.4-.8-.5-.9-.6-2.1-.2-2.8.9-1.4 2.5 2.2 1.6 3.6zm3 4.8c-.7.7-1.2.8-1.2.2 0-1.4 1.2-2.6 1.9-1.9.2.3-.1 1.1-.7 1.7zm-3.5 1.8c.6 1.6.7 3 .2 3-.5 0-.9-.5-.9-1.1 0-.6-.7-.9-1.5-.5-1.6.6-1.9-.3-.9-2.8.9-2.4 1.8-1.9 3.1 1.4zm4.8 1c-.3.5-1.1 1-1.6 1-.6 0-.7-.5-.4-1 .3-.6 1.1-1 1.6-1 .6 0 .7.4.4 1zm3.5 0c0 .5-.4 1-1 1-.5 0-1-.5-1-1 0-.6.5-1 1-1 .6 0 1 .4 1 1zm4.5 0c.4.6 1.1.8 1.6.5.5-.4.9-.1.9.4 0 .6-.4 1.1-.9 1.1-1.7 0-4.1-1.2-4.1-2.1 0-1.2 1.7-1.1 2.5.1zM24 196.1c0 3.6-1.3 3.8-2.8.4-1.5-3.3-1.6-3 .8-3.2 1.6-.1 2 .4 2 2.8zm-3.5 8.7c-.3.8-.1 1.8.5 2.2.6.4.8 1.4.4 2.4-.6 1.5-.7 1.5-2-.1-2.2-2.9-1.6-8.1.8-6.7.5.3.7 1.3.3 2.2zm12.5 4.7c0 .8-.7 1.5-1.5 1.5-2.6 0-1.8-2 1.3-2.9.1-.1.2.6.2 1.4zm460 4.1c0 1.1-5.8-2.7-6.4-4.1-.4-1 .6-.7 2.9 1.1 1.9 1.4 3.5 2.8 3.5 3zm4.3-2c-.7 1.8-1.6 1-1.8-1.6-.1-1.5.1-1.7 1.1-.9.7.6 1 1.7.7 2.5zm-466.3.8c0 .3-.4.8-1 1.1-.5.3-1 .1-1-.4 0-.6.5-1.1 1-1.1.6 0 1 .2 1 .4zm2.2 1.8c-.7.7-1.2.8-1.2.2 0-1.4 1.2-2.6 1.9-1.9.2.3-.1 1.1-.7 1.7zm-.6 4.1c.8-.3 1.4-.1 1.4.5 0 .5-.6 1.2-1.4 1.5-1.6.7-4-1.6-2.9-2.7.4-.4.9-.3 1.1.3.2.5 1 .7 1.8.4zm-3.6 3.2c0 .8-.4 1.5-1 1.5-.5 0-1-.7-1-1.5s.5-1.5 1-1.5c.6 0 1 .7 1 1.5zm6 3.5c0 .5-.4 1-1 1-.5 0-1-.5-1-1 0-.6.5-1 1-1 .6 0 1 .4 1 1zm-8 3.9c0 .4-.5 1.2-1.2 1.9-.9.9-.9 2 .1 4.8 1.1 3 1.1 3.8 0 4.5-2 1.3-2.9 1.1-2.9-.5 0-1.1-.5-1.2-2.5-.3-3.2 1.6-4.1 3.7-1.2 2.9 1.9-.5 2-.3.9 1-1.6 2-4.9 1.2-5.5-1.2-.3-1.2 0-1.7.7-1.4 1 .4 1.2-1 .8-5.2-.3-4.2-.2-5.5.7-5 .7.4 1.1 1.6.9 2.6-.2 1.1.1 2 .7 2.2.5.2.9-1.1 1-2.7 0-2.6.4-3 2.6-3 1.8.1 2.5-.4 2.2-1.2-.4-.9 0-1.1 1.1-.7.9.3 1.6.9 1.6 1.3zm3-1c0 .6-.4 1.3-1 1.6-.5.3-1-.1-1-.9 0-.9.5-1.6 1-1.6.6 0 1 .4 1 .9zm4 1.6c0 .8-.8 1.3-1.9 1.2-1.2-.1-1.7-.7-1.4-1.8.6-2 3.3-1.4 3.3.6zm-20 13.4c0 .6-.4 1.3-1 1.6-.5.3-1-.1-1-.9 0-.9.5-1.6 1-1.6.6 0 1 .4 1 .9zm10 16c0 .6-.4 1.3-1 1.6-.5.3-1-.1-1-.9 0-.9.5-1.6 1-1.6.6 0 1 .4 1 .9zm458 1.6c.7.9.8 1.5.2 1.5-.5 0-1.2-.7-1.6-1.5-.3-.8-.4-1.5-.2-1.5s.9.7 1.6 1.5zm-463 5.3c0 1.5-.2 1.5-1 .2-.8-1.2-1-1.1-1 .7 0 1.3-.4 2.3-1 2.3-1.3 0-1.3-1.6.2-3.9 1.4-2.2 2.8-1.8 2.8.7zm1 7.4c-.5.4-.8.5-.5.2.2-.4 0-1.4-.5-2.4s-.6-2-.3-2.4c.4-.4 1.1.3 1.5 1.5.5 1.3.4 2.6-.2 3.1zm12-3.2c0 .5-.4 1-1 1-.5 0-1-.5-1-1 0-.6.5-1 1-1 .6 0 1 .4 1 1zm-17 3c0 .5-.4 1-1 1-.5 0-1-.5-1-1 0-.6.5-1 1-1 .6 0 1 .4 1 1zm474 6.4c0 1.4-2.9 3-3.8 2.1-.3-.3 0-.5.6-.5.7 0 1.2-.7 1.2-1.5s.5-1.5 1-1.5c.6 0 1 .6 1 1.4zm15 3.6c0 .5-.5 1-1.1 1-.5 0-.7-.5-.4-1 .3-.6.8-1 1.1-1 .2 0 .4.4.4 1zm-66.4 5.5c-.9.9-1.6 1.3-1.6.8 0-1.2 2.2-3.4 2.8-2.8.2.2-.3 1.1-1.2 2zM25 298.9c0 2-.2 2.2-1.5 1.1-1.3-1-1.3-1.5-.3-2.1.9-.6.7-1.4-1-3.2-1.2-1.3-1.9-2.7-1.5-3 1-1.1 4.3 4.4 4.3 7.2zm470-2.2c0 1.4-.2 1.5-.9.4s-1-.9-1.6.8c-.4 1.3-.9 2-1.2 1.8-.7-.8 1.6-4.7 2.7-4.7.6 0 1 .8 1 1.7zm-67.7 2.3c-.3 1.1-.7 2-.9 2-.2 0-.4-.9-.4-2s.4-2 .9-2 .7.9.4 2zm16.2-1c.3.5.1 1-.4 1-.6 0-1.1-.5-1.1-1 0-.6.2-1 .4-1 .3 0 .8.4 1.1 1zm45.5 0c0 1.1-4.2 3.1-4.9 2.4-.5-.5 3-3.3 4.2-3.4.4 0 .7.5.7 1zm-54 1.4c0 1.1-1.9 1.5-2.5.6-.3-.5.1-1 .9-1 .9 0 1.6.2 1.6.4zm17.8 4.4c.2.7-1.2.2-3.2-1-1.9-1.3-3.5-2.6-3.6-3 0-1.2 6.3 2.6 6.8 4zm43.2-.3c0 1.4-.4 2.5-1 2.5-.5 0-1-1.1-1-2.5s.5-2.5 1-2.5c.6 0 1 1.1 1 2.5zm-469-.1c0 .3-.4.8-1 1.1-.5.3-1 .1-1-.4 0-.6.5-1.1 1-1.1.6 0 1 .2 1 .4zm408 .6c0 .5-.4 1-1 1-.5 0-1-.5-1-1 0-.6.5-1 1-1 .6 0 1 .4 1 1zm8.1.9c.7-1.1.9-1 .9.3 0 2.2-3.5 2.4-4.3.4-.8-2.1.5-2.9 1.6-1 .8 1.3 1.1 1.4 1.8.3zM24.5 324c.3 1.1 0 2.8-.7 3.9-1.3 1.8-1.4 1.6-1.5-2-.2-4.1 1.1-5.3 2.2-1.9zm461 3c.3.5.1 1-.4 1-.6 0-1.1-.5-1.1-1 0-.6.2-1 .4-1 .3 0 .8.4 1.1 1zM22 334.5c0 .8-.4 1.5-1 1.5-.5 0-1-.7-1-1.5s.5-1.5 1-1.5c.6 0 1 .7 1 1.5zm3 1.1c0 .8-.4 1.2-1 .9-.5-.3-1-1.3-1-2.1s.5-1.2 1-.9c.6.3 1 1.3 1 2.1zm417.3-2c.9.9-.4 3.5-1.4 2.8-.5-.3-.9-1.2-.9-2 0-1.4 1.2-1.9 2.3-.8zm4.7 1.5c0 1.4-1.7 1-2.3-.5-.4-1-.1-1.3.9-.9.7.3 1.4.9 1.4 1.4zm-210.4 7.6c-1 1-1.9-.5-1-1.8.6-1.1.8-1.1 1.2 0 .2.7.1 1.5-.2 1.8zM26 345.5c0 .8-.4 1.5-.9 1.5-1.3 0-2.2-1.6-1.4-2.4 1.1-1.1 2.3-.6 2.3.9zm3 .5c0 .5-.5 1-1.1 1-.5 0-.7-.5-.4-1 .3-.6.8-1 1.1-1 .2 0 .4.4.4 1zm-11.8 5.2c.6 1.7-.1 3.8-1.3 3.8-.5 0-.9-1.1-.9-2.5 0-2.6 1.4-3.4 2.2-1.3zm6 1.3c-.2 1.4-.9 2.5-1.4 2.5-.6 0-.7-.7-.4-1.6.3-.9.6-2 .6-2.5s.4-.9.9-.9c.4 0 .6 1.1.3 2.5zm9.4.1c-.3.9-.6 2.1-.6 2.7 0 .8-.3.8-1.1 0-1.3-1.3-.5-4.3 1.2-4.3.6 0 .8.7.5 1.6zm-3.5 1.1c.1 1 .1 2.4 0 3-.1.7.8 1.3 1.9 1.3 1.3 0 2 .5 1.7 1.2-.2.7-1.1 1.2-2.1 1-1.6-.3-2 .8-1.6 3.8.1 1.1-.1 1.2-1 .4-.9-.9-.9-1.7-.1-3.2.8-1.5.7-2.3-.4-3.2-2.3-1.9-1.8-6 .7-6 .4 0 .9.8.9 1.7zm288.6 2.5c-.3.8-.6.5-.6-.6-.1-1.1.2-1.7.5-1.3.3.3.4 1.2.1 1.9zm-291.2 2.5c.3 1 .1 1.9-.4 2.1-.6.2-1.1 1.6-1.2 3-.1 2.4-.2 2.3-.9-.7-1.2-5 .8-8.6 2.5-4.4zm300 2.9c1.2.5 1.4.9.4 1.4-1.4.9-3.9.2-3.9-1.1 0-1.1 1.2-1.1 3.5-.3zm-11.8 3.6c-.3.8-.6.5-.6-.6-.1-1.1.2-1.7.5-1.3.3.3.4 1.2.1 1.9zm3.4 1.1c-.8.8-1.1.7-1.1-.4 0-2 1.3-3.4 1.8-1.9.3.7-.1 1.7-.7 2.3zm3.6-.1c-.3.7-.5.2-.5-1.2s.2-1.9.5-1.3c.2.7.2 1.9 0 2.5zm-5.7 3.4c0 1.6-.2 1.6-2.4.8-.9-.3-1.6-1-1.6-1.6 0-.5.5-.6 1-.3.6.3 1 .1 1-.5s.5-.8 1-.5c.6.3 1 1.3 1 2.1zm-59-.6c0 .5-.5 1-1.1 1-.5 0-.7-.5-.4-1 .3-.6.8-1 1.1-1 .2 0 .4.4.4 1zm44-.6c0 .3-.4.8-1 1.1-.5.3-1 .1-1-.4 0-.6.5-1.1 1-1.1.6 0 1 .2 1 .4zm6.3 1.4c.4-.9.6-.8.6.3.1.9.7 1.6 1.4 1.7.6 0 2.9.5 5 1 2.1.6 3.7.6 3.7.1s.7-.9 1.5-.9 1.5.7 1.5 1.5c0 1.3-1.1 1.5-5.7 1.3-3.2-.2-6.4-.9-7.2-1.6-.7-.7-2.2-1-3.2-.7-1.2.4-1.9.2-1.9-.8 0-2.1 1.2-2.8 2.6-1.6.8.7 1.4.6 1.7-.3zm-20.6 4c-2.3 2.5-2.1 4.2.4 4.2 1.2 0 2.3-.8 2.6-2 .6-2.1 2.3-2.8 2.3-.9 0 .6-.5 2-1.1 3.1-1 1.8-.9 2 .6 1.4 1-.3 2.4-.1 3.2.5 1.1 1 1.1 1.5-.4 3.1-1.7 1.9-1.7 2.1.7 4.1 1.6 1.3 1.9 1.8.7 1.4-2.7-1-4.4 4.1-2 5.8 2 1.5 1.8 1.9-1.6 3-1.6.5-2.1.4-1.7-.4.4-.6 0-1.1-.8-1.1-.9 0-1.6.5-1.6 1.2 0 .6-.3.9-.6.5-1.1-1.1 1.9-6.5 3.3-6 .7.3 1.3-.2 1.3-1s-.6-1.7-1.2-2c-1-.3-1-.7-.1-1.7 1.1-1.2 1-1.7-1.4-5.9-.2-.2-.9.2-1.8.9-1.2 1-1.5 1-1.5-.4 0-2.2-.8-2-3.1.6-1.8 2.2-1.8 2.2-1.9.3 0-1.6-.2-1.7-1-.5-1.3 2.1-1.9.9-.9-1.8.5-1.3 1.8-2.6 2.9-2.9 2.6-.7 2.6-2.3 0-3-2.8-.7-2.5-2.8.5-3.1 1.9-.1 2.3.2 1.9 1.6-.2.9.1.7.7-.6.8-1.5 1.6-1.9 2.2-1.3.7.7.5 1.7-.6 2.9zm36.8-1.9c-.4 1.5 0 2.1 1.7 2.4 2 .4 2 .4-.4.6-2.1.1-2.8-.4-2.8-1.7 0-1.7.8-3.2 1.7-3.2.3 0 .2.9-.2 1.9zM23 377.6c0 .8-.4 1.2-1 .9-.5-.3-1-1.3-1-2.1s.5-1.2 1-.9c.6.3 1 1.3 1 2.1zm376 .6c0 .5-.7.3-1.5-.6-.8-.8-1.5-1.8-1.5-2.2 0-.3.7-.1 1.5.6s1.5 1.7 1.5 2.2zm-21-.8c0 1.6-3.5 2.7-5.7 1.9-1.1-.4-.6-1 1.8-1.8 1.9-.7 3.5-1.3 3.7-1.4.1 0 .2.5.2 1.3zm5 1.3c-.1 1-.7 2.9-1.4 4.2l-1.3 2.4-.5-3.4c-.3-1.9-.4-3.7-.1-4.2.8-1.4 3.3-.7 3.3 1zm-81 1.4c0 .5-.4.9-1 .9-.5 0-1-.7-1-1.6 0-.8.5-1.2 1-.9.6.3 1 1 1 1.6zm-275.3 1.5c-.9.9-2.8-.6-2.1-1.8.4-.6 1-.6 1.7.1.6.6.8 1.3.4 1.7zm271.5 1c-.8 1.4-.9 1.3-.9-1 0-1.8.3-2.4.9-1.8.7.7.7 1.6 0 2.8zm88-1.1c-.2 1.4-.6 2.5-.7 2.5-.1 0-.5-1.1-.7-2.5-.3-1.6-.1-2.5.7-2.5.8 0 1 .9.7 2.5zM309 381c0 1-1.4 1.4-3.7 1.1-.7-.1-1.3.6-1.3 1.5 0 1 .5 1.4 1.5 1.1.8-.4 1.7-.2 2 .3.6 1 .5 1.1-3.1 1.5-1.2.1-2.6.5-3.3.9-.7.5-1.1-.1-1.1-1.3s.7-2.1 1.5-2.1 1.5-.9 1.5-2c0-1.6.7-2 3-2 1.7 0 3 .4 3 1zm60.5.4c1.1 1.1 1.2 1.5.2 1.9-1.4.5-3.9-1.8-3-2.7.9-.9 1.3-.8 2.8.8zm-52.8.9c.6.4 1.4.3 1.8-.3.4-.6 1.1-.5 1.9.3 1.7 1.5 1.1 2.8-1.2 2.3-4.3-.8-7.2-1.9-7.2-2.7 0-1 2.9-.7 4.7.4zm62 4.7c0 1.6-1.5 4-2.7 4-.5 0-.6-5.3-.1-7.8.2-1 2.8 2.5 2.8 3.8zm17.6-2.8c3.2 1.2 3.6 2.8.7 2.8-1.2 0-2-.7-2-1.7 0-1.2-.3-1.4-1-.7-1.2 1.2-7.2.6-6.4-.7.7-1.1 5.1-.9 8.7.3zm-83.5 4.5c-.6.7-1.6 1.3-2.2 1.2-.7 0-.6-.2.2-.6.6-.2 1.2-1.4 1.2-2.6 0-1.8.2-1.9 1-.7.5.9.5 1.9-.2 2.7zm60-.3c.3 1.1-.4 1.6-2.2 1.6-2.1 0-2.6-.5-2.6-2.5 0-2.1.3-2.3 2.3-1.6 1.2.5 2.3 1.6 2.5 2.5zm-17.4-1.5c.3.5 0 1.1-.8 1.4-.8.3-1.7-.1-2-.9-.6-1.5 1.9-2 2.8-.5zm11.1 2c-.6.5-2.7 1.3-4.7 1.6-3.2.6-3.8.4-3.8-1 0-1.5.6-1.7 3.5-1.2 2.8.5 3.5.2 3.5-1.1 0-1.2.3-1.3 1.2-.4.8.8.8 1.5.3 2.1zm22.5-2.5c0 .2-.7.6-1.5 1-.8.3-1.5.1-1.5-.4 0-.6.7-1 1.5-1s1.5.2 1.5.4zm15 2.4c0 1.5-.2 1.5-1 .2-1.3-2-1.3-3.3 0-2.5.6.3 1 1.4 1 2.3zm-84.5-.8c.3.5.1 1-.4 1-.6 0-1.1-.5-1.1-1 0-.6.2-1 .4-1 .3 0 .8.4 1.1 1zm64.5 0c0 .5-.2 1-.4 1-.3 0-.8-.5-1.1-1-.3-.6-.1-1 .4-1 .6 0 1.1.4 1.1 1zm24 0c0 .5-.5 1-1.1 1-.5 0-.7-.5-.4-1 .3-.6.8-1 1.1-1 .2 0 .4.4.4 1zm-49.4 8c1.3 0 2.4.5 2.4 1.1 0 .5.4.8.8.5.5-.3 1.9.2 3.1 1.1 1.8 1.2 2 1.7 1 2.4-.8.5-2 .2-3-.7-1.1-1-1.9-1.1-2.3-.5-1 1.6-4.8.9-8.9-1.7-3.5-2.1-3.8-2.1-3.5-.5.2 1 1.6 2.4 3.1 3.1 3.2 1.6 3.4 3.1.7 6s-5 2.8-5-.1c0-1.7-.2-1.9-1-.7-.6.9-.6 1.8 0 2.4 1.3 1.3 1.3 2.9 0 2.1-.5-.3-1.6.8-2.5 2.5-1.7 3.2-3.5 4-3.5 1.5 0-.9-.8-1.9-1.7-2.3-1.4-.5-.9-.8 1.7-1.2 2.8-.4 3.6-1 3.8-3 .2-2.3.1-2.4-1.1-.8-1.5 1.9-4.2 2.4-5.1.9-.3-.5-1.5-.7-2.6-.4-1.1.3-2 0-2-.6s.6-1.1 1.4-1.1c.8 0 1.6-.7 2-1.5.7-1.8 5.2-2 6-.3.3.9.8.8 1.6-.5.6-.9 1.8-1.7 2.5-1.7.8 0 1.5.8 1.5 1.7 0 1.5.2 1.6 1 .3.6-1 .5-2-.6-3-1.2-1.2-1.8-1.2-3.5-.2-1.9 1.2-2 1.1-1.4-.7.7-2.3-.4-2.8-2.3-.9-1.7 1.7-2.5.4-1.7-3.1.7-3.3 1.9-3.9 3.2-1.9.4.7 2.5 1.4 4.5 1.4 2.1.1 3.5-.3 3.2-.7-.3-.5 0-.9.5-.9.6 0 1.1.4 1.1 1 0 2.6 2 .6 2.7-2.8l.8-3.7.3 3.7c.3 3.3.7 3.8 2.8 3.8zm113.4-1.8c0 2.2.1 2.2-3.9.2-3-1.5-3.4-4.1-.5-3 .9.3 1.4-.1 1.4-1.2.1-1.5.2-1.5 1.5.2.8 1.1 1.5 2.8 1.5 3.8zm-165.6-1.8c-.4 1.8-.1 2.5 1.7 2.9 2.3.6 2.3.6.3 2.8-1 1.2-1.3 1.9-.5 1.4 1.1-.6 1.3-.3.9 1.3-.4 1.2-.2 2.5.3 2.8.5.3.6 1 .3 1.6-.4.6-1 .5-1.5-.3-.8-1.2-1.1-1.1-1.9.1-.5.8-1 1-1 .4 0-1.6-3.6-2.4-4.9-1.1-.8.8-1.1.8-1.1 0 0-1.5 1.9-2.7 4.2-2.8 1 0 1.8-.3 1.8-.8 0-.4-.3-.7-.7-.6-.4 0-1-.7-1.3-1.6-.6-1.6-.7-1.6-2.3-.1-.9.9-2.1 2.5-2.7 3.4-.8 1.2-1.3 1.3-1.6.5-.3-.7-1.2-.9-2-.6-.8.3-1.4 0-1.4-.6s1.1-1.1 2.4-1.1c3.1 0 4.2-1.6 2.4-3.7-1.1-1.4-1-1.5 1-.9 1.4.5 2.2.3 2.2-.4s.7-.9 1.5-.6c1.1.4 1.9-.3 2.5-1.9 1.2-3.2 2.2-3.3 1.4-.1zm-22.9 1.6c-.6.9-.9.9-1.6-.1-1-1.7 0-3.4 1.3-2.1.6.6.7 1.6.3 2.2zm142.5.5c1.1 1.3 1 1.8-.6 2.9-1.6 1.2-2 1.1-2.9-.8-.8-1.5-.8-2.3-.1-2.8 1.6-1.1 2.2-1 3.6.7zm-174 .5c0 .5-.4 1-1 1-.5 0-1-.5-1-1 0-.6.5-1 1-1 .6 0 1 .4 1 1zm86.5 0c.3.5.1 1-.4 1-.6 0-1.1-.5-1.1-1 0-.6.2-1 .4-1 .3 0 .8.4 1.1 1zm40 3.1c0 1.3-.4 2.8-1 3.2-.5.5 0 .6 1.2.2 1.2-.3 2.4-.2 2.7.4.6.9-5 2-9.1 1.8-1.7-.1-1.9-.4-1.1-1.4.8-1 .5-1.3-1.1-1.3-1.4 0-2.1-.6-2.1-2 0-2.7.7-2.5 4.1 1.1 1.6 1.8 3.2 2.9 3.6 2.5.3-.3-.2-1.5-1.3-2.7-1.8-2-1.8-2.1.1-3.5 2.5-1.9 4-1.3 4 1.7zm99.1-.9c.6 2.1.7 2.1 1.4.4.6-1.7.7-1.6 2.3.7 1.3 2 1.4 2.8.4 4.1-1.6 2.2-4.3 1.2-5.1-1.9-.3-1.3-.9-3-1.2-3.9-.3-.9-.1-1.6.4-1.6.6 0 1.4 1 1.8 2.2zm-143.7-.3c.9.6 1 1 .2 1.6-.7.4-1.8.2-2.5-.4-1-.8-1.7-.7-2.6.4-.7.9-1 1.9-.6 2.2.4.4 1.2.1 1.7-.7 1.2-1.6 1.2-1.8-.5 3.7-.9 2.7-.3 2.9 1.9.7 1.2-1.3 1.9-1.4 2.8-.5.8.8.7 1.1-.6 1.1-1 0-1.7.8-1.7 1.7 0 1.2-.8 1.8-2.5 1.9-1.5.1-2.2-.2-1.8-.9.4-.6 0-.8-1-.4-.9.3-2.9 0-4.3-.8-1.6-.8-4.5-1.2-7-1-3.5.4-4.3.1-4.7-1.5-.3-1.1-.1-2 .4-2s.9.4.9.8c0 1 6.7.8 7.7-.2.6-.6-2-1-4.4-.7-2.2.3-1.4-.9 1.3-1.9 2.7-1.1 5.4.5 5.4 3.2 0 .7 1.2 0 2.6-1.6 1.4-1.6 2.3-3.5 2-4.2-.6-1.6 4.9-2 7.3-.5zM192 399c0 .5-.4 1-.9 1-.6 0-1.3-.5-1.6-1-.3-.6.1-1 .9-1 .9 0 1.6.4 1.6 1zm251.6.5c-.3.8-.1 1.5.3 1.5.5 0 1.1-.6 1.4-1.4.7-1.9 7.4-1.2 9.8 1 1.8 1.6 1.8 1.7-.6 3.6-1.5 1.2-3 1.6-3.7 1.1-.7-.4-1.5-.8-1.8-.9-.3 0-1.8-.6-3.3-1.2-1.6-.7-3.3-1.2-3.8-1.2-1.3 0-1.1-1.4.3-2.8 1.6-1.6 2.1-1.5 1.4.3zM287 400c0 .5-.2 1-.4 1-.3 0-.8-.5-1.1-1-.3-.6-.1-1 .4-1 .6 0 1.1.4 1.1 1zm-34 1c.8.5 1.1 1.2.7 1.7-.5.4-1.2.1-1.6-.6-.6-.9-1.1-1-1.5-.2-1.1 1.6-2.6 1.3-2-.4.7-1.7 2.2-1.9 4.4-.5zm41.2 5.4c.3 2.5-.1 2.9-2.9 3.2-3.9.5-4.3-.9-.8-3.2 3.1-2 3.2-3.1.4-3.9-1.6-.6-1.8-.9-.8-1.5 1.6-1.1 3.7 1.6 4.1 5.4zm100.8-4.9c0 1.2-1.9 1.2-2.3 0-.4-.9-.1-1.2.9-.8.7.3 1.4.7 1.4.8zm-187 .5c0 .5-.4 1-1 1-.5 0-1-.5-1-1 0-.6.5-1 1-1 .6 0 1 .4 1 1zm7 0c0 .5-.7 1-1.6 1-.8 0-1.2-.5-.9-1 .3-.6 1-1 1.6-1 .5 0 .9.4.9 1zm145.5 2c-.3.5-1 1-1.6 1-.5 0-.9-.5-.9-1 0-.6.7-1 1.6-1 .8 0 1.2.4.9 1zM216 405c0 .5-.5 1-1.1 1-.5 0-.7-.5-.4-1 .3-.6.8-1 1.1-1 .2 0 .4.4.4 1zm28 .9c0 .5-.7 1.2-1.6 1.5-1.4.5-1.5.4-.4-.9 1.4-1.7 2-1.9 2-.6zm-4 .5c0 .3-.4.8-1 1.1-.5.3-1 .1-1-.4 0-.6.5-1.1 1-1.1.6 0 1 .2 1 .4zm68.3 2c3 1.2 3.4 3.2 1.2 6.2-1.4 1.9-1.4 1.8-1.6-.4-.2-3.5-.4-4-1.1-4.8-.5-.4-.8 0-.8.9 0 1.1-.5 1.4-1.6 1-.8-.3-1.3-1.2-.9-2 .4-1.2 0-1.4-1.5-1-1.9.5-2.7-.3-1.4-1.5.6-.7 3.8 0 7.7 1.6zm-280.4.5c1.2.8 1.2 1.2-.2 2.5-1.1 1.2-1.7 1.3-2 .3-.4-.9-.8-.8-1.6.3-.6.8-1.1 1-1.1.5 0-.6-.7-.2-1.4.8-.8 1-1.2 2.6-.9 3.6.3 1 0 2.2-.6 2.5-.7.5-1.1-.2-1.1-1.8 0-1.4-.4-2.8-1-3.1-1.6-1-1.2-4.5.5-4.5.8 0 1.5-.5 1.5-1 0-1.2 6-1.3 7.9-.1zm296.9 3.3c2.8 1.9 1.4 3.3-3 3-3.4-.3-3.7 1-.6 2.3 1.3.6 2.4 1.7 2.6 2.7.3 1.4-.2 1.5-3.5.7-6.1-1.6-6.6-1.5-8 1.1-1.2 2.3-1.3 2.4-1.3.4 0-2.4-3.8-4-5.4-2.4-1.3 1.3-2.6 1.3-2.6 0 0-.6.7-1 1.5-1s1.5-.3 1.5-.8c0-.4 2.3-.8 5.1-.9 3.1 0 5.8-.7 6.6-1.6 1.7-1.7 1-3.7-1.3-3.7-.8 0-1.4-.4-1.4-.8 0-1.5 7.4-.8 9.8 1zm-26.6.1c.4.7 2.4 1.1 4.5 1l3.8-.2-3.7.8c-2 .4-4.8 1.5-6.3 2.5l-2.6 1.7.3-2.8c.2-1.8-.1-2.7-.9-2.6-.7.2-1.3-.1-1.3-.6 0-1.3 5.4-1.1 6.2.2zm38.5 1.3c2.7 2.5 2.7 2.6.8 4-2.5 1.8-4.1 1.8-2.5-.1 1-1.1.9-1.8-.4-3-1.5-1.5-2.2-3.5-1.2-3.5.3 0 1.8 1.2 3.3 2.6zm-46.7-.2c0 1.1-1.9 1.5-2.5.6-.3-.5.1-1 .9-1 .9 0 1.6.2 1.6.4zm3 3.6c0 .5-.4 1-1 1-.5 0-1-.5-1-1 0-.6.5-1 1-1 .6 0 1 .4 1 1zm-132.6 3.3c-.3.9-1.2 1.7-2 1.7-2.4 0-1.6 3.5.9 3.7 1.2.1 3.1.4 4.2.6 1.1.2 2.9-.2 4-.9 1.9-1.2 2.1-1.1 2.2.7.2 2.4 3.1 4.9 5 4.2.8-.3 1.3.2 1.3 1.3 0 .9-.3 1.5-.6 1.1-.3-.3-2 .1-3.7.8-2.2.9-3.7 1-5 .3-1-.5-2.3-.7-3-.5-.7.2-2-.2-2.9-1-.9-.8-3.3-1.5-5.3-1.5-2.1 0-3.9-.6-4.1-1.3-.4-.8-1.7-1.2-3.4-1-2.2.3-3.1-.1-3.6-1.7-.4-1.3-.1-2.4.7-2.9 1-.6 1.1-.9.2-.9-.7 0-1.3-.8-1.3-1.7 0-1.4.3-1.3 1.6.5 1.6 2.4 3.4 2.9 3.4 1.1 0-2.3 3.3-3.7 6.3-2.8 3.6 1 4.8.4 4-1.9-.4-1.3-.3-1.4.6-.6.6.6.9 1.8.5 2.7zM178 418c0 .5-.7.7-1.5.4-.8-.4-1.5-.8-1.5-1 0-.2.7-.4 1.5-.4s1.5.4 1.5 1zm6 0c0 .5-.5 1-1.1 1-.5 0-.7-.5-.4-1 .3-.6.8-1 1.1-1 .2 0 .4.4.4 1zm149 .5c0 .8-.4 1.5-1 1.5-.5 0-1-.7-1-1.5s.5-1.5 1-1.5c.6 0 1 .7 1 1.5zm-168.5 2.1c-.8.9-1.9 1.2-2.5.9-1.5-.9-.5-2 1.9-2.2 1.9-.2 2 0 .6 1.3zm29.1 2.2c1.6.1 3.9.4 5.2.5 2.9.3 2.2 2.2-.9 2.2-1.6 0-2.8.9-3.7 2.7-1.1 2.3-1.6 2.6-3.7 1.8-1.5-.6-2.7-.6-3 .1-1.1 1.6-2.3 0-1.7-2.3.5-1.9.2-2.1-2.5-1.5-2.6.5-3.2.2-4.2-1.9-1.3-2.9-3.5-2.7-3.8.2-.2 1 0 1.3.3.6.6-1.3 2.4-1.7 2.4-.4 0 .5-.6 1.6-1.3 2.6-1.1 1.5-1.7 1.7-3.5.7-2.5-1.3-2.9-3.9-.7-4.7.8-.4 1.5-1.2 1.5-1.9 0-1.6 5.3-1.2 5.8.4.2.7 1.6.9 3.8.5 2.3-.4 3.4-.2 3.4.5s.5.9 1 .6c.6-.4.8-1.1.5-1.6-.4-.5-.3-1.4.1-2.1.5-.8 1-.6 1.4.8.4 1.2 1.8 2 3.6 2.2zm91.4-2.9c0 .6-.4 1.3-1 1.6-.5.3-1-.1-1-.9 0-.9.5-1.6 1-1.6.6 0 1 .4 1 .9zm6.5 2c-.6 2.1-2.5 2.9-2.5 1.1 0-.6.5-1 1-1 .6 0 1-.8 1-1.7 0-.9.3-1.4.6-1 .3.3.3 1.5-.1 2.6zm4.5-1.4c1 1.2 1 1.5-.4 1.5-.9 0-1.6-.7-1.6-1.5s.2-1.5.4-1.5.9.7 1.6 1.5zm-7.6 1c-.4.8-1 1.2-1.5.9-1.1-.6-.2-2.4 1.1-2.4.5 0 .7.7.4 1.5zm-146.9 2.8c-.4 1.6.1 2.7 1.9 4 3.1 2.4 2.5 5.3-.7 3.5-1.2-.7-2.4-1.3-2.7-1.3-.3-.1-2.2-.5-4.3-1-3.8-.7-5.3-2.3-4.5-4.6.3-.8.9-.6 2 .5 2.1 2 2.8 2 2.8 0 0-1.4.3-1.4 1.5-.4 2 1.6 3.2.5 1.6-1.4-.9-1.1-.9-1.5.1-1.9 2-.7 2.9.2 2.3 2.6zm-98.5-.8c0 .8-.4 1.5-1 1.5-.5 0-.7-.7-.4-1.5.4-.8.8-1.5 1-1.5.2 0 .4.7.4 1.5zm187.4-.6c.3.5-1.1 1.1-3.2 1.5-5.5.9-8.4.7-7.7-.4.3-.6 1.9-.8 3.6-.5 1.6.3 2.9.1 2.9-.5 0-1.2 3.7-1.3 4.4-.1zm106.6.1c0 .5.7 1 1.5 1s1.5.4 1.5 1c0 1.6-1.5 1.2-3.5-1-1-1.1-1.3-2-.7-2 .7 0 1.2.4 1.2 1zm-304.6 2.1c-.3.5-1 .7-1.5.3-.5-.3-.7-1-.3-1.5.3-.5 1-.7 1.5-.3.5.3.7 1 .3 1.5zM217 424c0 .5-.4 1-1 1-.5 0-1-.5-1-1 0-.6.5-1 1-1 .6 0 1 .4 1 1zm77.6 2.5c-.7 2.7-3.6 3.5-3.6 1 0-.8.7-1.5 1.5-1.5s1.5-.8 1.5-1.7c0-.9.3-1.4.6-1 .4.3.4 1.8 0 3.2zm-257.9.5c-.4 3.6-1.8 4-2.9 1-.7-1.8-.5-2.1.8-1.6 1.2.4 1.5.2 1-.9-.3-.8-.1-1.5.4-1.5.6 0 .8 1.4.7 3zm251.8-2c.3.5.2 1-.4 1-.5 0-1.3-.5-1.6-1-.3-.6-.2-1 .4-1 .5 0 1.3.4 1.6 1zm26.1 2.6c-.3.7-.1 1.6.4 1.9.6.4 1-.1 1-.9 0-1.7.2-1.8 4.2-2.1 2.9-.2 4.2 1.6 3.3 4.6-.6 1.6-.1 1.9 3.3 1.9 2.3 0 4.3.6 4.6 1.2.3.7.3.3 0-.9-.4-1.8-.2-2.2 1-1.7 1 .4 1.6.1 1.6-1 0-1.2-.7-1.4-3.2-1.1l-3.3.5 3-1.4c1.7-.8 3.2-1 3.3-.5.2.5 1.2.9 2.3.9 1 0 1.9.7 1.9 1.5s.6 1.2 1.4.9c2.5-1 2.6 1.3.1 2.4-4 1.8-2.9 3 1.6 1.8 3.2-.8 4.2-.8 4.8.3.5.7 1.4 1 2 .7 2.2-1.4 10-1.4 11.1-.1 1.4 1.7 5.3.7 4.6-1.1-.4-1 .4-1.4 2.9-1.4 1.8 0 3.7-.5 4-1 .8-1.3 2.5-1.3 2.5-.1 0 .5-.5 2.2-1.1 3.8-.8 2.1-1.2 2.4-1.9 1.3-.5-.8-.6-1.8-.4-2.2.3-.4 0-.8-.5-.8-.6 0-1.1.7-1.1 1.6 0 1.3-.3 1.4-1.4.5-1.1-1-1.7-.7-2.9 1-.9 1.1-2 1.8-2.7 1.4-.6-.4-1.7-.1-2.5.5s-3.1 1.1-5.2 1c-6.5-.3-7.2-.1-6.6 1.9.4 1.6 0 1.8-2.7 1.5-1.7-.2-3.8-.8-4.8-1.3-.9-.5-3.9-.8-6.7-.6-2.7.1-5.6-.2-6.2-.8-.8-.6-1.3-.6-1.3 0 0 1.4-3.9 5.7-4.6 5.1-.3-.4-1.8-.2-3.4.2-2.3.7-2.8.5-2.3-.6.3-.8 0-1.4-.6-1.4s-1.1-.7-1.1-1.6c0-.8.5-1.2 1-.9.6.3 1 .1 1-.4 0-.6-.4-1.1-.9-1.1s-1.1-1-1.3-2.3c-.3-1.9-.9-2.2-4.7-2.2-3.1 0-5.1.7-7 2.2-1.4 1.3-3.3 2-4.3 1.7-.9-.2-1.9 0-2.3.6-.3.5-1 1-1.5 1-1 0 2.9-8.1 4.5-9.2.5-.4 1.3-.4 1.7-.2.4.3.8-.4.8-1.5 0-1.2.5-2.1 1-2.1.6 0 .8 1.1.4 2.6-.6 2.4-.5 2.5 3.8 2.3 2.4-.2 5 .1 5.6.5.7.4 1.2.2 1.2-.4 0-.6.5-.8 1-.5.6.3 1-.3 1-1.4 0-1.1-.4-2.3-1-2.6-.5-.3-1-.1-1 .6s-.2 1-.5.7c-1-1 1.5-5.9 2.6-5.3.6.4.8 1.3.5 2.1zm-5.6 1.8c0 1.5-2.7 2.5-4.9 1.8-1.1-.4 1.3-2 4.7-3.1.1-.1.2.5.2 1.3zm-197 .6c0 .5-.2 1-.4 1-.3 0-.8-.5-1.1-1-.3-.6-.1-1 .4-1 .6 0 1.1.4 1.1 1zm37.4-.1c.3.5-.1 1.1-.9 1.5-.9.3-1.5 0-1.5-.9 0-1.6 1.6-2 2.4-.6zm35.4 3c-.2.8-1.4 1.5-2.8 1.6-3.1.3-5.2-.4-4.5-1.6.3-.4 1.2-.6 2-.2.8.3 1.5.1 1.5-.4s.9-.9 2-.9c1.3 0 2 .6 1.8 1.5zm-52.7 1.4c-1 .9-1.1.8-.5-.6.3-1 .9-1.5 1.2-1.2.3.3 0 1.1-.7 1.8zm162.9-.4c0 2.7-1.5 3.4-3.1 1.5-1-1.3-1-1.7.2-2.5 2.2-1.3 2.9-1.1 2.9 1zm-45 .1c0 .5-.7 1-1.6 1-.8 0-1.2-.5-.9-1 .3-.6 1-1 1.6-1 .5 0 .9.4.9 1zm129.7.4c-.2.5-1.3 1.6-2.5 2.4-2.1 1.4-2.2 1.3-2-1.1.2-1.9.7-2.4 2.5-2.3 1.3 0 2.2.5 2 1zm15.3-.4c0 .5-.4 1-1 1-.5 0-1-.5-1-1 0-.6.5-1 1-1 .6 0 1 .4 1 1zm-106 .7c0 1.1-5.7 4.2-6.4 3.5-1.2-1.1-.5-2.1 2.2-3 3.4-1.3 4.2-1.4 4.2-.5zm73 .3c0 .5-.5 1-1.1 1-.5 0-.7-.5-.4-1 .3-.6.8-1 1.1-1 .2 0 .4.4.4 1zm21 0c0 .5-.5 1-1.1 1-.5 0-.7-.5-.4-1 .3-.6.8-1 1.1-1 .2 0 .4.4.4 1zm5-.6c0 .2-.7.6-1.5 1-.8.3-1.5.1-1.5-.4 0-.6.7-1 1.5-1s1.5.2 1.5.4zm-334.1 5.2c-1 2.3-1.3 2.5-1.6 1.1-.3-1 .1-2.5.8-3.3 1.7-2.1 2.1-1.1.8 2.2zm13.6-1.9c1.9-.8 3.1 1.1 1.6 2.6-.8.8-1.1.8-1.1-.1 0-.6-.7-.9-1.5-.6-.8.4-2.3 0-3.2-.7-1.5-1.2-1.6-1.2-1 .3.4 1.2.2 1.8-.8 1.8-2.1 0-1.9-2.7.2-3.9 1.2-.6 2.2-.6 3 .1.7.6 1.9.8 2.8.5zM44 440.5c0 .3-.9.5-2 .5s-2-.7-2-1.5c0-1.3.4-1.4 2-.5 1.1.6 2 1.3 2 1.5zm34-.9c0 .2-.9.4-2.1.4-1.1 0-1.8-.4-1.4-1 .5-.8 3.5-.3 3.5.6zm-5 .4c0 .5.7 1 1.5 1s1.5.8 1.6 1.7c0 1.1.3 1.3.6.5.2-.6 1.1-1.2 1.8-1.2s1.6.6 1.9 1.2c.3.7.3.3 0-1-.5-2.2.9-3.1 2.1-1.2.3.5 1.2.7 2 .3 1-.3 1.5.1 1.5 1.3.1 1.7.2 1.7 1.3.3.8-1 2.1-1.3 3.6-.9l2.4.6-2.8 1.8c-1.7 1.1-4.4 1.9-6.7 1.8-4-.2-4.8.7-2.3 2.8 1.2 1 1.5 1 1.5 0 0-.7 1.1-.1 2.5 1.4 1.3 1.4 2.9 2.6 3.5 2.6 2.1 0-.9 3.8-3.5 4.4-1.4.4-2.4 1-2.4 1.4.6 3.5-.2 4.3-3.3 3.7-3.8-.9-5-2.2-4.2-4.9.5-1.5.3-1.8-1-1.3-1.1.5-1.8-.1-2.2-1.9-.5-2-1.2-2.5-3-2.1-1.3.2-2.5-.1-2.7-.7-.2-.7-1-.4-2.1.7-1.7 1.7-3.6 1.5-3.6-.3 0-.5.7-.7 1.5-.4 1 .4 1.3.2 1-.7-.5-1.5 4.2-4.2 5.6-3.3.5.3.6-.2.3-1.1-.4-1-.2-1.4.7-1 2 .7 4.3-1 3.4-2.5-.6-.9-.9-.9-1.6.1-.6 1-.9.6-.9-1.4 0-1.5.5-2.7 1-2.7.6 0 1 .4 1 1zm150 1.5c0 .8-.5 1.4-1.2 1.2-1.1-.2-3 6.1-2.2 7.4.2.4-.7.6-2.1.5-3-.1-3.1-.6-.5-2.9 2.4-2 1.7-4.7-1.1-4-1.1.3-1.9 0-1.9-.6 0-.7.5-.9 1-.6.6.3 1 .1 1-.5 0-.8.9-1 2.5-.6 1.4.4 2.5.2 2.5-.4 0-.5.5-1 1-1 .6 0 1 .7 1 1.5zm13.8 1.9c1.7 1 1.5 5.6-.3 5.7-3.4.3-4 .5-3.8 1.4 0 .6-.6 1.6-1.5 2.4-1.3 1.3-1.4 1.2-.8-1.5.4-1.6.3-2.5-.1-1.9-.4.5-1.5 1.6-2.4 2.3-1.5 1.1-1.7.9-2.1-1.8-.3-2 0-3 .9-3 .7 0 1.3.8 1.4 1.7 0 1.1.2 1.3.6.5.3-.7-.2-2.4-1.1-3.7-.9-1.3-1.6-2.6-1.6-2.8 0-.6 9.6-.1 10.8.7zM65 445.1c0 .5-.7.9-1.5.9-.9 0-1.2-.6-.9-1.5.6-1.5 2.4-1.1 2.4.6zm176-1.1c0 .5-.2 1-.4 1-.3 0-.8-.5-1.1-1-.3-.6-.1-1 .4-1 .6 0 1.1.4 1.1 1zm65.5 0c.3.6-.1 1.3-1 1.6-1.9.8-3 0-2-1.5.8-1.4 2.2-1.4 3-.1zm-103.4 1.3c-.1.4-.1 1.5-.1 2.6 0 1.4-.7 1.8-2.7 1.7-1.6-.1-3.4-.5-4-.9-.7-.5-1.7-.5-2.3-.2-.5.3-1.8.1-2.7-.4-1.7-1-1.7-1.1.2-1.2 1.1-.1 3.7-.1 5.8 0 2.8.1 3.7-.3 3.7-1.5 0-.9.5-1.4 1.1-1.2.6.2 1 .7 1 1.1zm21.4-.3c.3.5.1 1-.4 1-1.5 0-1.4 2.7.1 3.2 1.2.4.3 2.8-1.2 2.8-1.1 0-2.3-5.6-1.5-7 .8-1.3 2.2-1.3 3 0zm76.4 1.1c-.5 1.1-.7 2.4-.4 2.9.3.6-.1.7-1 .4-.9-.4-1.4-1.3-1-2.1.3-1.1.1-1.3-1-.9-.8.3-1.5.2-1.5-.3 0-1.3 1-1.9 3.5-1.9 2.1 0 2.3.3 1.4 1.9zM41 445.9c0 .6-.4 1.3-1 1.6-.5.3-1-.1-1-.9 0-.9.5-1.6 1-1.6.6 0 1 .4 1 .9zm6.3.5c1.1 2.7-6.1 7.4-8.2 5.3-.8-.8-1.5-.6-2.9.6-1.6 1.5-1.8 1.5-2.9-.2-.6-1-.8-2.2-.5-2.8.8-1.2 4.5-1.3 5.3-.2.3.5 2.2 0 4.2-1s3.3-2.1 3-2.5c-.4-.3-.2-.6.4-.6.6 0 1.3.6 1.6 1.4zM60 446c-2 1.3-3.3 1.3-2.5 0 .3-.6 1.4-1 2.3-1 1.5 0 1.5.2.2 1zm-6.2 1.2c-1.7 1-4.8 1-4.8 0 0-.5 1.4-.9 3-.9 2 0 2.6.3 1.8.9zm310.2 1.9c0 .5-.4.9-1 .9-.5 0-1-.7-1-1.6 0-.8.5-1.2 1-.9.6.3 1 1 1 1.6zm3-1.1c0 .5-.4 1-1 1-.5 0-1-.5-1-1 0-.6.5-1 1-1 .6 0 1 .4 1 1zm-160.6.6c2.3.9 2 2.4-.4 2.4-1.1 0-2-.7-2-1.5 0-1.7.2-1.8 2.4-.9zm114.4 2.9c.6 1.4 1 2.5.7 2.5-.7 0-3.5-3.2-3.5-4.1 0-1.8 1.7-.9 2.8 1.6zm112.3-1.5c.5 0 .9.5.9 1.1 0 1.5-4.3.7-4.8-1-.3-1 0-1.2 1.2-.8 1 .4 2.2.7 2.7.7zm-404.6 2c.3.5.1 1-.4 1-.6 0-1.1-.5-1.1-1 0-.6.2-1 .4-1 .3 0 .8.4 1.1 1zm73.5 0c0 .5-.7.7-1.5.4-.8-.4-1.5-.8-1.5-1 0-.2.7-.4 1.5-.4s1.5.4 1.5 1zm3 0c0 .5-.4 1-1 1-.5 0-1-.5-1-1 0-.6.5-1 1-1 .6 0 1 .4 1 1zm93 .9c0 .5-.7 1.4-1.5 2.1-1.2 1-1.5 1-1.5-.2 0-.8.3-1.8.7-2.1.9-1 2.3-.9 2.3.2zm9.4 1.6c-.4.8-1.1 1.5-1.6 1.5-.6 0-.5-.6.2-1.5.7-.8 1.4-1.5 1.6-1.5.2 0 .1.7-.2 1.5zm-136.8 2.2c-1 1-1.9-.5-1-1.8.6-1.1.8-1.1 1.2 0 .2.7.1 1.5-.2 1.8zm325.8-2.1c1.8.7 1.2 2.4-1 2.4-.8 0-1.4-.7-1.4-1.5 0-1.7.2-1.8 2.4-.9zm10.1 1.4c.4.6-.8 1-2.9 1-2.5 0-3.6.4-3.6 1.5 0 .8.4 1.5.9 1.5s1.1.8 1.4 1.7c.4 1 1.4 2.8 2.2 4 1.6 2.2 1.6 2.2-.9 1-1.4-.7-2.6-1.9-2.6-2.7 0-1.3-.1-1.3-1 0-.5.8-1 1.2-1.2 1-2.7-4.2-2.8-5.1-1.1-7.5 1.9-2.5 7.6-3.5 8.8-1.5zm15.1 1.9c2.1-.4 3.3.2 3.6 1.8.3 1.5.5 1.5 2.1-.2 1.8-1.7 1.9-1.7 4.7.4 3.4 2.5 4.4 2.7 3.6.6-.3-.8-.3-1.5.1-1.5 1.3 0 9.3 5.1 9.3 6 0 .5 2.1 2.4 4.8 4.1 2.6 1.8 5 3.7 5.4 4.3 1 1.4 1 2.6.1 2.5-2.7-.4-4.3.3-4.3 2 0 2.6-1.5 3.4-2.9 1.7-.7-.8-3.6-2.5-6.5-3.9-3-1.4-6.6-3.8-8-5.4-2.2-2.4-3.3-2.7-8.6-2.8-4.7 0-5.9-.3-5.5-1.4.3-.7-.3-1.9-1.2-2.6-1-.8-1.4-1.7-.9-2.2.5-.4 1.1-.2 1.3.4.8 2.3 2.5 1.4 1.7-1-1.6-5.3-1.6-5.3-.7-3.9.6.7 1.4 1.2 1.9 1.1zM229 458c.8.5 1.1 1.2.7 1.7-.5.4-1.2.1-1.7-.6-.7-1.2-1.2-1.2-3.3.2-2.7 1.8-4.3 1.2-2.6-1 1.3-1.5 4.7-1.7 6.9-.3zm185.5 1c1 1.1 1.5 2 1.1 2-1.4 0-4.6-2.1-4.6-3 0-1.6 1.6-1.1 3.5 1zm-385.5.4c0 .8-.4 1.8-1 2.1-.5.3-1-.3-1-1.4 0-1.2.5-2.1 1-2.1.6 0 1 .6 1 1.4zm4.9.5c.8 1.4.7 2-.4 2.5-1.1.4-1.5-.2-1.5-1.9 0-3 .6-3.2 1.9-.6zm-6.2 5.3c-.3.8-.6.5-.6-.6-.1-1.1.2-1.7.5-1.3.3.3.4 1.2.1 1.9zm45.1.3c-.3.3-.9-.2-1.2-1.2-.6-1.4-.5-1.5.5-.6.7.7 1 1.5.7 1.8zm323.6-.4c-.3.6 0 1.5.7 2 1.8 1.1 1.1 1.6-3.9 2.4-4.2.7-4.3.6-3-1.4.8-1.3 1.9-1.9 3-1.5 1.2.3 1.8 0 1.8-1 0-.9.5-1.6 1.1-1.6.5 0 .7.5.3 1.1zM75.5 467c.3.5.1 1-.4 1-.6 0-1.1-.5-1.1-1 0-.6.2-1 .4-1 .3 0 .8.4 1.1 1zm-47.8 2.2c-.3.8-.6.5-.6-.6-.1-1.1.2-1.7.5-1.3.3.3.4 1.2.1 1.9zm347-1c3.8.1 6.3 1.3 6.3 2.9 0 .5-1.1.9-2.4.9-1.3 0-2.7.6-2.9 1.2-.4 1-.8.9-1.7-.2-.9-1.1-1.3-1.2-1.7-.3-.7 2-2.1 1.5-3.9-1.3-1.5-2.1-1.5-2.7-.4-3.4.8-.5 1.7-.7 2.2-.4.4.2 2.4.5 4.5.6zm-314.7.6c0 1.3-1.2 2.2-2.2 1.6-1-.6-.1-2.4 1.3-2.4.5 0 .9.4.9.8zm-14 3.4c0 .6.7.8 1.5.4.9-.3 1.5 0 1.5.9 0 .8-.6 1.5-1.3 1.5-.7 0-1.8 1-2.5 2.1-1 1.6-1.7 1.8-2.5 1s-1.5-.7-2.8.5c-1.5 1.3-1.7 1.3-2.2 0-.4-.9-.2-1.8.4-2.2.6-.4.6-1.1-.2-2-.9-1.1-.8-1.8.5-3.3 1.5-1.6 2.3-1.8 4.7-.9 1.6.5 2.9 1.4 2.9 2zm339-.2c0 .5-.4 1-1 1-.5 0-1-.5-1-1 0-.6.5-1 1-1 .6 0 1 .4 1 1zm33.7.5c1.3.4 2 1.1 1.7 1.6-1 1.6-4.9.9-6.2-1.1-1.3-2.1-.8-2.2 4.5-.5zM58 474.1c0 .6-.4.7-1 .4-.5-.3-1-1.1-1-1.6 0-.6.5-.7 1-.4.6.3 1 1.1 1 1.6zm-22.3 2.4c-.7 1.8-4.7.8-4.7-1.2 0-.9.6-1.3 1.5-1 .8.4 1.8.1 2.2-.5.9-1.6 1.7.7 1 2.7zm394.8-1.2c.9.9 2.3 1.7 3.1 1.7.8 0 1.4.5 1.4 1 0 .7-1.4.9-3.7.4-5.3-.8-9.3-2.7-9.3-4.1 0-1.8 6.4-1 8.5 1zm-33.2 2.1c.4 1 .1 1.3-.8.9-.8-.3-1.2-.9-.9-1.4.7-1.2 1.1-1.1 1.7.5zm42.9 5.6c1.1 1 3.4 2.2 5 2.6 1.9.4 2.6 1 2.1 1.5-1 1-13.3-4-13.3-5.4 0-1.5 4.1-.6 6.2 1.3zm12.5 19.8c.2 4-1.3 3.3-1.9-.8-.3-1.9-.1-2.9.6-2.7.6.2 1.2 1.8 1.3 3.5z"/><path d="M401 73.1c0 .5.5.7 1 .4.6-.3 1-.8 1-1.1 0-.2-.4-.4-1-.4-.5 0-1 .5-1 1.1zm4 3.5c0 .8.5 1.2 1 .9.6-.3 1-1 1-1.6 0-.5-.4-.9-1-.9-.5 0-1 .7-1 1.6zm-83 10.3c0 .5.7 1.1 1.5 1.5.9.3 1.5 0 1.5-.9 0-.8-.7-1.5-1.5-1.5s-1.5.4-1.5.9zm4 .2c0 .5.5.7 1 .4.6-.3 1-.8 1-1.1 0-.2-.4-.4-1-.4-.5 0-1 .5-1 1.1zm-35.2 84.1c-11.4 13-22.9 27.4-30.6 38.2-8.4 11.8-18.8 29.3-17.9 30.2.3.3 4 0 8.4-.6 4.3-.6 12.5-1.3 18.3-1.7 5.8-.3 10.6-.6 10.7-.7.1-.1 1.6-6.7 3.2-14.7 3.2-15.3 10-43.1 12.5-51.4.8-2.7 1.4-5.1 1.2-5.2-.2-.2-2.8 2.5-5.8 5.9zM22 234.7c.1 1.6 3 4.6 3.7 3.8.5-.4.2-1-.4-1.2-.7-.3-1.3-1.1-1.3-1.9 0-.8-.4-1.4-1-1.4-.5 0-1 .3-1 .7zM355 398c0 .5.9 1 2.1 1 1.1 0 1.7-.5 1.4-1-.3-.6-1.3-1-2.1-1s-1.4.4-1.4 1zm-4 6.1c0 .5.5.7 1 .4.6-.3 1-.8 1-1.1 0-.2-.4-.4-1-.4-.5 0-1 .5-1 1.1zm-197 18.8c0 1.1.5 2.3 1 2.6.6.4 1-.5 1-1.9s-.4-2.6-1-2.6c-.5 0-1 .9-1 1.9zm2.5 5.1c.3.5.8 1 1.1 1 .2 0 .4-.5.4-1 0-.6-.5-1-1.1-1-.5 0-.7.4-.4 1zm2.5 1c0 .5.5 1 1 1 .6 0 1-.5 1-1 0-.6-.4-1-1-1-.5 0-1 .4-1 1zm6.5 0c.3.5.8 1 1.1 1 .2 0 .4-.5.4-1 0-.6-.5-1-1.1-1-.5 0-.7.4-.4 1zm155 1c-.3.5.1 1 1 1s1.3-.5 1-1c-.3-.6-.8-1-1-1-.2 0-.7.4-1 1zm8 6c.3.5 1.1 1 1.6 1 .6 0 .7-.5.4-1-.3-.6-1.1-1-1.6-1-.6 0-.7.4-.4 1zm7.5 4c0 .5.5 1 1.1 1 .5 0 .7-.5.4-1-.3-.6-.8-1-1.1-1-.2 0-.4.4-.4 1zm-263.7 7.2c-1.9 2.4-2.4 3.8-1.5 3.8.5 0 1.4-1.1 2-2.5 1.3-2.7 1-3.2-.5-1.3zm2.1 1c-.4.6-.3.8.3.5.6-.4 1.3 0 1.7.8.3.8 1.6 1.4 2.8 1.4 1.7-.1 1.8-.2.6-.6-1-.2-1.8-.8-1.8-1.3 0-1.3-2.9-2-3.6-.8zm157-1.5c1 1.1 3.6 1.2 3.6.2 0-.5-1-.9-2.2-.9-1.2 0-1.8.3-1.4.7zM34 451c0 .5.5 1 1.1 1 .5 0 .7-.5.4-1-.3-.6-.8-1-1.1-1-.2 0-.4.4-.4 1zm392.6 11.6c-2 2-2 2 .4 2 1.3 0 2-.7 2-1.8 0-2.2-.4-2.2-2.4-.2zM66.6 1.5c.4.9 0 1.5-1 1.5-2.3 0-2 .9.9 3.2C67.9 7.3 69 8.8 69 9.6c0 2.4 1.9 1.5 2.6-1.3.5-1.7.3-2.8-.4-3.1C70.5 5 70 3.7 70 2.4 70 .7 69.4 0 68 0c-1.3 0-1.8.5-1.4 1.5zm-7 1c.4.8.8 1.5 1 1.5.2 0 .4-.7.4-1.5S60.6 1 60 1c-.5 0-.7.7-.4 1.5zm24.6-.6c-1.4 1-1 4 .5 3.4.7-.3 2 0 2.8.7 2.7 2.3 3 .5.3-2.1-1.4-1.4-3.1-2.3-3.6-2zm51.3 1c-.3.5-.1 1.2.5 1.6.5.3 1-.1 1-.9 0-1.8-.6-2.1-1.5-.7zm73 .1c-1 1.7.1 2.3 3 1.6C213.9 4 215.1 2 213 2c-.5 0-1 .5-1 1.1 0 .8-.4.8-1.4 0-1-.9-1.6-.9-2.1-.1zm15.8-.3c-1.5.5-1.8 3.3-.4 3.3.8 0 2.5-3 1.9-3.5-.2-.1-.9 0-1.5.2zm168.7.1c0 1.5 3.6 4.2 5.4 4.2 1.3 0 1.1-.6-1.2-2.5-3.1-2.6-4.2-3-4.2-1.7zm-287 .9c0 .5 1.2 2.1 2.6 3.7 1.7 2 2.9 2.5 3.6 1.8 1.2-1.2.1-5.5-1.2-4.7-.5.3-1.1.1-1.5-.5-.7-1.2-3.5-1.4-3.5-.3zM140 5c0 .5.5 1 1 1 .6 0 1-.5 1-1 0-.6-.4-1-1-1-.5 0-1 .4-1 1zm29 0c-.8.5-1.2 1.1-.9 1.4.2.3 1.1.1 1.9-.4.8-.5 1.2-1.1.9-1.4-.2-.3-1.1-.1-1.9.4zm7 2.5c-1.2 1.4-.5 1.5 6.6 1.1 9.8-.5 9.4-.4 9.4-1.4 0-.4-3.3-.8-7.3-1-5.8-.2-7.6 0-8.7 1.3zm-145.4.4c-.3.5.1 1.1.9 1.5 1.5.6 2.9-.7 1.8-1.8-.9-.9-2.1-.8-2.7.3zm21.1 0c-1.7.6-1.7.8-.3 2 .8.7 2.3 1.4 3.3 1.5 1 .2 1.8.9 1.8 1.6 0 .7 1 1.6 2.3 2.1 1.8.7 2.2.5 2.2-1.2 0-1.5-.5-1.9-1.5-1.5-.9.3-1.5 0-1.5-1 0-.8.5-1.2 1-.9.6.3 1 .1 1-.5 0-.7-.7-.9-1.6-.6-.9.4-2.4 0-3.3-.8-.9-.8-2.4-1.1-3.4-.7zm202-.2c-.4.3-.7 1.1-.7 1.7 0 .6.5.5 1.2-.2.6-.6.9-1.4.7-1.7-.3-.3-.9-.2-1.2.2zM163 9c0 .5.5 1 1 1 .6 0 1-.5 1-1 0-.6-.4-1-1-1-.5 0-1 .4-1 1zm-49.8 3.1c.2.6.7 1 1.1 1 .4-.1 1.5-.1 2.5-.1 1.4 0 1.5-.2.2-1-2-1.3-4.3-1.3-3.8.1zM129 12c0 .5.7.7 1.5.4.8-.4 1.5-.8 1.5-1 0-.2-.7-.4-1.5-.4s-1.5.4-1.5 1zm114.5 0c-.4.6-.2 1.7.4 2.3 1.5 1.5 2.5.2 1.3-1.9-.7-1.2-1.1-1.3-1.7-.4zm-118.4 1.4c-1.6 1.9-1.1 2.9.8 1.7.7-.5 1.2-1.4.9-2.1-.3-.9-.8-.7-1.7.4zM109 15c0 .5.5 1 1 1 .6 0 1-.5 1-1 0-.6-.4-1-1-1-.5 0-1 .4-1 1zm-24.3 1.3c-.3.8-.1 1.8.6 2.1.9.3.9.5 0 .5-1.5.1-1.8 2.1-.4 2.1 1.3 0 1.9-2.2 1.1-4.4-.6-1.7-.7-1.7-1.3-.3zm158.8.7c-.3.6.1.7.9.4 1.8-.7 2.1-1.4.7-1.4-.6 0-1.3.4-1.6 1zM102 18.6c0 .8.5 1.2 1 .9.6-.4.8-1.1.5-1.6-.9-1.4-1.5-1.1-1.5.7zm190.1.4c-1.9.9-2.9 2-2.4 2.3 1.2.7 10.3-2.1 10.3-3.1 0-1.4-4.7-.9-7.9.8zm10.4-.9c-1.1 1.6-.1 1.9 1.3.3.7-.8.8-1.4.3-1.4s-1.3.5-1.6 1.1zM95 19.5c0 .8.5 1.5 1 1.5.6 0 1-.7 1-1.5s-.4-1.5-1-1.5c-.5 0-1 .7-1 1.5zm26.5.5c1 1.1 2 2 2.2 2 .2 0-.2-.9-.9-2s-1.7-2-2.2-2c-.5 0-.1.9.9 2zm-11.2.2c.2.7 1 1.3 1.7 1.3s1.5-.6 1.8-1.3c.2-.7-.5-1.2-1.8-1.2s-2 .5-1.7 1.2zM275 20c0 .5.6 1 1.4 1 .8 0 1.8-.5 2.1-1 .3-.6-.3-1-1.4-1-1.2 0-2.1.4-2.1 1zm84 0c0 .5.5 1 1.1 1 .5 0 .7-.5.4-1-.3-.6-.8-1-1.1-1-.2 0-.4.4-.4 1zm-356.4.7C1.5 21.8 2 23 3.5 23c.8 0 1.5-.4 1.5-.9 0-1.3-1.6-2.2-2.4-1.4zm124.4.2c0 .5.5 1.3 1 1.6.6.3 1 .2 1-.4 0-.5-.4-1.3-1-1.6-.5-.3-1-.2-1 .4zm9.7-.2c-1.2 1.2-.7 1.9 1.2 1.9 1.5 0 1.7-.3.9-1.3-1.2-1.5-1.3-1.5-2.1-.6zm146.8.3c.3.5.8 1 1.1 1 .2 0 .4-.5.4-1 0-.6-.5-1-1.1-1-.5 0-.7.4-.4 1zm78.5.1c0 .5.5.7 1 .4.6-.3 1-.8 1-1.1 0-.2-.4-.4-1-.4-.5 0-1 .5-1 1.1zm4.5-.2c-.6 1.1 4.9 7.1 6.6 7.1.5 0 .9.7.9 1.6 0 .8.5 1.2 1 .9 2.8-1.7-.5-8.5-4.1-8.5-.8 0-2-.5-2.6-1.1-.8-.8-1.3-.8-1.8 0zM130 22c0 .5.5 1 1 1 .6 0 1-.5 1-1 0-.6-.4-1-1-1-.5 0-1 .4-1 1zm192 0c0 .5.5 1 1.1 1 .5 0 .7-.5.4-1-.3-.6-.8-1-1.1-1-.2 0-.4.4-.4 1zm-300.3.6c-.8.8.1 2.4 1.4 2.4.5 0 .9-.7.9-1.5 0-1.5-1.2-2-2.3-.9zm61.4 1c0 1.1.3 1.4.6.6.3-.7.2-1.6-.1-1.9-.3-.4-.6.2-.5 1.3zm307.5-.3c.3 1 .9 1.5 1.2 1.2.3-.3 0-1.1-.7-1.8-1-.9-1.1-.8-.5.6zM26.3 26c-1.2 3.1-.6 3.9 1.5 1.8 1.3-1.3 1.6-4.8.4-4.8-.4 0-1.3 1.3-1.9 3zm84-.8c-3.5 2.5-5.8 5.7-4.8 6.6.4.4 1.4-.2 2.3-1.3 1-1.2 3.2-3 5-4 1.7-1.1 3.2-2.3 3.2-2.7 0-1.5-2.5-.8-5.7 1.4zM214 24c0 .5.5 1 1 1 .6 0 1-.5 1-1 0-.6-.4-1-1-1-.5 0-1 .4-1 1zm-89.1 2.2c-1.1 2.1-.8 2.2 2.6.6 3-1.4 3.2-2.4.4-2.4-1.1 0-2.5.8-3 1.8zM131 25c0 .5.5 1 1 1 .6 0 1-.5 1-1 0-.6-.4-1-1-1-.5 0-1 .4-1 1zm9-.3c0 .4 1.2 1.3 2.6 2 2.2 1 2.5.9 2.2-.5-.3-1.7-4.8-3.1-4.8-1.5zM102 26c0 .5.5 1 1 1 .6 0 1-.5 1-1 0-.6-.4-1-1-1-.5 0-1 .4-1 1zm57 0c0 .5.5 1 1 1 .6 0 1-.5 1-1 0-.6-.4-1-1-1-.5 0-1 .4-1 1zm-122 .6c-2.4.7-1.4 7.1 1.2 8 1.3.4 2.4.1 2.9-.7 1.4-2.3 1-3.2-.7-1.5-2.3 2.3-2.5 2-1.8-2.4.4-2.2.5-3.9.3-3.9-.2.1-1.1.3-1.9.5zm202.5.4c-.3.5-.1 1 .4 1 .6 0 1.1-.5 1.1-1 0-.6-.2-1-.4-1-.3 0-.8.4-1.1 1zm153.2 2.1c.4 1.3.8 1.8 1.1 1 .2-.7-.1-1.8-.6-2.3-.8-.8-.9-.4-.5 1.3zM402 28c0 .5.5 1 1 1 .6 0 1-.5 1-1 0-.6-.4-1-1-1-.5 0-1 .4-1 1zm-291 2c-.8.5-1.1 1.2-.8 1.6.4.3 1.4-.1 2.3-1 1.8-1.7.9-2.1-1.5-.6zm227 0c0 .5.5 1 1 1 .6 0 1-.5 1-1 0-.6-.4-1-1-1-.5 0-1 .4-1 1zm69.1 1.1c0 .9.6 2.2 1.4 2.9 1 .9 1.5.9 1.5.1 0-.6-.4-1.1-.9-1.1s-1.2-.8-1.4-1.8c-.4-1.4-.5-1.4-.6-.1zM118 32c0 .9 5.8 2.8 6.4 2.2 1.8-1.7.3-3.2-2.9-2.9-1.9.1-3.5.4-3.5.7zm126.5 0c-.3.5-.1 1 .4 1 .6 0 1.1-.5 1.1-1 0-.6-.2-1-.4-1-.3 0-.8.4-1.1 1zM448 33c-.8.5-1.2 1.2-.9 1.5.4.3 1.2-.1 1.9-1 1.4-1.7 1.1-1.9-1-.5zM33.2 35c0 1.4.2 1.9.5 1.2.2-.6.2-1.8 0-2.5-.3-.6-.5-.1-.5 1.3zm94.8-1c0 .5.5 1 1 1 .6 0 1-.5 1-1 0-.6-.4-1-1-1-.5 0-1 .4-1 1zm212.5-.1c-.3.5-.1 1.2.5 1.6.5.3 1-.1 1-.9 0-1.8-.6-2.1-1.5-.7zm24.2-.2c-.2.4 1.5 1.7 3.9 2.9s4.4 1.6 4.4 1.1c0-.6.7-.2 1.6.9.8 1 1.2 1.3.8.5-.6-1.1-.3-1.3 1.2-.6 1 .4 3.7.9 5.9 1.1 2.6.1 3 .1 1-.3-1.6-.2-4.1-1.5-5.5-2.9-2.6-2.4-12.3-4.4-13.3-2.7zM11.3 36.8c-1.8 1.4-1.9 1.9-.8 2.9 1.4 1.2 2 .8 3.9-2.4 1.1-1.9-.8-2.3-3.1-.5zm396.2 2.7c2.8 2.4 6.5 5.8 8.3 7.4 1.8 1.6 4.3 3.3 5.5 3.6 1.2.4 3.7 2.3 5.6 4.3 2 2.3 3 2.9 2.6 1.7-.4-1.1-.7-2.8-.7-3.7 0-1-.2-1.7-.6-1.7-2 .3-3-.3-4-2.6-.7-1.5-2-2.5-3.2-2.5-1.4 0-1.9-.4-1.4-1.2.4-.6.3-.8-.4-.5-.5.4-3.2-1-5.9-3.1-9.1-7.3-13.5-8.5-5.8-1.7zM25.6 36.9c-.3.5.1 1.1.9 1.5.8.3 1.5.1 1.5-.4 0-1.3-1.8-2.2-2.4-1.1zm155.3-.2c-.1.5-.1 1.2 0 1.6.1.4-.4 1.8-1 3-1 1.9-.8 1.8 1.5-.5 1.5-1.5 2.5-3.2 2.1-3.8-.7-1.2-2.4-1.4-2.6-.3zm15.9 0c-2.2.3-2.8 1-2.8 3 0 2.5.1 2.5 1.9.9 1.1-1 2.5-1.5 3-1.1.7.3 1.1-.2 1.1-1.4s-.1-2-.2-2c-.2.1-1.5.4-3 .6zm-32.1 1c-.4.3-.7 1.5-.7 2.7 0 2 0 2 1.5 0 .8-1 1.5-2.2 1.5-2.7 0-.9-1.4-.9-2.3 0zm65.3.3c0 .5.5 1 1 1 .6 0 1-.5 1-1 0-.6-.4-1-1-1-.5 0-1 .4-1 1zM2.6 39.6c-.8 2.1-.8 2.4.3 2.4.5 0 1.1-.9 1.4-2 .6-2.4-.8-2.7-1.7-.4zm202.9-.7c-.3.6-1.1.9-1.6.6-.5-.4-.9.3-.9 1.4 0 1.2.3 2.1.8 2.1 1 0 3.5-4.1 2.9-4.7-.3-.2-.8.1-1.2.6zm58.5 2.2c0 .5.5.7 1 .4.6-.3 1-.8 1-1.1 0-.2-.4-.4-1-.4-.5 0-1 .5-1 1.1zm-257.5.8c-.3.6-.1 1.8.4 2.8.5 1 1.2 3 1.5 4.4.4 2 1.2 2.6 3 2.6h2.5l-2.4-3.6C10.1 46.2 9 44 9 43.3c0-1.6-1.7-2.6-2.5-1.4zm250 .1c.3.5 1.1 1 1.6 1 .6 0 .7-.5.4-1-.3-.6-1.1-1-1.6-1-.6 0-.7.4-.4 1zm121.5-.5c0 .3.7 1.4 1.6 2.3 1.5 1.4 1.6 1.4 1.3-.3-.4-1.7-2.9-3.5-2.9-2zm9.6.4c-.4.7-.5 1.5-.2 1.8.9.9 1.9-.4 1.4-1.8-.4-1.1-.6-1.1-1.2 0zm-366.5.7c0 .5.4 1.8.8 2.8.6 1.7.8 1.7 1.4.3.3-.8-.1-2.1-.9-2.7-.8-.7-1.4-.9-1.3-.4zm318.9.3c0 .5.9 1.1 2.1 1.4 1.6.4 1.8.3.8-.9-1.3-1.6-2.9-1.9-2.9-.5zm25-.2c.1 1.1 9 5.2 9 4.2 0-.9-6.3-4.9-7.9-4.9-.6 0-1.1.3-1.1.7zm20 .7c0 .8.4 1.7.9 2 .5.4.7-.3.4-1.4-.6-2.3-1.3-2.6-1.3-.6zm-188.4.5c-.3.5.1 1.1.9 1.4.9.4 1.2.1.8-.9-.6-1.6-1-1.7-1.7-.5zM335 45.6c0 1.4.3 1.4 1.5.4.8-.7 1.5-1.4 1.5-1.6 0-.2-.7-.4-1.5-.4s-1.5.7-1.5 1.6zm25.1-.1c.5 2.1 5.9 2.9 5.9.8 0-.7-.6-1.3-1.4-1.3-.8 0-2.2-.3-3.1-.6-1.3-.5-1.6-.2-1.4 1.1zm-72.6.6c-1 1.5.3 2.5 1.6 1.2.7-.7.7-1.3.1-1.7-.6-.3-1.4-.1-1.7.5zm26 0c-.4.6-.5 1.3-.2 1.6.7.7 2.7-.6 2.7-1.8 0-1.2-1.7-1.2-2.5.2zm77.5 1c0 .5.5.7 1 .4.6-.3 1-.8 1-1.1 0-.2-.4-.4-1-.4-.5 0-1 .5-1 1.1zm-91 .8c0 .5.5 1.3 1 1.6.6.3 1 .2 1-.4 0-.5-.4-1.3-1-1.6-.5-.3-1-.2-1 .4zm-5 1.1c0 .5.5 1 1.1 1 .5 0 .7-.5.4-1-.3-.6-.8-1-1.1-1-.2 0-.4.4-.4 1zm0 3.5c0 .8.4 1.5.9 1.5s1.1-.7 1.5-1.5c.3-.9 0-1.5-.9-1.5-.8 0-1.5.7-1.5 1.5zm58.5-.5c.3.5.8 1 1.1 1 .2 0 .4-.5.4-1 0-.6-.5-1-1.1-1-.5 0-.7.4-.4 1zm5.1-.1c-.4.6-1.2.9-1.7.6-.5-.3-.6.1-.2 1 .5 1.3.7 1.4 1.4.3.7-1.1 1.1-1 1.9.2.5.8 1 1 1 .5 0-2-1.7-3.8-2.4-2.6zM421 55c0 .5.5 1 1 1 .6 0 1-.5 1-1 0-.6-.4-1-1-1-.5 0-1 .4-1 1zm10.5 1c.3.5 1.1 1 1.6 1 .6 0 .7-.5.4-1-.3-.6-1.1-1-1.6-1-.6 0-.7.4-.4 1zM409 58c-1 .6-1.2 1.2-.5 1.9s1.4.4 2.3-.9c1.3-2.1.6-2.5-1.8-1zm23 .7c0 .6 1.4 2.4 3 4.2 1.7 1.7 2.8 3.7 2.4 4.3-.4.7-.3.8.4.4s1.2-.2 1.2.3c0 .6.5 1.1 1.1 1.1.6 0 .9-.7.5-1.5-1.3-3.4 1.1-1.1 4.7 4.4 2.1 3.3 4.8 6.6 6 7.4 1.3.8 4.3 3.5 6.7 6 2.6 2.6 5.9 4.8 7.7 5.2 2.9.6 3.3.4 3.9-1.9.4-1.8 0-3.1-1.5-4.7-1.3-1.4-1.9-3-1.5-4.1.4-1.3-.2-2.1-2.3-2.9-1.5-.6-3-1-3.3-1-.3 0-1.3-.8-2.2-1.6-1.6-1.5-1.8-1.5-1.8 0 0 2.6-1.3 2-3.9-1.9-1.5-2.2-2.7-3.1-3.1-2.4-.5.8-2.3-.2-5.1-2.9-3.1-2.9-4.5-3.6-4.7-2.6-.4 1.7-2.2 2.1-2.2.5 0-.6-1.3-2.4-3-4.2-1.6-1.7-3-2.6-3-2.1zm-.5 6.3c.3.5.8 1 1.1 1 .2 0 .4-.5.4-1 0-.6-.5-1-1.1-1-.5 0-.7.4-.4 1zM.5 67c.3.5.8 1 1.1 1 .2 0 .4-.5.4-1 0-.6-.5-1-1.1-1-.5 0-.7.4-.4 1zm7.1 5.9c-.8 1.3.3 6.1 1.5 6.1.5 0 .6-1.5.2-3.3-.7-3.8-.9-4.1-1.7-2.8zm3.9.1c.3.5.8 1 1.1 1 .2 0 .4-.5.4-1 0-.6-.5-1-1.1-1-.5 0-.7.4-.4 1zm7.9.4c-.3.8-.4 2.3-.2 3.3.3 1.1.6.6.9-1.5.6-3.4.2-4.2-.7-1.8zM429 76c0 .5 1.1 1 2.5 1s2.5-.5 2.5-1c0-.6-1.1-1-2.5-1s-2.5.4-2.5 1zM11 87.5c0 1.9.5 3.5 1 3.5.6 0 1-1.6 1-3.5s-.4-3.5-1-3.5c-.5 0-1 1.6-1 3.5zm461 .5c-1.1.7-1.2 1.3-.1 3.6.9 2.1 1.4 2.5 2.1 1.4.7-1.2 1.1-1.2 2.5 0s1.8 1.2 2.5 0c1-1.6.4-3-1.2-3-.6 0-1.9-.7-2.7-1.4-1.1-1-2.2-1.2-3.1-.6zM32.6 90.9c-.4.7-.5 1.5-.2 1.8.9.9 1.9-.4 1.4-1.8-.4-1.1-.6-1.1-1.2 0zm451.4.6c.7.9 1.5 1.3 1.7 1.1.7-.7-.7-2.6-1.9-2.6-.6 0-.6.6.2 1.5zm-456 .2c0 .5.5 1.5 1 2.3.8 1.2 1 1.1 1-.8 0-1.2-.4-2.2-1-2.2-.5 0-1 .3-1 .7zm-11 3.4c0 .5.5.7 1 .4.6-.3 1-.8 1-1.1 0-.2-.4-.4-1-.4-.5 0-1 .5-1 1.1zm18-.1c0 .5.5 1 1 1 .6 0 1-.5 1-1 0-.6-.4-1-1-1-.5 0-1 .4-1 1zm-12 4c0 1.6.4 3 .9 3s.9-1.4.9-3c-.1-1.7-.5-3-1-3-.4 0-.8 1.3-.8 3zm-13-1c0 .5.5 1 1.1 1 .5 0 .7-.5.4-1-.3-.6-.8-1-1.1-1-.2 0-.4.4-.4 1zm-7 3c0 .5.5 1 1.1 1 .5 0 .7-.5.4-1-.3-.6-.8-1-1.1-1-.2 0-.4.4-.4 1zm.2 12c0 1.4.2 1.9.5 1.2.2-.6.2-1.8 0-2.5-.3-.6-.5-.1-.5 1.3zm496.5.7c-.4.3-.7 1.1-.7 1.7 0 .6.5.5 1.2-.2.6-.6.9-1.4.7-1.7-.3-.3-.9-.2-1.2.2zM7.5 116c-.3.6.1.7.9.4 1.8-.7 2.1-1.4.7-1.4-.6 0-1.3.4-1.6 1zM.4 129.5c.2 6.6.6 13.5 1 15.4.3 2 .1 4-.5 4.7-1.2 1.5-.5 7.5 1.4 10.9 1.3 2.3 1.3 2.6 1.5 8.3.1 2.4.6 4.1 1.1 3.8 1.6-1 1.9-6 .5-8.8-.8-1.6-1.4-5.3-1.3-9 .1-3.5.3-5.5.6-4.6.2 1 .9 1.8 1.4 1.8 1.1 0 .3-3.7-1.2-5.6-1.1-1.4 1.2-6.5 2.8-6 .6.3 1.4-.2 1.7-1 .9-2.5.7-2.5-2-.8-1.4 1-2.9 1.3-3.4.8-1.4-1.6-2.3-13.1-1-13.9.8-.5.7-1.1-.3-2.3-.8-1-1.7-2.6-2-3.7-.3-1.1-.4 3.4-.3 10z"/><path d="M4.6 127.4c-.8 3.2-.1 4.5 1.6 2.8.8-.8.8-1.8.1-3.4-1-2.2-1-2.2-1.7.6zm486.4-1c0 .2.8 1 1.8 1.7 1.5 1.3 1.6 1.2.3-.4s-2.1-2.1-2.1-1.3zm4.8 2.7c.6.7 1.2 2.2 1.2 3.3 0 1.2 1.2 3.9 2.6 6.1 2.7 4.3 2.7 2.9-.3-4.9-1-2.7-2.5-5.1-3.3-5.4-1.2-.4-1.3-.2-.2.9zm-1.1 8.3c-.4 1-.1 1.3.9.9 1.5-.6 1.9-2.3.5-2.3-.5 0-1.1.7-1.4 1.4zm-40.6 4.2c0 1.1.3 1.4.6.6.3-.7.2-1.6-.1-1.9-.3-.4-.6.2-.5 1.3zm24.9-.5c0 .5.5.7 1 .4.6-.3 1-.8 1-1.1 0-.2-.4-.4-1-.4-.5 0-1 .5-1 1.1zM6.7 157.7c-.4.3-.7 1.3-.7 2.2.1 1.3.3 1.3 1.1-.2 1.1-1.9.8-3.3-.4-2zm4 2c-1.2 1.2-.7 2.2.8 1.7.8-.4 1.5-1 1.5-1.5 0-1.1-1.4-1.2-2.3-.2zm484.3.2c0 .5.5 1.3 1 1.6.6.3 1 .2 1-.4 0-.5-.4-1.3-1-1.6-.5-.3-1-.2-1 .4zm2.7 2.8c-.4.3-.7 1.1-.7 1.7 0 .6.5.5 1.2-.2.6-.6.9-1.4.7-1.7-.3-.3-.9-.2-1.2.2zM7.5 169c.3.5.8 1 1.1 1 .2 0 .4-.5.4-1 0-.6-.5-1-1.1-1-.5 0-.7.4-.4 1zm470 1c.3.5.8 1 1.1 1 .2 0 .4-.5.4-1 0-.6-.5-1-1.1-1-.5 0-.7.4-.4 1zm22.6 1.6c0 1.1.3 1.4.6.6.3-.7.2-1.6-.1-1.9-.3-.4-.6.2-.5 1.3zm-13.5 3.1c-.6 1.4-.5 1.5.5.6.7-.7 1-1.5.7-1.8-.3-.3-.9.2-1.2 1.2zm11.4.2c0 1.2.5 2.1 1 2.1.6 0 1-.6 1-1.4 0-.8-.4-1.8-1-2.1-.5-.3-1 .3-1 1.4zm-496 1c0 .5 1 1.1 2.3 1.5 3.6.9 4.2.7 2.1-.9s-4.4-1.9-4.4-.6zm7 4c0 1.1.5 2.3 1 2.6.6.3 1-.3 1-1.4 0-1.1-.4-2.3-1-2.6-.5-.3-1 .3-1 1.4zm479 0c0 .6.5 1.3 1 1.6.6.3 1-.1 1-.9 0-.9-.4-1.6-1-1.6-.5 0-1 .4-1 .9zM.5 181c.3.5.8 1 1.1 1 .2 0 .4-.5.4-1 0-.6-.5-1-1.1-1-.5 0-.7.4-.4 1zm4.2 1.5c-.4.8-.2 1.7.3 2 .6.4 1-.3 1-1.4 0-2.5-.6-2.7-1.3-.6zm487.9 0c.4.8.8 1.5 1 1.5.2 0 .4-.7.4-1.5s-.4-1.5-1-1.5c-.5 0-.7.7-.4 1.5zM9.2 186.3c.2 1.2.9 2.1 1.7 1.9.7-.1 1.9.3 2.7.9 1.6 1.3 1.6 1.3 1.9-1.9.2-1.8 0-2-1.1-1.1-.9.7-1.4.8-1.4.1 0-.5-.9-1.2-2.1-1.5-1.6-.4-2-.1-1.7 1.6zm498.4-.7c-.9 2.4-.7 2.8.9 1.4 1.7-1.4 2-3 .6-3-.5 0-1.2.7-1.5 1.6zM6.2 191c0 1.9.2 2.7.5 1.7.2-.9.2-2.5 0-3.5-.3-.9-.5-.1-.5 1.8zm504.2-2.1c-.5.5-1.8 1.1-2.9 1.4l-2 .5 2 .1c2.2.1 5.2-1.5 4.4-2.3-.3-.3-1-.2-1.5.3zM2.8 199.6c-1 1 .4 4.4 1.8 4.4 1.5 0 1.7-1 .8-3.4-.6-1.6-1.6-2-2.6-1zm10.8 3.9c-.6 1.6.2 4.5 1.3 4.5.3 0 .6-1.4.7-3 .1-3.2-1-4-2-1.5zm488.4 0c-.7.9-1 1.8-.7 2.1.3.3 1-.4 1.7-1.5 1.3-2.5.8-2.7-1-.6zm8 .7c-1.2 2.2-1.2 2.2.6.6 1-1 1.5-2 1.2-2.4-.4-.3-1.2.5-1.8 1.8zm1.1 7.4c0 1.1.3 1.4.6.6.3-.7.2-1.6-.1-1.9-.3-.4-.6.2-.5 1.3zm-507 21c1.3 1.6 2.9 1.9 2.9.5 0-.5-.9-1.1-2.1-1.4-1.6-.4-1.8-.3-.8.9zm486.3 8.5c-.8 1.4 1.4 1.9 2.5.6.8-1 .7-1.4-.5-1.4-.8 0-1.7.4-2 .8zm5.3 33.6c-.4.3-.7 1.1-.7 1.7 0 .6.5.5 1.2-.2.6-.6.9-1.4.7-1.7-.3-.3-.9-.2-1.2.2zm2.8 4.3c-.3.5.1 1 1 1s1.3-.5 1-1c-.3-.6-.8-1-1-1-.2 0-.7.4-1 1zm-487.1 7.5c-2.3 4.9-1.4 5.2 1.4.4 1.2-2.1 1.8-3.9 1.3-3.9-.6 0-1.8 1.6-2.7 3.5zm496.8.8c-1.8 4.9-1.5 5.6.8 1.9 2.1-3.4 2.5-5.2 1.2-5.2-.4 0-1.3 1.5-2 3.3zm-501 4.8c.2.7 1 1.5 1.7 1.7.8.3 1.2-.1.9-.9-.2-.7-1-1.5-1.7-1.7-.8-.3-1.2.1-.9.9zm493.8-.5c0 .9 3.1 3.7 3.6 3.2.9-.9-.8-3.8-2.2-3.8-.8 0-1.4.3-1.4.6zm-2 3.9c0 .8.5 1.5 1 1.5.6 0 1-.7 1-1.5s-.4-1.5-1-1.5c-.5 0-1 .7-1 1.5zm-493.3.1c-.8.8.1 2.4 1.4 2.4.5 0 .9-.7.9-1.5 0-1.5-1.2-2-2.3-.9zm.8 10.9c.4 10.6.7 11.5 1.5 5.5.5-3 .5-5.9 0-6.5-.4-.5-1-2.1-1.3-3.5-.2-1.4-.3.6-.2 4.5zM501 306c-.9 1.6-1.4 1.9-2 1.1-.5-.9-.9-.8-1.4.4-.6 1.7 0 3.5 1.2 3.5.9 0 4.4-6.1 3.8-6.7-.2-.3-1 .5-1.6 1.7zm8 0c0 .5.5 1 1.1 1 .5 0 .7-.5.4-1-.3-.6-.8-1-1.1-1-.2 0-.4.4-.4 1zm-13.3 8.7c-.4.3-.7 1.1-.7 1.7 0 .6.5.5 1.2-.2.6-.6.9-1.4.7-1.7-.3-.3-.9-.2-1.2.2zm-493 11c-.4.3-.7 1.1-.7 1.7 0 .6.5.5 1.2-.2.6-.6.9-1.4.7-1.7-.3-.3-.9-.2-1.2.2zm8.8 3.5c-.4.9-.8 4-1 7-.3 6.7-.3 6.6-1.5 4.8-.9-1.3-1.1-1.3-2 0-1.3 2-1.2 4.7.2 5.6.7.5.9.2.5-.9-.3-.9 0-1.8.9-2.1 1-.4 1.4.3 1.4 2.5 0 1.7.4 2.8.9 2.4.5-.3 1-3.9 1-8.1 0-4.2.5-8.1 1-8.8.6-.7.6-1.7.1-2.6-.8-1.2-1-1.2-1.5.2zm463.5 3.7c0 .5.7 1.1 1.4 1.4 1 .4 1.3.1.9-.9-.6-1.5-2.3-1.9-2.3-.5zm13 5.1c0 .5.7 1 1.6 1 .8 0 1.2-.5.9-1-.3-.6-1-1-1.6-1-.5 0-.9.4-.9 1zm-3 6.4c0 .2.7 1.7 1.5 3.2 1.5 2.9 2.2 1.3.9-2-.5-1.4-2.4-2.3-2.4-1.2zm1 9.7c1.2 4 2 4.9 2 2.1 0-2.6-1-5.2-2-5.2-.5 0-.5 1.4 0 3.1zm-4.7 4.6c-.7.2-1.3.9-1.3 1.4 0 1.4 2.6 1 4-.6 1-1.2 1-1.5-.1-1.4-.8 0-2 .3-2.6.6zM19 364c0 .5.5 1 1.1 1 .5 0 .7-.5.4-1-.3-.6-.8-1-1.1-1-.2 0-.4.4-.4 1zm463.6 1.9c-1.5 1.6-1.3 2 1.5 4.7 2.8 2.6 3.1 2.7 4 1.1.8-1.4 1.4-1.5 3.1-.6 1.8.9 2.4.8 3.5-.7 1.3-1.8 1.9-4.3.6-3.1-.3.4-1.3.1-2.1-.6-1.3-1-1.5-.9-.9.5.9 2.4-.4 2.2-4.6-.6-3.3-2.3-3.6-2.3-5.1-.7zM14 368c0 .8-.3 2.6-.7 4-.6 2.3-.6 2.4 1 .8 1.3-1.2 1.5-2.2.8-4-.6-1.3-1-1.6-1.1-.8zm484.7-.3c-.4.3-.7 1.1-.7 1.7 0 .6.5.5 1.2-.2.6-.6.9-1.4.7-1.7-.3-.3-.9-.2-1.2.2zM2 368.7c0 .5.9 1.8 2 2.8 1.1 1 2 1.4 2 .8 0-.5-.9-1.8-2-2.8-1.1-1-2-1.4-2-.8zm7.5 3.3c-.3.5.1 1 .9 1 .9 0 1.6-.5 1.6-1 0-.6-.4-1-.9-1-.6 0-1.3.4-1.6 1zm-7 16c-.8 1.3 2.2 7 5.1 9.7 2.2 2 4.3 1.5 2.9-.7-.3-.6 0-1 .8-1s1.8-.7 2.1-1.6c1-2.6.7-2.9-.9-.8-1.4 1.8-1.6 1.7-5.4-2.3-2.2-2.4-4.3-3.8-4.6-3.3zm10.5-.1c0 .5.5 1.3 1 1.6.6.3 1 .2 1-.4 0-.5-.4-1.3-1-1.6-.5-.3-1-.2-1 .4zm8 3c0 .6.5 1.3 1 1.6.6.3 1-.1 1-.9 0-.9-.4-1.6-1-1.6-.5 0-1 .4-1 .9zm476.2 7.3c-1.4 1.4-1.6 2.8-.3 2.8.9 0 2.4-3 1.8-3.6-.2-.2-.9.2-1.5.8zm3.8 8.1c0 2.3.4 3.6 1 3.2 1.3-.8 1.3-3.5 0-5.5-.7-1.1-1-.5-1 2.3zm-7.4-.1c-.5 1-1.2 1.6-1.6 1.3-1.6-1-2.1 1.4-.8 3.5 1.1 1.7 1.1 2.2-.1 2.9-.9.6-1 1.1-.2 1.5 1.3.8 4.3-6.1 3.8-8.9-.3-1.8-.4-1.8-1.1-.3zm4.6 3c-1.6 1.6-1.5 2.8.3 2.8.8 0 1.5-.9 1.5-2 0-2.3-.2-2.4-1.8-.8zm2.8 3c0 .9-.9 2-2 2.3-2.2.7-2.6 2.1-.8 2.7 2 .7 5.3-4.1 3.9-5.5-.8-.8-1.1-.7-1.1.5zM13 442c0 .5.5 1 1.1 1 .5 0 .7-.5.4-1-.3-.6-.8-1-1.1-1-.2 0-.4.4-.4 1zm480.5 0c.3.5.8 1 1.1 1 .2 0 .4-.5.4-1 0-.6-.5-1-1.1-1-.5 0-.7.4-.4 1zm-355 9c-1 1.1-1.6 2.2-1.4 2.5.7.6 4.9-2.4 4.9-3.6 0-1.5-1.6-1-3.5 1.1zm-16.5.5c0 .9-.9 1.5-2.5 1.5-3.3 0-3.2 1.4.3 2.9 1.5.7 2.4 1 2 .6-1-1 2-3.8 3.2-3 1.5.9 1.2-.4-.4-2.1-1.9-1.8-2.6-1.8-2.6.1zm139.5.5c.3.5.8 1 1.1 1 .2 0 .4-.5.4-1 0-.6-.5-1-1.1-1-.5 0-.7.4-.4 1zm67.5.6c0 .8 1.2 1.9 2.6 2.4 1.4.6 2.8 1.9 3.1 2.9.3 1.4 1.8 2.1 4.9 2.6 2.4.3 4.2.9 4 1.3-.2.4 1 .8 2.7.9 2.2.2 2.7 0 1.8-.6-.9-.6-1.1-1.5-.6-2.7.8-1.8.8-1.8 1.2-.2.3 1 1.3 1.8 2.4 1.8 1.1 0 1.9-.7 1.9-1.8.1-1.5.2-1.5 1.5.2 1.2 1.6 1.5 1.7 1.5.4 0-2.5-2.2-3.5-7-3.3-3.4.2-4.8-.2-5.8-1.6-.9-1.4-2.5-1.9-5.6-1.9-2.3 0-4.6-.3-5-.7-1.3-1.3-3.6-1.1-3.6.3zm17 6.4c0 .5-.4 1-1 1-.5 0-1-.5-1-1 0-.6.5-1 1-1 .6 0 1 .4 1 1zm1.5-7c.4.6 1.3.9 2 .6.8-.3 1.6-.1 1.9.5.2.5.3.4.2-.3-.1-.7-1.3-1.5-2.5-1.6-1.6-.3-2.1 0-1.6.8zm-177.2 1.3c-2.3 1-3 3.1-1.5 4.1.8.4 8.2-3.9 8.2-4.8 0-.7-4.6-.3-6.7.7zm95.1 1.2c-.3 1.3-1.5 2.7-2.5 3-1 .4-1.9 1.1-1.9 1.6 0 .6-.6.7-1.2.3-1-.6-1-.4 0 .8 1.1 1.4 1 1.8-.7 2.8-2.7 1.4-2.7 3.4-.1 2.7 1.1-.3 2.3-.1 2.6.5.4.6 1 .5 1.5-.3.8-1.1 1.1-1 2 .4.6 1.1 2.6 2.5 4.5 3.3 4 1.7 4.4 1.7 4.4.4 0-.6-.7-1-1.5-1s-1.5-.5-1.5-1c0-.6-.9-1-2.1-1-1.2 0-1.9-.5-1.6-1.3.2-.6 1.1-1.1 2.1-.9.9.2 1.6-.2 1.6-.8 0-.5-2.2-1-4.9-1-4.5 0-4.9-.2-4.4-2.1.5-1.6 1.1-1.9 3.1-1.4 2.2.5 2.4.4 1.8-2-.4-1.4-.2-2.5.4-2.5.5 0 1-.7 1-1.5 0-2.4-1.9-1.7-2.6 1zm-152.4-.1c0 .9.5 1.6 1 1.6.6 0 1-.4 1-.9 0-.6-.4-1.3-1-1.6-.5-.3-1 .1-1 .9z"/><path d="M269.4 453.7c.4.7.2 2.1-.4 3.2-.5 1.1-.7 2.2-.2 2.4 1.2.8 5.2-3 5.2-5 0-1.5-.2-1.5-.9-.4-.8 1.3-1.2 1.3-2.7 0-1.1-.8-1.5-.9-1-.2zm-17.3 1.3c-1 .5-.4 1 1.7 1.5 3.4.7 7.2-.1 7.2-1.6 0-1.3-2.8-1.1-3.2.2-.3.9-.9.9-2.4.1-1.1-.6-2.6-.7-3.3-.2zm103.9-.1c0 .6.4 1.3 1 1.6.6.3.7-.1.4-.9-.7-1.8-1.4-2.1-1.4-.7zm-175 2.5c-1.3 3.6-1.2 5.6.2 3.1.6-1.1 1.6-2.3 2.2-2.7.8-.5.7-1.1-.1-1.9-1-1-1.5-.6-2.3 1.5zm-45-.6c0 .4 1.2 1.5 2.6 2.6 2.4 1.7 2.6 1.7 2.2.1-.3-1.7-4.8-4.2-4.8-2.7zm104 1.3c0 .6.8.8 1.9.4 1.1-.3 2.2-.1 2.6.5.3.6 1.1.8 1.6.4.5-.3.7-1 .4-1.5-.8-1.3-6.5-1.1-6.5.2zm38 0c0 .9 1.1 2.1 2.5 2.7 2.6 1.2 3.1.7 1.5-1.8-.8-1.3-1-1.3-1-.1 0 1.1-.4.9-1.5-.5-1.2-1.5-1.4-1.6-1.5-.3zm11.5-.1c-.3.5-.1 1 .4 1 .6 0 1.1-.5 1.1-1 0-.6-.2-1-.4-1-.3 0-.8.4-1.1 1zm39.5.1c0 .6-1.3.8-3.5.5-1.9-.3-3.5-.2-3.5.3 0 1.6 3 3.3 4.6 2.7.9-.4 2.3-.1 3.1.6 1.2 1 1.3.7.9-1.8-.4-1.6-.3-2.3 0-1.7.8 1.8 2.4 1.6 2.4-.2 0-.8-.9-1.5-2-1.5s-2 .5-2 1.1zm-92 .9c0 .5.5 1 1 1 .6 0 1-.5 1-1 0-.6-.4-1-1-1-.5 0-1 .4-1 1zm18.5-.1c-.3.5-.1 1.2.5 1.6.5.3 1-.1 1-.9 0-1.8-.6-2.1-1.5-.7zm19.3-.1c-1 .2-1.8.8-1.8 1.3 0 1.1 1.1 1.1 3-.1 1.8-1.1 1.1-1.8-1.2-1.2zm84.4.2c.5 1.6 6.8 2.6 6.8 1.1 0-.6-.9-1.1-1.9-1.1-1.1 0-2.7-.3-3.7-.7-1.1-.4-1.5-.2-1.2.7zm-215.2.5c0 1.2 10.3 10.5 11.6 10.5.8 0 1.3.4 1 .8-.3.5.1.9.9.9s1.5-.6 1.5-1.2c0-1.4-3.2-4.5-4.7-4.5-.6 0-2.8-1.6-4.9-3.5-3.4-3.2-5.4-4.3-5.4-3zm173.3 1c.5 1.4 2.9 1.3 3.4-.2.3-.7-.4-1.1-1.6-1-1.2.1-2 .6-1.8 1.2zm-66.1.8c-.7.8-.7 1.8-.2 2.7 1 1.7 1.5 1.3 2.4-1.8.8-2.4-.5-3-2.2-.9zm-99.2.6c0 .6.5 1.3 1 1.6.6.3 1-.1 1-.9 0-.9-.4-1.6-1-1.6-.5 0-1 .4-1 .9zm77.3 1.1c-2 .9-3.3 2.2-3.3 3.4 0 1.6.3 1.7 1.2.8 1.7-1.7 3.6-1.5 3.4.4 0 .9.5 1.9 1.2 2.1.9.4 1.1-.2.7-1.9-.5-1.9-.1-2.7 2-3.6 3.2-1.5 5.5-1.5 5.5-.2 0 1.9-.5 2.5-1.7 2.2-.7-.2-1.3.6-1.3 1.8 0 1.1.5 2 1 2 .6 0 1-.5 1-1 0-.6.6-1 1.4-.8 1.6.3 5.6-3.8 5.6-5.8 0-.7-.9-1.2-2-1.1-1.1.1-2 .5-2 1 0 .4-.5.5-1.1.1-2.1-1.2-8.3-.9-11.6.6zm103.3-1.2c-.9 1.5 1.8 3.2 4.2 2.5 2.4-.6 3-2.3.8-2.3-.8 0-2.1-.3-2.9-.6-.8-.3-1.8-.1-2.1.4zm41.7.3c-1.3.5-2.3 1.1-2.3 1.3 0 .3.7.3 1.5 0 .9-.4 1.5-.1 1.5.7 0 1 .3 1 1.1.2 1.8-1.8.7-3.2-1.8-2.2zm-281.8.8c-.8 1.3 1 2.2 2.9 1.5.9-.3 2.3-.1 3.2.6 1 .9 1.8 1 2.5.3s0-1.4-2.2-2.2c-3.9-1.3-5.6-1.4-6.4-.2zm38.1.6c.4.8 1 1.5 1.5 1.5.4 0 .6-.7.3-1.5-.4-.8-1-1.5-1.5-1.5-.4 0-.6.7-.3 1.5zm24.6-.4c.4 1.3 8.2 5.8 10.1 5.9 1.8.1.4-2-2.5-3.8-4.7-2.8-8.1-3.8-7.6-2.1zm10.5 0c.7.7 1.5 1 1.8.7.3-.3-.2-.9-1.2-1.2-1.4-.6-1.5-.5-.6.5zm108 .3c-.9 2.4-1 2.3 1.3 2.9 1.1.3 2 .1 2-.3 0-.5.3-1.5.6-2.4.3-.9.1-1.6-.6-1.6-.6 0-.8.4-.5 1 .3.5.2 1-.4 1-.5 0-1.1-.5-1.3-1.2-.3-.7-.7-.5-1.1.6zm79.3-.4c0 .5.5 1 1 1 .6 0 1-.5 1-1 0-.6-.4-1-1-1-.5 0-1 .4-1 1zm-157 .9c0 .5.5 1.3 1 1.6.6.3 1 .2 1-.4 0-.5-.4-1.3-1-1.6-.5-.3-1-.2-1 .4zm18.2 1.1c0 1.4.2 1.9.5 1.2.2-.6.2-1.8 0-2.5-.3-.6-.5-.1-.5 1.3zm105-.3c.2 1 .8 1.8 1.3 1.8.6 0 1.6.4 2.3.9 1.8 1.1 2.5.2 1.7-2.3-.8-2.7-5.8-3-5.3-.4zm-184.8.4c-.4.7.1 1.6 1 2.1s1.6 1.8 1.6 2.8c0 1.1.4 2 .9 2 .6 0 .9-1.8.8-4-.1-3.1-.5-4-1.9-4-.9 0-2 .5-2.4 1.1zm145.1-.1c.3.5 1 1 1.6 1 .5 0 .9-.5.9-1 0-.6-.7-1-1.6-1-.8 0-1.2.4-.9 1zM14 466c0 .8.5 2.2 1 3 .9 1.3 1 1.3 1 0 0-.8-.5-2.2-1-3-.9-1.3-1-1.3-1 0zm91.4 1.5c-.4 1.4-.4 2.9 0 3.2.3.4.6-.3.6-1.3 0-1.1.5-2.5 1.2-3.2.9-.9.9-1.2 0-1.2-.6 0-1.4 1.1-1.8 2.5zm13.1-1.5c.3.6-.4 1.4-1.6 1.8l-2.3.9 2.4.6c2.8.7 2.6.9 3.4-2.1.6-1.6.3-2.2-.9-2.2-.9 0-1.3.5-1 1zm98.5.2c0 .4.9.8 2 .8s2-.4 2-.9c0-.6-.9-.9-2-.8-1.1.1-2 .5-2 .9zm29 .3c0 .8-.9 1.9-2 2.5-2.2 1.2-2.8 3.5-.6 2.7 1-.4 1.2 0 .9 1.4-.4 1.6 0 1.9 2.3 1.8 1.9 0 2.4-.3 1.4-.7-1.5-.7-2.2-6.2-.8-6.2.4 0 .8.5.8 1.1 0 .5.5.7 1 .4 1.5-.9 1.2-1.9-1-3.3-1.7-1-2-1-2 .3zm38.7-.8c-1.2 1.2-.7 2.2.8 1.7.8-.4 1.5-1 1.5-1.5 0-1.1-1.4-1.2-2.3-.2zm30.3.3c0 .5.5 1 1 1 .6 0 1-.5 1-1 0-.6-.4-1-1-1-.5 0-1 .4-1 1zm31 0c0 .5.5 1 1.1 1 .5 0 .7-.5.4-1-.3-.6-.8-1-1.1-1-.2 0-.4.4-.4 1z"/><path d="M234 467.9c0 2.5.6 2.7 1.3.6.4-.8.2-1.7-.3-2-.6-.4-1 .3-1 1.4zm101-.9c0 .3.9 1.1 2 1.8 1.7 1.1 2 1 2-.7 0-1.4-.6-1.9-2-1.8-1.1.1-2 .4-2 .7zm-244 1c0 .5.5 1 1 1 .6 0 1-.5 1-1 0-.6-.4-1-1-1-.5 0-1 .4-1 1zm100.8.2c.7.7 1.6 1.3 2 1.3.4.1 1.7.6 3 1.3 1.2.7 2.7 1 3.2.7.6-.3 1 .2 1 1.1 0 1 .3 1.5.6 1.1 1-1-.7-4.8-1.9-4.4-.7.2-3-.2-5.2-1-3.1-1.1-3.7-1.1-2.7-.1zm61.2-.2c0 .5.4 1 .9 1 .6 0 1.3-.5 1.6-1 .3-.6-.1-1-.9-1-.9 0-1.6.4-1.6 1zm50.8-.4c-.4.3-.4 1.2-.1 2 .3.8-.1 2.1-.8 3-1.2 1.4-1.1 1.6.5 1.3 1.1-.2 2-1.1 2.2-1.9.1-.8.3-2.1.5-2.9.4-1.4-1.3-2.6-2.3-1.5zm46.3 1.6c-1.7 2.7-.9 3.3 1.3.9 1-1 1.3-2.1.9-2.4-.5-.3-1.5.3-2.2 1.5zm-272.1.4c0 .8.5 1.2 1 .9.6-.3 1-1 1-1.6 0-.5-.4-.9-1-.9-.5 0-1 .7-1 1.6zm100-.7c0 .6.5 1.3 1 1.6.6.3 1-.1 1-.9 0-.9-.4-1.6-1-1.6-.5 0-1 .4-1 .9zm98.5.1c-.3.5-.1 1 .4 1 .6 0 1.1-.5 1.1-1 0-.6-.2-1-.4-1-.3 0-.8.4-1.1 1zm35 1.7c.8 3.1 1.3 3.9 2 3.1.9-.9-.6-5.8-1.7-5.8-.6 0-.7 1.1-.3 2.7zM358 469c0 .5.7 1 1.5 1s1.5-.5 1.5-1c0-.6-.7-1-1.5-1s-1.5.4-1.5 1zm-277 1.1c0 .5.5.7 1 .4.6-.3 1-.8 1-1.1 0-.2-.4-.4-1-.4-.5 0-1 .5-1 1.1zm-7 1c0 .5.5.7 1 .4.6-.3 1-.8 1-1.1 0-.2-.4-.4-1-.4-.5 0-1 .5-1 1.1zm50-.1c0 .5.5 1 1 1 .6 0 1-.5 1-1 0-.6-.4-1-1-1-.5 0-1 .4-1 1zm6 .4c0 .8 1.4 2 3 2.8 1.7.7 3.3 2.1 3.6 3.1.6 1.8 4.2 4.2 5.1 3.4.2-.3-.5-.8-1.6-1.2-1.2-.3-2.1-1.3-2.1-2 0-1.5-3.3-5-6.2-6.6-1.4-.7-1.8-.6-1.8.5zm52-.4c0 .5.7 1 1.5 1s1.5-.5 1.5-1c0-.6-.7-1-1.5-1s-1.5.4-1.5 1zm68.5.3c-.4 1-.5 2.1-.1 2.4 1 1 1.8-.4 1.3-2.4-.4-1.7-.4-1.7-1.2 0zm8.2-.7c-.6.7 1.4 4.4 2.4 4.4.4 0 1-.8 1.3-1.7.8-2.1-2.1-4.3-3.7-2.7zm23.5 1.2c-1.6 2.1-6.2 2.7-7.4 1-.6-.9-.8-.7-.6.7.3 1.6 1 1.9 3.8 1.7 3-.3 7-3 7-4.7 0-1.1-1.6-.4-2.8 1.3zM18 472c0 .5.9 1.4 2 2 1.1.6 2 .7 2 .3 0-.5-.9-1.4-2-2.1-1.1-.7-2-.8-2-.2zm82 0c0 .6.7 1 1.5 1s1.5-.2 1.5-.4-.7-.6-1.5-1c-.8-.3-1.5-.1-1.5.4zm154.6.5c-.3.8-.1 1.5.4 1.5.6 0 1-.7 1-1.5s-.2-1.5-.4-1.5-.6.7-1 1.5zm-136.6.4c0 .5.5 1.3 1 1.6.6.3 1 .2 1-.4 0-.5-.4-1.3-1-1.6-.5-.3-1-.2-1 .4zm146-.4c0 .5.5 1.7 1 2.5s1 1 1 .5c0-.6-.5-1.7-1-2.5s-1-1.1-1-.5zm7.1 1.1c0 1.1.3 1.4.6.6.3-.7.2-1.6-.1-1.9-.3-.4-.6.2-.5 1.3zm48.9-.6c-.8.5-1.1 1.2-.8 1.6 1 .9 5.8-.4 5.8-1.6 0-1.3-3-1.3-5 0zm6.6-.2c-.3.3-.6.9-.6 1.4 0 1.1 3.7 1 4.4-.1.6-1-3-2.2-3.8-1.3zm-220.8.9c.7.3 1.6.2 1.9-.1.4-.3-.2-.6-1.3-.5-1.1 0-1.4.3-.6.6zm245.9 1.4c.6.6.9 1.8.6 2.5-.3.8 0 1.4.6 1.4s1.1-.2 1.1-.4.3-1.2.7-2.2c.4-1.2.3-1.5-.5-1-.7.4-1.2.2-1.2-.3 0-.6-.5-1.1-1.2-1.1-.9 0-.9.3-.1 1.1zm4.9.6c-.9 2.3-.7 2.5 1.6 1.7 1.9-.6 2.1-.5 1.1.8-.7.8-1 1.8-.6 2.1.3.4-.1.7-1 .7s-1.7.4-1.7 1c0 1.8 2.5 1 4-1.3 2.5-3.8 2.3-6.2-.4-6.3-1.4-.1-2.7.5-3 1.3zM61 476c0 1.1 4.8 4.9 5.4 4.3.3-.4.6-.2.6.4 0 .6.8.9 1.9.6 1.6-.4 1.9-1.6 1.2-5.6-.1-.9-9.1-.6-9.1.3zm22.7.1c-2.2 1.3-2.2 3.2.1 2.7.9-.2 2.2.3 2.9 1.2 1.1 1.3 1.2 1.2 1.3-.6 0-2.9-2-4.5-4.3-3.3zm41.5.1c.5 1.5 2.8 2.3 2.8 1 0-.5-.7-1.3-1.6-1.6-1-.4-1.4-.1-1.2.6zm73.3-.2c.3.5 1.1 1 1.6 1 .6 0 .7-.5.4-1-.3-.6-1.1-1-1.6-1-.6 0-.7.4-.4 1zm21.5 0c0 .5.5 1 1 1 .6 0 1-.5 1-1 0-.6-.4-1-1-1-.5 0-1 .4-1 1zm264.7.5c-.4.8-.2 1.7.3 2 .6.4 1-.3 1-1.4 0-2.5-.6-2.7-1.3-.6zM202 477c0 .5.5 1 1.1 1 .5 0 .7-.5.4-1-.3-.6-.8-1-1.1-1-.2 0-.4.4-.4 1zm58.2.6c-1.3 1.4-.8 3.4.8 3.4.5 0 .7-.7.4-1.5-.7-1.8 1.2-2 2-.3.3.7.5.4.3-.6-.3-2.5-1.8-2.9-3.5-1zm84.8.4c-.9 1.6-.8 2 .5 2 .8 0 1.5-.9 1.5-2s-.2-2-.5-2c-.2 0-.9.9-1.5 2zm-268 .6c0 .8.5 1.2 1 .9.6-.4.8-1.1.5-1.6-.9-1.4-1.5-1.1-1.5.7zm106-.6c0 .5.5 1 1.1 1 .5 0 .7-.5.4-1-.3-.6-.8-1-1.1-1-.2 0-.4.4-.4 1zm157 .8c0 2.8 1 5.2 2.2 5.2.5 0 .6-.4.3-1-.3-.5-.8-2-1-3.1-.6-3-1.5-3.7-1.5-1.1zm8.6-.3c-.3.8-.1 1.5.4 1.5.6 0 1-.7 1-1.5s-.2-1.5-.4-1.5-.6.7-1 1.5zm-137.6.2c0 .5 1.6.8 3.5.8s3.5-.3 3.5-.8c0-.4-1.6-.7-3.5-.7s-3.5.3-3.5.7zm86.5.3c.3.5.8 1 1.1 1 .2 0 .4-.5.4-1 0-.6-.5-1-1.1-1-.5 0-.7.4-.4 1zm39.5 0c0 .5.5 1 1 1 .6 0 1-.5 1-1 0-.6-.4-1-1-1-.5 0-1 .4-1 1zm-136 1c0 .5.5 1 1.1 1 .5 0 .7-.5.4-1-.3-.6-.8-1-1.1-1-.2 0-.4.4-.4 1zm113.8 1.5c-.5 2.5.5 3.4 1.7 1.5.4-.6 1-.8 1.5-.5.5.3 1.2 0 1.5-.6.8-1.2.6-1.5-2.1-2.3-1.7-.5-2.2-.2-2.6 1.9zm-142.8-.8c.1 3 2.1 3.7 9.4 3.5 4.1-.2 7.7.1 8 .7.7 1 4.6.3 4.6-.8 0-.4-2.1-1.2-4.7-1.9-6.8-1.6-17.3-2.5-17.3-1.5zm189 .9c0 .8.5 1.2 1 .9.6-.4.8-1.1.5-1.6-.9-1.4-1.5-1.1-1.5.7zm107-.7c0 .5.7 1.1 1.4 1.4 1 .4 1.3.1.9-.9-.6-1.5-2.3-1.9-2.3-.5zM59 482c0 .5.5 1 1 1 .6 0 1-.5 1-1 0-.6-.4-1-1-1-.5 0-1 .4-1 1zm191-.2c0 .4.5 1.3 1.2 2 .9.9.8 1.2-.7 1.2-1.2 0-1.5.3-.9.9.5.5 2.9.5 5.4.1 4-.7 4.1-.8 1.2-.9-2.5-.1-3.5-.6-3.9-2.1-.5-1.9-2.3-2.9-2.3-1.2zm-166.9 1.3c-2.3.9-2.3 1-.5 2.3 2.3 1.7 4.4 1 4.4-1.5 0-2.1-.4-2.2-3.9-.8zm22 .5c0 1.1.3 1.4.6.6.3-.7.2-1.6-.1-1.9-.3-.4-.6.2-.5 1.3zm170.4-.5c-.9 1.4-.2 2 1.4 1 .8-.6.9-1.1.3-1.5-.6-.3-1.4-.1-1.7.5zm4.5 2.3c0 1.9.5 3.8 1.2 4.2.8.5.9-.2.5-2.4-.6-2.9-.4-3.2 2-3.2 3.2 0 2.6-.9-1.1-1.6-2.4-.4-2.6-.2-2.6 3zm-188-1.5c0 .5.7 1.2 1.6 1.5 2.2.9 2.4.8 1.8-.9-.7-1.6-3.4-2.1-3.4-.6zm5.3.4c.4 1.3 6.7 1.5 6.7.1 0-.5-1.6-1-3.6-1.1-2-.1-3.4.3-3.1 1zm10.7-.4c0 .5.5 1.3 1 1.6.6.3 1 .2 1-.4 0-.5-.4-1.3-1-1.6-.5-.3-1-.2-1 .4zm87 .1c0 .6 1.2 1 2.7 1 2.9 0 2.4-1.2-.7-1.7-1.1-.2-2 .2-2 .7zm75.6-.2c-.3.6-.1 1.4.5 1.7 1.5 1 2.5-.3 1.2-1.6-.7-.7-1.3-.7-1.7-.1zm-61.5 1.2c-2.3 1.3.7 2.3 8.5 2.7 4.3.2 7.5-.1 7.9-.7.4-.6-1.4-1-4.9-1-3 0-6.5-.4-7.9-.9-1.3-.5-2.9-.6-3.6-.1zm141.9 0c0 .5.5 1 1.1 1 .5 0 .7-.5.4-1-.3-.6-.8-1-1.1-1-.2 0-.4.4-.4 1zm47.8.9c-.8 1.3-2.3 2.1-4 2.1-2.9 0-5.4 3.1-4.4 5.6.6 1.6 3.6 1.9 3.6.4 0-.6.7-1 1.5-1s1.2.6 1 1.3c-.3.6.3 1.7 1.4 2.4 1.5 1 2.2.9 3.1-.2 1-1.2.9-1.5-.9-1.5-2.2 0-2.8-1.4-1-2.5.5-.4.9-1.7.7-2.8-.1-1.2.1-2.8.6-3.5.4-.7.6-1.6.3-1.9-.3-.3-1.2.4-1.9 1.6zm66.2-.9c0 .5.5 1 1 1 .6 0 1-.5 1-1 0-.6-.4-1-1-1-.5 0-1 .4-1 1zm-352.6 1.1c-.3.6-.1 1.6.5 2.2.8.8 1.1.5 1.1-1.1 0-2.4-.5-2.8-1.6-1.1zm88.6-.1c0 .5.4 1 .9 1 .6 0 1.3-.5 1.6-1 .3-.6-.1-1-.9-1-.9 0-1.6.4-1.6 1zm44.5 0c.3.5.8 1 1.1 1 .2 0 .4-.5.4-1 0-.6-.5-1-1.1-1-.5 0-.7.4-.4 1zm-224.9 1.6c-.4.9-.4 1.9-.1 2.2.2.3.7-.3 1.1-1.2.4-.9.4-1.9.1-2.2-.2-.3-.7.3-1.1 1.2zm140.4.3c0 1.8.4 2.2 2 1.8 1.1-.3 2-.1 2 .4s.7.9 1.5.9c1.2 0 1.2-.3-.2-1.8-1-1.1-2.2-1.7-2.7-1.4-.4.2-1.2-.2-1.7-.9-.6-1-.9-.8-.9 1zm67-.9c0 .5.5 1 1 1 .6 0 1-.5 1-1 0-.6-.4-1-1-1-.5 0-1 .4-1 1zm49 .5c.7.9 1.5 1.3 1.7 1.1.7-.7-.7-2.6-1.9-2.6-.6 0-.6.6.2 1.5zm95.5.1c-.6.8-1.9 1.6-2.9 1.8-1.1.1-2.2.9-2.4 1.6-.3.7 0 1 .6.6 1.6-1 2.5 1.3 1.2 2.9-1.6 2-.3 1.9 1.6 0 .9-.8 1.2-1.9.9-2.5-1.4-2.3 2.8-.8 5.5 2 2.6 2.6 3.3 2.9 5.1 2 1.1-.7 1.8-1.8 1.5-2.5-.6-1.6 1.7-3.7 3.6-3.3.7.1 1.4-.2 1.5-.7.2-.6-1.9-1.1-4.5-1.1-2.6-.1-5.1-.3-5.7-.4-.5-.1-1.4-.2-1.9-.1-.4.1-1.3-.3-2-.8-.8-.7-1.5-.5-2.1.5zm-106 .4c.3.5.8 1 1.1 1 .2 0 .4-.5.4-1 0-.6-.5-1-1.1-1-.5 0-.7.4-.4 1zm41.2.3c-.3.8.1 2.1.9 2.7 1.5 1.3 1.7.6.5-2.4-.6-1.7-.8-1.7-1.4-.3zm-202.6 2.6c-2.4.9-4.7 2.3-4.9 3.1-.4 1.1.1 1.1 2.2-.4 1.5-.9 3.3-1.5 4-1.3 1.4.6 5.1-1.9 3.9-2.6-.4-.3-2.8.3-5.2 1.2zm46.4-.9c.9 1.5 4.5 3.2 4.5 2.2 0-.5-1.2-1.4-2.6-2-1.4-.7-2.3-.8-1.9-.2zm205.1-.1c-.8 1.2 1.8 2.1 5.7 2.1 1.9 0 2.7-.4 2.2-.9-1.4-1.4-7.3-2.3-7.9-1.2zM421 494c0 .5.6 1 1.3 1 .8 0 2.2.9 3.2 2s2.8 2 4.1 2c1.3 0 2.5.4 2.8.9.3.4 1.7.6 3.1.3 1.7-.3 2.5 0 2.3.8-.2.7.3 1.5 1 1.7.6.3 1.2 0 1.2-.6s.7-1.1 1.5-1.1c2.9 0 1.2-3.4-2.2-4.4-1.4-.5-2.3-.3-2.3.3 0 1.3-4.7 1.5-5.5.2-1.6-2.7-10.5-5.3-10.5-3.1zm-59.5 1c-.3.5-.1 1 .4 1 .6 0 1.1-.5 1.1-1 0-.6-.2-1-.4-1-.3 0-.8.4-1.1 1zm43.5.9c0 1.2.5 2.1 1 2.1.6 0 1-.6 1-1.4 0-.8-.4-1.8-1-2.1-.5-.3-1 .3-1 1.4zm-60.9-.2c-.1.7-1.1 1.3-2.3 1.4-2.2 0-2.2.1-.3.9 1.8.7 1.9.8.2 1.5-.9.4-2.6.5-3.7.2s-2.3-.1-2.6.4c-.3.5 3.6.9 9.1.9 6.1 0 9.4-.4 9-1-.3-.6-2.6-.8-5.1-.5-2.4.3-4.4.2-4.4-.4 0-1.8 10.1-2.4 12.9-.6.6.3 1.1.3 1.1 0 0-1.6-6.9-3.4-9.8-2.5-2.2.6-3.2.5-3.6-.3-.3-.9-.5-.8-.5 0zm-18.1 2.9c0 .8.5 1.2 1 .9.6-.4.8-1.1.5-1.6-.9-1.4-1.5-1.1-1.5.7zm42-.7c0 .6.9.9 2 .8 1.1-.1 2-.5 2-.9s-.9-.8-2-.8-2 .4-2 .9zm-38.2.8c.7.3 1.6.2 1.9-.1.4-.3-.2-.6-1.3-.5-1.1 0-1.4.3-.6.6zm53.8 1c-.4.5-1.3.8-1.8.8-.6 0-1.3.5-1.5 1.1-.2.7.6 1 2.2.7 1.4-.3 2.5-1.2 2.5-1.9 0-1.6-.3-1.7-1.4-.7zm-24.6 1.2c0 .5 1.1.8 2.5.8 1.3 0 2.2-.3 1.9-.8-.3-.5-1.4-.9-2.5-.9-1 0-1.9.4-1.9.9zm45.3 1c-1.7 2.7-1.6 3.1.5 3.1 1 0 2.4.9 3.2 2 .9 1.3 1.6 1.6 2.1.8.9-1.4 2.9-.1 2.3 1.6-.3.9.6 1.5 2.7 2 1.8.3 3.3.5 3.5.4.7-.9-1.4-8.2-2.5-8.6-1-.3-1.2.2-.7 2.1.8 3.5-1.1 4.4-2.6 1.3-.6-1.4-1.9-2.6-2.8-2.6-1 0-2.4-.9-3.1-2l-1.4-2.1-1.2 2zm-332.3 0c0 1.2 2.3 3.1 3.7 3.1.7 0 1.3-.7 1.3-1.5 0-.9.6-1.2 1.8-.8.9.3 1.4.3 1-.2-.9-1-7.8-1.6-7.8-.6zm297.5.1c.3.5 1 1 1.6 1 .5 0 .9-.5.9-1 0-.6-.7-1-1.6-1-.8 0-1.2.4-.9 1zm52.5-.7c0 1.3 3.2 7 4.7 8.5.8.8 4.5 1.6 9.4 1.9l8 .6-1.8-3.1c-1.8-3.2-4.7-5.3-3.7-2.7.3.7-.4 1.9-1.6 2.5-2 1-2.7.8-5.9-2.4-2-2-4.4-3.6-5.2-3.6-.8 0-2-.5-2.7-1.2-.7-.7-1.2-.9-1.2-.5zm-360 2.2c0 1.4 2.1 2.5 4.7 2.5 1.2 0 1.3-.3.4-1.4-1.6-2-5.1-2.7-5.1-1.1zm28.5-.5c-.2.3 0 1.2.4 1.9 1.1 1.7 6.5 1 6.9-1 .2-1.2-.6-1.5-3.4-1.5-1.9.1-3.7.3-3.9.6zm296.5 0c0 .5.5 1 1 1 .6 0 1-.5 1-1 0-.6-.4-1-1-1-.5 0-1 .4-1 1zm-214.4 1.7c-1.1 1.1-.6 2.3.9 2.3.8 0 1.5-.4 1.5-.9 0-1.3-1.6-2.2-2.4-1.4zm209.4.3c0 .5.5 1 1 1 .6 0 1-.5 1-1 0-.6-.4-1-1-1-.5 0-1 .4-1 1zm14 .6c0 .8.5 1.2 1 .9.6-.4.8-1.1.5-1.6-.9-1.4-1.5-1.1-1.5.7zM71.3 507c-1.8.4-4.5 1.6-6 2.6-2.4 1.6-2.5 1.9-1 2.2 3 .6 8.4-.7 9.8-2.4 1-1.2 1.4-1.2 2-.2.4.7 1.1.9 1.5.5.7-.7-1.4-3.8-2.5-3.6-.3.1-2.1.4-3.8.9zm329.7.4c0 .2.7.6 1.5 1 .8.3 1.5.1 1.5-.4 0-.6-.7-1-1.5-1s-1.5.2-1.5.4zM53 509c-.8.5-1.1 1.2-.8 1.6 1 .9 3.8-.3 3.8-1.6 0-1.2-1-1.3-3 0z"/></svg>